%TF.GenerationSoftware,KiCad,Pcbnew,(5.1.7)-1*%
%TF.CreationDate,2020-11-19T15:51:39+01:00*%
%TF.ProjectId,Notifier,4e6f7469-6669-4657-922e-6b696361645f,rev?*%
%TF.SameCoordinates,Original*%
%TF.FileFunction,Copper,L1,Top*%
%TF.FilePolarity,Positive*%
%FSLAX46Y46*%
G04 Gerber Fmt 4.6, Leading zero omitted, Abs format (unit mm)*
G04 Created by KiCad (PCBNEW (5.1.7)-1) date 2020-11-19 15:51:39*
%MOMM*%
%LPD*%
G01*
G04 APERTURE LIST*
%TA.AperFunction,ComponentPad*%
%ADD10C,5.600000*%
%TD*%
%TA.AperFunction,ComponentPad*%
%ADD11C,1.800000*%
%TD*%
%TA.AperFunction,ComponentPad*%
%ADD12O,2.200000X3.500000*%
%TD*%
%TA.AperFunction,ComponentPad*%
%ADD13O,1.500000X2.500000*%
%TD*%
%TA.AperFunction,ComponentPad*%
%ADD14R,1.500000X2.500000*%
%TD*%
%TA.AperFunction,SMDPad,CuDef*%
%ADD15R,1.000000X1.500000*%
%TD*%
%TA.AperFunction,ComponentPad*%
%ADD16O,1.600000X1.600000*%
%TD*%
%TA.AperFunction,ComponentPad*%
%ADD17R,1.600000X1.600000*%
%TD*%
%TA.AperFunction,SMDPad,CuDef*%
%ADD18R,1.800000X1.100000*%
%TD*%
%TA.AperFunction,ComponentPad*%
%ADD19C,1.700000*%
%TD*%
%TA.AperFunction,ViaPad*%
%ADD20C,0.800000*%
%TD*%
%TA.AperFunction,Conductor*%
%ADD21C,0.250000*%
%TD*%
%TA.AperFunction,Conductor*%
%ADD22C,1.000000*%
%TD*%
%TA.AperFunction,Conductor*%
%ADD23C,0.254000*%
%TD*%
%TA.AperFunction,Conductor*%
%ADD24C,0.100000*%
%TD*%
G04 APERTURE END LIST*
D10*
%TO.P,H4,1*%
%TO.N,GND*%
X120015000Y-160020000D03*
%TD*%
%TO.P,H3,1*%
%TO.N,GND*%
X120015000Y-130175000D03*
%TD*%
%TO.P,H2,1*%
%TO.N,GND*%
X30480000Y-130175000D03*
%TD*%
%TO.P,H1,1*%
%TO.N,GND*%
X30480000Y-160020000D03*
%TD*%
%TO.P,C1,2*%
%TO.N,VCC*%
%TA.AperFunction,SMDPad,CuDef*%
G36*
G01*
X53180000Y-134490000D02*
X52230000Y-134490000D01*
G75*
G02*
X51980000Y-134240000I0J250000D01*
G01*
X51980000Y-133740000D01*
G75*
G02*
X52230000Y-133490000I250000J0D01*
G01*
X53180000Y-133490000D01*
G75*
G02*
X53430000Y-133740000I0J-250000D01*
G01*
X53430000Y-134240000D01*
G75*
G02*
X53180000Y-134490000I-250000J0D01*
G01*
G37*
%TD.AperFunction*%
%TO.P,C1,1*%
%TO.N,GND*%
%TA.AperFunction,SMDPad,CuDef*%
G36*
G01*
X53180000Y-136390000D02*
X52230000Y-136390000D01*
G75*
G02*
X51980000Y-136140000I0J250000D01*
G01*
X51980000Y-135640000D01*
G75*
G02*
X52230000Y-135390000I250000J0D01*
G01*
X53180000Y-135390000D01*
G75*
G02*
X53430000Y-135640000I0J-250000D01*
G01*
X53430000Y-136140000D01*
G75*
G02*
X53180000Y-136390000I-250000J0D01*
G01*
G37*
%TD.AperFunction*%
%TD*%
D11*
%TO.P,U2,3*%
%TO.N,VCC*%
X41275000Y-160655000D03*
%TO.P,U2,2*%
%TO.N,GND*%
X38735000Y-160655000D03*
%TO.P,U2,1*%
%TO.N,/IR_out*%
%TA.AperFunction,ComponentPad*%
G36*
G01*
X35295000Y-161306600D02*
X35295000Y-160003400D01*
G75*
G02*
X35543400Y-159755000I248400J0D01*
G01*
X36846600Y-159755000D01*
G75*
G02*
X37095000Y-160003400I0J-248400D01*
G01*
X37095000Y-161306600D01*
G75*
G02*
X36846600Y-161555000I-248400J0D01*
G01*
X35543400Y-161555000D01*
G75*
G02*
X35295000Y-161306600I0J248400D01*
G01*
G37*
%TD.AperFunction*%
%TD*%
D12*
%TO.P,ON/OFF,*%
%TO.N,*%
X67060000Y-161925000D03*
X58860000Y-161925000D03*
D13*
%TO.P,ON/OFF,3*%
%TO.N,VCC*%
X64960000Y-161925000D03*
%TO.P,ON/OFF,2*%
%TO.N,Net-(J1-Pad1)*%
X62960000Y-161925000D03*
D14*
%TO.P,ON/OFF,1*%
%TO.N,Net-(ON/OFF1-Pad1)*%
X60960000Y-161925000D03*
%TD*%
D15*
%TO.P,D1,1*%
%TO.N,VCC*%
X92405000Y-134075000D03*
%TO.P,D1,2*%
X90805000Y-134075000D03*
%TO.P,D1,3*%
X89205000Y-134075000D03*
%TO.P,D1,6*%
%TO.N,Net-(D1-Pad6)*%
X92405000Y-138975000D03*
%TO.P,D1,5*%
%TO.N,Net-(D1-Pad5)*%
X90805000Y-138975000D03*
%TO.P,D1,4*%
%TO.N,Net-(D1-Pad4)*%
X89205000Y-138975000D03*
%TD*%
%TO.P,D4,1*%
%TO.N,VCC*%
X108255000Y-156120000D03*
%TO.P,D4,2*%
X109855000Y-156120000D03*
%TO.P,D4,3*%
X111455000Y-156120000D03*
%TO.P,D4,6*%
%TO.N,Net-(D1-Pad6)*%
X108255000Y-151220000D03*
%TO.P,D4,5*%
%TO.N,Net-(D1-Pad5)*%
X109855000Y-151220000D03*
%TO.P,D4,4*%
%TO.N,Net-(D1-Pad4)*%
X111455000Y-151220000D03*
%TD*%
%TO.P,D2,1*%
%TO.N,VCC*%
X89205000Y-156120000D03*
%TO.P,D2,2*%
X90805000Y-156120000D03*
%TO.P,D2,3*%
X92405000Y-156120000D03*
%TO.P,D2,6*%
%TO.N,Net-(D1-Pad6)*%
X89205000Y-151220000D03*
%TO.P,D2,5*%
%TO.N,Net-(D1-Pad5)*%
X90805000Y-151220000D03*
%TO.P,D2,4*%
%TO.N,Net-(D1-Pad4)*%
X92405000Y-151220000D03*
%TD*%
%TO.P,D3,1*%
%TO.N,VCC*%
X111455000Y-134075000D03*
%TO.P,D3,2*%
X109855000Y-134075000D03*
%TO.P,D3,3*%
X108255000Y-134075000D03*
%TO.P,D3,6*%
%TO.N,Net-(D1-Pad6)*%
X111455000Y-138975000D03*
%TO.P,D3,5*%
%TO.N,Net-(D1-Pad5)*%
X109855000Y-138975000D03*
%TO.P,D3,4*%
%TO.N,Net-(D1-Pad4)*%
X108255000Y-138975000D03*
%TD*%
D16*
%TO.P,U1,8*%
%TO.N,VCC*%
X59055000Y-128905000D03*
%TO.P,U1,4*%
%TO.N,GND*%
X66675000Y-136525000D03*
%TO.P,U1,7*%
%TO.N,/LED_red*%
X61595000Y-128905000D03*
%TO.P,U1,3*%
%TO.N,/LED_blue*%
X64135000Y-136525000D03*
%TO.P,U1,6*%
%TO.N,/IR_out*%
X64135000Y-128905000D03*
%TO.P,U1,2*%
%TO.N,/LED_green*%
X61595000Y-136525000D03*
%TO.P,U1,5*%
%TO.N,/MOSI*%
X66675000Y-128905000D03*
D17*
%TO.P,U1,1*%
%TO.N,/!RST*%
X59055000Y-136525000D03*
%TD*%
D18*
%TO.P,SW1,2*%
%TO.N,VCC*%
X53900000Y-148290000D03*
X47700000Y-148290000D03*
%TO.P,SW1,1*%
%TO.N,/MOSI*%
X53900000Y-144590000D03*
X47700000Y-144590000D03*
%TD*%
%TO.P,R_red,2*%
%TO.N,/LED_red*%
%TA.AperFunction,SMDPad,CuDef*%
G36*
G01*
X81515000Y-141154999D02*
X81515000Y-142055001D01*
G75*
G02*
X81265001Y-142305000I-249999J0D01*
G01*
X80739999Y-142305000D01*
G75*
G02*
X80490000Y-142055001I0J249999D01*
G01*
X80490000Y-141154999D01*
G75*
G02*
X80739999Y-140905000I249999J0D01*
G01*
X81265001Y-140905000D01*
G75*
G02*
X81515000Y-141154999I0J-249999D01*
G01*
G37*
%TD.AperFunction*%
%TO.P,R_red,1*%
%TO.N,Net-(D1-Pad4)*%
%TA.AperFunction,SMDPad,CuDef*%
G36*
G01*
X83340000Y-141154999D02*
X83340000Y-142055001D01*
G75*
G02*
X83090001Y-142305000I-249999J0D01*
G01*
X82564999Y-142305000D01*
G75*
G02*
X82315000Y-142055001I0J249999D01*
G01*
X82315000Y-141154999D01*
G75*
G02*
X82564999Y-140905000I249999J0D01*
G01*
X83090001Y-140905000D01*
G75*
G02*
X83340000Y-141154999I0J-249999D01*
G01*
G37*
%TD.AperFunction*%
%TD*%
%TO.P,R_pu,2*%
%TO.N,/!RST*%
%TA.AperFunction,SMDPad,CuDef*%
G36*
G01*
X56240000Y-135045000D02*
X56790000Y-135045000D01*
G75*
G02*
X56990000Y-135245000I0J-200000D01*
G01*
X56990000Y-135645000D01*
G75*
G02*
X56790000Y-135845000I-200000J0D01*
G01*
X56240000Y-135845000D01*
G75*
G02*
X56040000Y-135645000I0J200000D01*
G01*
X56040000Y-135245000D01*
G75*
G02*
X56240000Y-135045000I200000J0D01*
G01*
G37*
%TD.AperFunction*%
%TO.P,R_pu,1*%
%TO.N,VCC*%
%TA.AperFunction,SMDPad,CuDef*%
G36*
G01*
X56240000Y-133395000D02*
X56790000Y-133395000D01*
G75*
G02*
X56990000Y-133595000I0J-200000D01*
G01*
X56990000Y-133995000D01*
G75*
G02*
X56790000Y-134195000I-200000J0D01*
G01*
X56240000Y-134195000D01*
G75*
G02*
X56040000Y-133995000I0J200000D01*
G01*
X56040000Y-133595000D01*
G75*
G02*
X56240000Y-133395000I200000J0D01*
G01*
G37*
%TD.AperFunction*%
%TD*%
%TO.P,R_pd,2*%
%TO.N,GND*%
%TA.AperFunction,SMDPad,CuDef*%
G36*
G01*
X43540000Y-145840000D02*
X44090000Y-145840000D01*
G75*
G02*
X44290000Y-146040000I0J-200000D01*
G01*
X44290000Y-146440000D01*
G75*
G02*
X44090000Y-146640000I-200000J0D01*
G01*
X43540000Y-146640000D01*
G75*
G02*
X43340000Y-146440000I0J200000D01*
G01*
X43340000Y-146040000D01*
G75*
G02*
X43540000Y-145840000I200000J0D01*
G01*
G37*
%TD.AperFunction*%
%TO.P,R_pd,1*%
%TO.N,/MOSI*%
%TA.AperFunction,SMDPad,CuDef*%
G36*
G01*
X43540000Y-144190000D02*
X44090000Y-144190000D01*
G75*
G02*
X44290000Y-144390000I0J-200000D01*
G01*
X44290000Y-144790000D01*
G75*
G02*
X44090000Y-144990000I-200000J0D01*
G01*
X43540000Y-144990000D01*
G75*
G02*
X43340000Y-144790000I0J200000D01*
G01*
X43340000Y-144390000D01*
G75*
G02*
X43540000Y-144190000I200000J0D01*
G01*
G37*
%TD.AperFunction*%
%TD*%
%TO.P,R_green,2*%
%TO.N,/LED_green*%
%TA.AperFunction,SMDPad,CuDef*%
G36*
G01*
X81515000Y-144647499D02*
X81515000Y-145547501D01*
G75*
G02*
X81265001Y-145797500I-249999J0D01*
G01*
X80739999Y-145797500D01*
G75*
G02*
X80490000Y-145547501I0J249999D01*
G01*
X80490000Y-144647499D01*
G75*
G02*
X80739999Y-144397500I249999J0D01*
G01*
X81265001Y-144397500D01*
G75*
G02*
X81515000Y-144647499I0J-249999D01*
G01*
G37*
%TD.AperFunction*%
%TO.P,R_green,1*%
%TO.N,Net-(D1-Pad5)*%
%TA.AperFunction,SMDPad,CuDef*%
G36*
G01*
X83340000Y-144647499D02*
X83340000Y-145547501D01*
G75*
G02*
X83090001Y-145797500I-249999J0D01*
G01*
X82564999Y-145797500D01*
G75*
G02*
X82315000Y-145547501I0J249999D01*
G01*
X82315000Y-144647499D01*
G75*
G02*
X82564999Y-144397500I249999J0D01*
G01*
X83090001Y-144397500D01*
G75*
G02*
X83340000Y-144647499I0J-249999D01*
G01*
G37*
%TD.AperFunction*%
%TD*%
%TO.P,R_blue,2*%
%TO.N,/LED_blue*%
%TA.AperFunction,SMDPad,CuDef*%
G36*
G01*
X81515000Y-148139999D02*
X81515000Y-149040001D01*
G75*
G02*
X81265001Y-149290000I-249999J0D01*
G01*
X80739999Y-149290000D01*
G75*
G02*
X80490000Y-149040001I0J249999D01*
G01*
X80490000Y-148139999D01*
G75*
G02*
X80739999Y-147890000I249999J0D01*
G01*
X81265001Y-147890000D01*
G75*
G02*
X81515000Y-148139999I0J-249999D01*
G01*
G37*
%TD.AperFunction*%
%TO.P,R_blue,1*%
%TO.N,Net-(D1-Pad6)*%
%TA.AperFunction,SMDPad,CuDef*%
G36*
G01*
X83340000Y-148139999D02*
X83340000Y-149040001D01*
G75*
G02*
X83090001Y-149290000I-249999J0D01*
G01*
X82564999Y-149290000D01*
G75*
G02*
X82315000Y-149040001I0J249999D01*
G01*
X82315000Y-148139999D01*
G75*
G02*
X82564999Y-147890000I249999J0D01*
G01*
X83090001Y-147890000D01*
G75*
G02*
X83340000Y-148139999I0J-249999D01*
G01*
G37*
%TD.AperFunction*%
%TD*%
%TO.P,J2,1*%
%TO.N,/MOSI*%
%TA.AperFunction,ComponentPad*%
G36*
G01*
X40040000Y-130595000D02*
X41240000Y-130595000D01*
G75*
G02*
X41490000Y-130845000I0J-250000D01*
G01*
X41490000Y-132045000D01*
G75*
G02*
X41240000Y-132295000I-250000J0D01*
G01*
X40040000Y-132295000D01*
G75*
G02*
X39790000Y-132045000I0J250000D01*
G01*
X39790000Y-130845000D01*
G75*
G02*
X40040000Y-130595000I250000J0D01*
G01*
G37*
%TD.AperFunction*%
D19*
%TO.P,J2,3*%
%TO.N,/LED_red*%
X38100000Y-131445000D03*
%TO.P,J2,5*%
%TO.N,/!RST*%
X35560000Y-131445000D03*
%TO.P,J2,2*%
%TO.N,VCC*%
X40640000Y-133985000D03*
%TO.P,J2,4*%
%TO.N,/IR_out*%
X38100000Y-133985000D03*
%TO.P,J2,6*%
%TO.N,GND*%
X35560000Y-133985000D03*
%TD*%
%TO.P,C2,2*%
%TO.N,GND*%
%TA.AperFunction,SMDPad,CuDef*%
G36*
G01*
X36670000Y-156395000D02*
X35720000Y-156395000D01*
G75*
G02*
X35470000Y-156145000I0J250000D01*
G01*
X35470000Y-155645000D01*
G75*
G02*
X35720000Y-155395000I250000J0D01*
G01*
X36670000Y-155395000D01*
G75*
G02*
X36920000Y-155645000I0J-250000D01*
G01*
X36920000Y-156145000D01*
G75*
G02*
X36670000Y-156395000I-250000J0D01*
G01*
G37*
%TD.AperFunction*%
%TO.P,C2,1*%
%TO.N,/IR_out*%
%TA.AperFunction,SMDPad,CuDef*%
G36*
G01*
X36670000Y-158295000D02*
X35720000Y-158295000D01*
G75*
G02*
X35470000Y-158045000I0J250000D01*
G01*
X35470000Y-157545000D01*
G75*
G02*
X35720000Y-157295000I250000J0D01*
G01*
X36670000Y-157295000D01*
G75*
G02*
X36920000Y-157545000I0J-250000D01*
G01*
X36920000Y-158045000D01*
G75*
G02*
X36670000Y-158295000I-250000J0D01*
G01*
G37*
%TD.AperFunction*%
%TD*%
D20*
%TO.N,GND*%
X66675000Y-139700000D03*
X67945000Y-139700000D03*
X67945000Y-140970000D03*
X66675000Y-140970000D03*
X52070000Y-160655000D03*
X53340000Y-160655000D03*
X53340000Y-161925000D03*
X52070000Y-161925000D03*
X79375000Y-153035000D03*
X79375000Y-151765000D03*
X78105000Y-151765000D03*
X78105000Y-153035000D03*
X113030000Y-160020000D03*
X113030000Y-161290000D03*
X114300000Y-161290000D03*
X114300000Y-160020000D03*
X82550000Y-135890000D03*
X83820000Y-135890000D03*
X83820000Y-137160000D03*
X82550000Y-137160000D03*
X33655000Y-135890000D03*
X33655000Y-137160000D03*
X32385000Y-137160000D03*
X32385000Y-135890000D03*
%TO.N,/MOSI*%
X47700000Y-135330000D03*
X47625000Y-131445000D03*
%TO.N,Net-(D1-Pad6)*%
X95250000Y-139700000D03*
X95250000Y-143510000D03*
%TO.N,Net-(D1-Pad5)*%
X85090000Y-146685000D03*
X85090000Y-150495000D03*
X100330000Y-136525000D03*
%TO.N,Net-(D1-Pad4)*%
X109855000Y-146050000D03*
X107950000Y-144145000D03*
X95250000Y-150495000D03*
%TD*%
D21*
%TO.N,/IR_out*%
X62865000Y-127635000D02*
X64135000Y-128905000D01*
X55880000Y-127635000D02*
X62865000Y-127635000D01*
X50800000Y-132715000D02*
X55880000Y-127635000D01*
X39370000Y-132715000D02*
X50800000Y-132715000D01*
X38100000Y-133985000D02*
X39370000Y-132715000D01*
D22*
%TO.N,VCC*%
X89205000Y-134075000D02*
X90805000Y-134075000D01*
X90805000Y-134075000D02*
X92405000Y-134075000D01*
X92405000Y-134075000D02*
X111455000Y-134075000D01*
X111455000Y-134075000D02*
X112485000Y-134075000D01*
X112485000Y-134075000D02*
X113665000Y-135255000D01*
X113665000Y-135255000D02*
X113665000Y-154940000D01*
X112485000Y-156120000D02*
X111455000Y-156120000D01*
X113665000Y-154940000D02*
X112485000Y-156120000D01*
X89205000Y-156120000D02*
X67400000Y-156120000D01*
X64960000Y-158560000D02*
X64960000Y-161925000D01*
X67400000Y-156120000D02*
X64960000Y-158560000D01*
X40730000Y-134075000D02*
X40640000Y-133985000D01*
X40640000Y-133985000D02*
X53975000Y-133985000D01*
D21*
X56515000Y-133795000D02*
X56515000Y-131445000D01*
D22*
X56515000Y-131445000D02*
X59055000Y-128905000D01*
X53975000Y-133985000D02*
X56515000Y-131445000D01*
X67400000Y-156120000D02*
X43905000Y-156120000D01*
X92405000Y-156120000D02*
X89205000Y-156120000D01*
X108255000Y-156120000D02*
X111455000Y-156120000D01*
X108255000Y-156120000D02*
X108255000Y-159080000D01*
X108255000Y-159080000D02*
X106045000Y-161290000D01*
X106045000Y-161290000D02*
X94615000Y-161290000D01*
X92405000Y-159080000D02*
X92405000Y-156120000D01*
X94615000Y-161290000D02*
X92405000Y-159080000D01*
D21*
%TO.N,/!RST*%
X57595000Y-136525000D02*
X56515000Y-135445000D01*
X59055000Y-136525000D02*
X57595000Y-136525000D01*
D22*
%TO.N,/LED_red*%
X61595000Y-128905000D02*
X61595000Y-129540000D01*
X61595000Y-129540000D02*
X63500000Y-131445000D01*
X73025000Y-131445000D02*
X77470000Y-135890000D01*
X77470000Y-135890000D02*
X77470000Y-139065000D01*
X80010000Y-141605000D02*
X81002500Y-141605000D01*
X77470000Y-139065000D02*
X80010000Y-141605000D01*
X71755000Y-131445000D02*
X73025000Y-131445000D01*
X63500000Y-131445000D02*
X71755000Y-131445000D01*
D21*
X71120000Y-130810000D02*
X71755000Y-131445000D01*
X38100000Y-131445000D02*
X38100000Y-130810000D01*
X66675000Y-126365000D02*
X71120000Y-130810000D01*
%TO.N,/MOSI*%
X64770000Y-127000000D02*
X66675000Y-128905000D01*
X53975000Y-127000000D02*
X64770000Y-127000000D01*
X49530000Y-131445000D02*
X53975000Y-127000000D01*
X40640000Y-131445000D02*
X47625000Y-131445000D01*
%TO.N,VCC*%
X53955000Y-148590000D02*
X53900000Y-148535000D01*
X40695000Y-148535000D02*
X40640000Y-148590000D01*
D22*
X40640000Y-148590000D02*
X40640000Y-152855000D01*
D21*
X53900000Y-148290000D02*
X47700000Y-148290000D01*
X40975000Y-148290000D02*
X40640000Y-147955000D01*
X47700000Y-148290000D02*
X40975000Y-148290000D01*
D22*
X40640000Y-147955000D02*
X40640000Y-148590000D01*
X40640000Y-133985000D02*
X40640000Y-147955000D01*
%TO.N,GND*%
X38735000Y-160655000D02*
X38735000Y-160020000D01*
D21*
%TO.N,/IR_out*%
X36195000Y-160655000D02*
X36195000Y-157795000D01*
D22*
%TO.N,VCC*%
X43587500Y-155802500D02*
X43905000Y-156120000D01*
X40640000Y-152855000D02*
X43587500Y-155802500D01*
X43587500Y-158342500D02*
X41275000Y-160655000D01*
X43587500Y-155802500D02*
X43587500Y-158342500D01*
D21*
%TO.N,/LED_red*%
X38100000Y-130810000D02*
X39370000Y-129540000D01*
X48895000Y-129540000D02*
X52070000Y-126365000D01*
X39370000Y-129540000D02*
X48895000Y-129540000D01*
X52070000Y-126365000D02*
X66675000Y-126365000D01*
%TO.N,/MOSI*%
X47700000Y-135330000D02*
X47700000Y-135330000D01*
X47625000Y-131445000D02*
X49530000Y-131445000D01*
X47700000Y-135330000D02*
X47550000Y-135330000D01*
X47550000Y-135330000D02*
X43815000Y-139065000D01*
X43815000Y-139065000D02*
X43815000Y-140950000D01*
X43815000Y-140950000D02*
X43815000Y-144590000D01*
X47455000Y-144590000D02*
X47700000Y-144835000D01*
X53900000Y-144590000D02*
X47700000Y-144590000D01*
X47700000Y-144590000D02*
X43815000Y-144590000D01*
D22*
%TO.N,/LED_blue*%
X64135000Y-136525000D02*
X64135000Y-135255000D01*
X64135000Y-135255000D02*
X65405000Y-133985000D01*
X65405000Y-133985000D02*
X71755000Y-133985000D01*
X71755000Y-133985000D02*
X74930000Y-137160000D01*
X74930000Y-137160000D02*
X74930000Y-146685000D01*
X76835000Y-148590000D02*
X81002500Y-148590000D01*
X74930000Y-146685000D02*
X76835000Y-148590000D01*
%TO.N,/LED_green*%
X61595000Y-136525000D02*
X61595000Y-135890000D01*
X61595000Y-135890000D02*
X64770000Y-132715000D01*
X64770000Y-132715000D02*
X72390000Y-132715000D01*
X72390000Y-132715000D02*
X76200000Y-136525000D01*
X76200000Y-136525000D02*
X76200000Y-142875000D01*
X78422500Y-145097500D02*
X81002500Y-145097500D01*
X76200000Y-142875000D02*
X78422500Y-145097500D01*
%TO.N,Net-(D1-Pad6)*%
X86575000Y-148590000D02*
X89205000Y-151220000D01*
X82827500Y-148590000D02*
X86575000Y-148590000D01*
X105625000Y-148590000D02*
X108255000Y-151220000D01*
X111455000Y-142760000D02*
X105625000Y-148590000D01*
X111455000Y-138975000D02*
X111455000Y-142760000D01*
X92405000Y-138975000D02*
X94525000Y-138975000D01*
X94525000Y-138975000D02*
X95250000Y-139700000D01*
X95250000Y-139700000D02*
X95250000Y-139700000D01*
X95250000Y-148590000D02*
X105625000Y-148590000D01*
X95250000Y-143510000D02*
X90170000Y-148590000D01*
X90170000Y-148590000D02*
X95250000Y-148590000D01*
X86575000Y-148590000D02*
X90170000Y-148590000D01*
%TO.N,Net-(D1-Pad5)*%
X90805000Y-151220000D02*
X90805000Y-153035000D01*
X90805000Y-153035000D02*
X91440000Y-153670000D01*
X91440000Y-153670000D02*
X108585000Y-153670000D01*
X109855000Y-152400000D02*
X109855000Y-151220000D01*
X108585000Y-153670000D02*
X109855000Y-152400000D01*
X90805000Y-138975000D02*
X90805000Y-137160000D01*
X90805000Y-137160000D02*
X91440000Y-136525000D01*
X91440000Y-136525000D02*
X108585000Y-136525000D01*
X109855000Y-137795000D02*
X109855000Y-138975000D01*
X108585000Y-136525000D02*
X109855000Y-137795000D01*
X91440000Y-153670000D02*
X88265000Y-153670000D01*
X88265000Y-153670000D02*
X85090000Y-150495000D01*
X85090000Y-150495000D02*
X85090000Y-150495000D01*
X83502500Y-145097500D02*
X85090000Y-146685000D01*
X82827500Y-145097500D02*
X83502500Y-145097500D01*
%TO.N,Net-(D1-Pad4)*%
X86575000Y-141605000D02*
X89205000Y-138975000D01*
X82827500Y-141605000D02*
X86575000Y-141605000D01*
X105625000Y-141605000D02*
X108255000Y-138975000D01*
X86575000Y-141605000D02*
X105625000Y-141605000D01*
X105625000Y-141605000D02*
X105625000Y-141820000D01*
X105625000Y-141820000D02*
X107315000Y-143510000D01*
X107315000Y-143510000D02*
X107315000Y-143510000D01*
X107315000Y-143510000D02*
X107950000Y-144145000D01*
X111455000Y-147650000D02*
X109858535Y-146053535D01*
X111455000Y-151220000D02*
X111455000Y-147650000D01*
X92405000Y-151220000D02*
X94525000Y-151220000D01*
X94525000Y-151220000D02*
X95250000Y-150495000D01*
X95250000Y-150495000D02*
X95250000Y-150495000D01*
%TD*%
D23*
%TO.N,GND*%
X51562083Y-125798668D02*
X51529999Y-125824999D01*
X51506201Y-125853997D01*
X48580199Y-128780000D01*
X39407322Y-128780000D01*
X39369999Y-128776324D01*
X39332676Y-128780000D01*
X39332667Y-128780000D01*
X39221014Y-128790997D01*
X39077753Y-128834454D01*
X38945724Y-128905026D01*
X38829999Y-128999999D01*
X38806201Y-129028997D01*
X37855697Y-129979502D01*
X37666842Y-130017068D01*
X37396589Y-130129010D01*
X37153368Y-130291525D01*
X36946525Y-130498368D01*
X36830000Y-130672760D01*
X36713475Y-130498368D01*
X36506632Y-130291525D01*
X36263411Y-130129010D01*
X35993158Y-130017068D01*
X35706260Y-129960000D01*
X35413740Y-129960000D01*
X35126842Y-130017068D01*
X34856589Y-130129010D01*
X34613368Y-130291525D01*
X34406525Y-130498368D01*
X34244010Y-130741589D01*
X34132068Y-131011842D01*
X34075000Y-131298740D01*
X34075000Y-131591260D01*
X34132068Y-131878158D01*
X34244010Y-132148411D01*
X34406525Y-132391632D01*
X34613368Y-132598475D01*
X34786729Y-132714311D01*
X34711208Y-132956603D01*
X35560000Y-133805395D01*
X36408792Y-132956603D01*
X36333271Y-132714311D01*
X36506632Y-132598475D01*
X36713475Y-132391632D01*
X36830000Y-132217240D01*
X36946525Y-132391632D01*
X37153368Y-132598475D01*
X37327760Y-132715000D01*
X37153368Y-132831525D01*
X36946525Y-133038368D01*
X36830689Y-133211729D01*
X36588397Y-133136208D01*
X35739605Y-133985000D01*
X36588397Y-134833792D01*
X36830689Y-134758271D01*
X36946525Y-134931632D01*
X37153368Y-135138475D01*
X37396589Y-135300990D01*
X37666842Y-135412932D01*
X37953740Y-135470000D01*
X38246260Y-135470000D01*
X38533158Y-135412932D01*
X38803411Y-135300990D01*
X39046632Y-135138475D01*
X39253475Y-134931632D01*
X39370000Y-134757240D01*
X39486525Y-134931632D01*
X39505000Y-134950107D01*
X39505001Y-147899239D01*
X39505000Y-147899249D01*
X39505000Y-148534249D01*
X39505001Y-152799239D01*
X39499509Y-152855000D01*
X39521423Y-153077498D01*
X39586324Y-153291446D01*
X39586325Y-153291447D01*
X39691717Y-153488623D01*
X39833552Y-153661449D01*
X39876860Y-153696991D01*
X42452500Y-156272632D01*
X42452501Y-157872367D01*
X41204869Y-159120000D01*
X41123816Y-159120000D01*
X40827257Y-159178989D01*
X40547905Y-159294701D01*
X40296495Y-159462688D01*
X40082688Y-159676495D01*
X39980049Y-159830105D01*
X39799080Y-159770525D01*
X38914605Y-160655000D01*
X39799080Y-161539475D01*
X39980049Y-161479895D01*
X40082688Y-161633505D01*
X40296495Y-161847312D01*
X40547905Y-162015299D01*
X40827257Y-162131011D01*
X41123816Y-162190000D01*
X41426184Y-162190000D01*
X41722743Y-162131011D01*
X42002095Y-162015299D01*
X42253505Y-161847312D01*
X42467312Y-161633505D01*
X42635299Y-161382095D01*
X42751011Y-161102743D01*
X42810000Y-160806184D01*
X42810000Y-160725131D01*
X44350641Y-159184491D01*
X44393949Y-159148949D01*
X44535784Y-158976123D01*
X44641176Y-158778947D01*
X44706077Y-158564999D01*
X44722500Y-158398252D01*
X44727991Y-158342500D01*
X44722500Y-158286748D01*
X44722500Y-157255000D01*
X64659869Y-157255000D01*
X64196865Y-157718004D01*
X64153551Y-157753551D01*
X64011716Y-157926377D01*
X63921901Y-158094412D01*
X63906324Y-158123554D01*
X63841423Y-158337502D01*
X63819509Y-158560000D01*
X63825000Y-158615752D01*
X63825001Y-160343193D01*
X63733187Y-160267843D01*
X63492580Y-160139236D01*
X63231506Y-160060040D01*
X62960000Y-160033299D01*
X62688493Y-160060040D01*
X62427419Y-160139236D01*
X62194114Y-160263940D01*
X62161185Y-160223815D01*
X62064494Y-160144463D01*
X61954180Y-160085498D01*
X61834482Y-160049188D01*
X61710000Y-160036928D01*
X60210000Y-160036928D01*
X60097504Y-160048008D01*
X60092766Y-160042234D01*
X59828577Y-159825421D01*
X59527167Y-159664314D01*
X59200118Y-159565105D01*
X58860000Y-159531606D01*
X58519881Y-159565105D01*
X58192832Y-159664314D01*
X57891422Y-159825421D01*
X57627234Y-160042234D01*
X57410421Y-160306423D01*
X57249314Y-160607833D01*
X57150105Y-160934882D01*
X57125000Y-161189776D01*
X57125000Y-162660225D01*
X57150105Y-162915119D01*
X57249315Y-163242168D01*
X57410422Y-163543578D01*
X57627235Y-163807766D01*
X57891423Y-164024579D01*
X58192833Y-164185686D01*
X58519882Y-164284895D01*
X58860000Y-164318394D01*
X59200119Y-164284895D01*
X59527168Y-164185686D01*
X59828578Y-164024579D01*
X60092766Y-163807766D01*
X60097504Y-163801992D01*
X60210000Y-163813072D01*
X61710000Y-163813072D01*
X61834482Y-163800812D01*
X61954180Y-163764502D01*
X62064494Y-163705537D01*
X62161185Y-163626185D01*
X62194115Y-163586060D01*
X62427420Y-163710764D01*
X62688494Y-163789960D01*
X62960000Y-163816701D01*
X63231507Y-163789960D01*
X63492581Y-163710764D01*
X63733188Y-163582157D01*
X63944081Y-163409081D01*
X63960000Y-163389683D01*
X63975920Y-163409081D01*
X64186813Y-163582157D01*
X64427420Y-163710764D01*
X64688494Y-163789960D01*
X64960000Y-163816701D01*
X65231507Y-163789960D01*
X65492581Y-163710764D01*
X65669862Y-163616006D01*
X65827235Y-163807766D01*
X66091423Y-164024579D01*
X66392833Y-164185686D01*
X66719882Y-164284895D01*
X67060000Y-164318394D01*
X67400119Y-164284895D01*
X67727168Y-164185686D01*
X68028578Y-164024579D01*
X68292766Y-163807766D01*
X68509579Y-163543578D01*
X68670686Y-163242168D01*
X68769895Y-162915119D01*
X68795000Y-162660225D01*
X68795000Y-162436481D01*
X117778124Y-162436481D01*
X118090308Y-162885177D01*
X118686259Y-163205612D01*
X119333273Y-163403626D01*
X120006484Y-163471610D01*
X120680023Y-163406949D01*
X121328006Y-163212130D01*
X121925530Y-162894639D01*
X121939692Y-162885177D01*
X122251876Y-162436481D01*
X120015000Y-160199605D01*
X117778124Y-162436481D01*
X68795000Y-162436481D01*
X68795000Y-161189775D01*
X68769895Y-160934881D01*
X68670686Y-160607832D01*
X68509579Y-160306422D01*
X68292766Y-160042234D01*
X68028577Y-159825421D01*
X67727167Y-159664314D01*
X67400118Y-159565105D01*
X67060000Y-159531606D01*
X66719881Y-159565105D01*
X66392832Y-159664314D01*
X66095000Y-159823509D01*
X66095000Y-159030131D01*
X67870132Y-157255000D01*
X88199499Y-157255000D01*
X88253815Y-157321185D01*
X88350506Y-157400537D01*
X88460820Y-157459502D01*
X88580518Y-157495812D01*
X88705000Y-157508072D01*
X89705000Y-157508072D01*
X89829482Y-157495812D01*
X89949180Y-157459502D01*
X90005000Y-157429665D01*
X90060820Y-157459502D01*
X90180518Y-157495812D01*
X90305000Y-157508072D01*
X91270001Y-157508072D01*
X91270000Y-159024248D01*
X91264509Y-159080000D01*
X91270000Y-159135751D01*
X91286423Y-159302498D01*
X91351324Y-159516446D01*
X91456716Y-159713623D01*
X91598551Y-159886449D01*
X91641865Y-159921996D01*
X93773009Y-162053141D01*
X93808551Y-162096449D01*
X93981377Y-162238284D01*
X94178553Y-162343676D01*
X94392501Y-162408577D01*
X94615000Y-162430491D01*
X94670751Y-162425000D01*
X105989249Y-162425000D01*
X106045000Y-162430491D01*
X106100751Y-162425000D01*
X106100752Y-162425000D01*
X106267499Y-162408577D01*
X106481447Y-162343676D01*
X106678623Y-162238284D01*
X106851449Y-162096449D01*
X106886996Y-162053135D01*
X108928647Y-160011484D01*
X116563390Y-160011484D01*
X116628051Y-160685023D01*
X116822870Y-161333006D01*
X117140361Y-161930530D01*
X117149823Y-161944692D01*
X117598519Y-162256876D01*
X119835395Y-160020000D01*
X120194605Y-160020000D01*
X122431481Y-162256876D01*
X122880177Y-161944692D01*
X123200612Y-161348741D01*
X123398626Y-160701727D01*
X123466610Y-160028516D01*
X123401949Y-159354977D01*
X123207130Y-158706994D01*
X122889639Y-158109470D01*
X122880177Y-158095308D01*
X122431481Y-157783124D01*
X120194605Y-160020000D01*
X119835395Y-160020000D01*
X117598519Y-157783124D01*
X117149823Y-158095308D01*
X116829388Y-158691259D01*
X116631374Y-159338273D01*
X116563390Y-160011484D01*
X108928647Y-160011484D01*
X109018141Y-159921991D01*
X109061449Y-159886449D01*
X109203284Y-159713623D01*
X109308676Y-159516447D01*
X109373577Y-159302499D01*
X109390000Y-159135752D01*
X109390000Y-159135751D01*
X109395491Y-159080000D01*
X109390000Y-159024249D01*
X109390000Y-157603519D01*
X117778124Y-157603519D01*
X120015000Y-159840395D01*
X122251876Y-157603519D01*
X121939692Y-157154823D01*
X121343741Y-156834388D01*
X120696727Y-156636374D01*
X120023516Y-156568390D01*
X119349977Y-156633051D01*
X118701994Y-156827870D01*
X118104470Y-157145361D01*
X118090308Y-157154823D01*
X117778124Y-157603519D01*
X109390000Y-157603519D01*
X109390000Y-157508072D01*
X110355000Y-157508072D01*
X110479482Y-157495812D01*
X110599180Y-157459502D01*
X110655000Y-157429665D01*
X110710820Y-157459502D01*
X110830518Y-157495812D01*
X110955000Y-157508072D01*
X111955000Y-157508072D01*
X112079482Y-157495812D01*
X112199180Y-157459502D01*
X112309494Y-157400537D01*
X112406185Y-157321185D01*
X112458164Y-157257848D01*
X112485000Y-157260491D01*
X112540751Y-157255000D01*
X112540752Y-157255000D01*
X112707499Y-157238577D01*
X112921447Y-157173676D01*
X113118623Y-157068284D01*
X113291449Y-156926449D01*
X113326996Y-156883135D01*
X114428140Y-155781992D01*
X114471449Y-155746449D01*
X114613284Y-155573623D01*
X114718676Y-155376447D01*
X114783577Y-155162499D01*
X114800000Y-154995752D01*
X114805491Y-154940001D01*
X114800000Y-154884249D01*
X114800000Y-135310751D01*
X114805491Y-135254999D01*
X114783577Y-135032501D01*
X114718676Y-134818553D01*
X114697744Y-134779392D01*
X114613284Y-134621377D01*
X114471449Y-134448551D01*
X114428140Y-134413008D01*
X113326996Y-133311865D01*
X113291449Y-133268551D01*
X113118623Y-133126716D01*
X112921447Y-133021324D01*
X112707499Y-132956423D01*
X112540752Y-132940000D01*
X112540751Y-132940000D01*
X112485000Y-132934509D01*
X112458164Y-132937152D01*
X112406185Y-132873815D01*
X112309494Y-132794463D01*
X112199180Y-132735498D01*
X112079482Y-132699188D01*
X111955000Y-132686928D01*
X110955000Y-132686928D01*
X110830518Y-132699188D01*
X110710820Y-132735498D01*
X110655000Y-132765335D01*
X110599180Y-132735498D01*
X110479482Y-132699188D01*
X110355000Y-132686928D01*
X109355000Y-132686928D01*
X109230518Y-132699188D01*
X109110820Y-132735498D01*
X109055000Y-132765335D01*
X108999180Y-132735498D01*
X108879482Y-132699188D01*
X108755000Y-132686928D01*
X107755000Y-132686928D01*
X107630518Y-132699188D01*
X107510820Y-132735498D01*
X107400506Y-132794463D01*
X107303815Y-132873815D01*
X107249499Y-132940000D01*
X93410501Y-132940000D01*
X93356185Y-132873815D01*
X93259494Y-132794463D01*
X93149180Y-132735498D01*
X93029482Y-132699188D01*
X92905000Y-132686928D01*
X91905000Y-132686928D01*
X91780518Y-132699188D01*
X91660820Y-132735498D01*
X91605000Y-132765335D01*
X91549180Y-132735498D01*
X91429482Y-132699188D01*
X91305000Y-132686928D01*
X90305000Y-132686928D01*
X90180518Y-132699188D01*
X90060820Y-132735498D01*
X90005000Y-132765335D01*
X89949180Y-132735498D01*
X89829482Y-132699188D01*
X89705000Y-132686928D01*
X88705000Y-132686928D01*
X88580518Y-132699188D01*
X88460820Y-132735498D01*
X88350506Y-132794463D01*
X88253815Y-132873815D01*
X88174463Y-132970506D01*
X88115498Y-133080820D01*
X88079188Y-133200518D01*
X88066928Y-133325000D01*
X88066928Y-134050439D01*
X88064509Y-134075000D01*
X88066928Y-134099561D01*
X88066928Y-134825000D01*
X88079188Y-134949482D01*
X88115498Y-135069180D01*
X88174463Y-135179494D01*
X88253815Y-135276185D01*
X88350506Y-135355537D01*
X88460820Y-135414502D01*
X88580518Y-135450812D01*
X88705000Y-135463072D01*
X89705000Y-135463072D01*
X89829482Y-135450812D01*
X89949180Y-135414502D01*
X90005000Y-135384665D01*
X90060820Y-135414502D01*
X90180518Y-135450812D01*
X90305000Y-135463072D01*
X91030756Y-135463072D01*
X91003553Y-135471324D01*
X90806377Y-135576716D01*
X90633551Y-135718551D01*
X90598008Y-135761860D01*
X90041860Y-136318009D01*
X89998552Y-136353551D01*
X89856717Y-136526377D01*
X89827654Y-136580751D01*
X89751324Y-136723554D01*
X89686423Y-136937502D01*
X89664509Y-137160000D01*
X89670000Y-137215751D01*
X89670000Y-137586928D01*
X88705000Y-137586928D01*
X88580518Y-137599188D01*
X88460820Y-137635498D01*
X88350506Y-137694463D01*
X88253815Y-137773815D01*
X88174463Y-137870506D01*
X88115498Y-137980820D01*
X88079188Y-138100518D01*
X88066928Y-138225000D01*
X88066928Y-138507939D01*
X86104869Y-140470000D01*
X83648461Y-140470000D01*
X83583387Y-140416595D01*
X83429851Y-140334528D01*
X83263255Y-140283992D01*
X83090001Y-140266928D01*
X82564999Y-140266928D01*
X82391745Y-140283992D01*
X82225149Y-140334528D01*
X82071613Y-140416595D01*
X81937038Y-140527038D01*
X81915000Y-140553891D01*
X81892962Y-140527038D01*
X81758387Y-140416595D01*
X81604851Y-140334528D01*
X81438255Y-140283992D01*
X81265001Y-140266928D01*
X80739999Y-140266928D01*
X80566745Y-140283992D01*
X80400149Y-140334528D01*
X80363988Y-140353856D01*
X78605000Y-138594869D01*
X78605000Y-135945741D01*
X78610490Y-135889999D01*
X78605000Y-135834257D01*
X78605000Y-135834248D01*
X78588577Y-135667501D01*
X78523676Y-135453553D01*
X78418284Y-135256377D01*
X78276449Y-135083551D01*
X78233141Y-135048009D01*
X75776613Y-132591481D01*
X117778124Y-132591481D01*
X118090308Y-133040177D01*
X118686259Y-133360612D01*
X119333273Y-133558626D01*
X120006484Y-133626610D01*
X120680023Y-133561949D01*
X121328006Y-133367130D01*
X121925530Y-133049639D01*
X121939692Y-133040177D01*
X122251876Y-132591481D01*
X120015000Y-130354605D01*
X117778124Y-132591481D01*
X75776613Y-132591481D01*
X73866996Y-130681865D01*
X73831449Y-130638551D01*
X73658623Y-130496716D01*
X73461447Y-130391324D01*
X73247499Y-130326423D01*
X73080752Y-130310000D01*
X73080751Y-130310000D01*
X73025000Y-130304509D01*
X72969249Y-130310000D01*
X71694801Y-130310000D01*
X71683803Y-130299002D01*
X71683799Y-130298997D01*
X71551286Y-130166484D01*
X116563390Y-130166484D01*
X116628051Y-130840023D01*
X116822870Y-131488006D01*
X117140361Y-132085530D01*
X117149823Y-132099692D01*
X117598519Y-132411876D01*
X119835395Y-130175000D01*
X120194605Y-130175000D01*
X122431481Y-132411876D01*
X122880177Y-132099692D01*
X123200612Y-131503741D01*
X123398626Y-130856727D01*
X123466610Y-130183516D01*
X123401949Y-129509977D01*
X123207130Y-128861994D01*
X122889639Y-128264470D01*
X122880177Y-128250308D01*
X122431481Y-127938124D01*
X120194605Y-130175000D01*
X119835395Y-130175000D01*
X117598519Y-127938124D01*
X117149823Y-128250308D01*
X116829388Y-128846259D01*
X116631374Y-129493273D01*
X116563390Y-130166484D01*
X71551286Y-130166484D01*
X69143321Y-127758519D01*
X117778124Y-127758519D01*
X120015000Y-129995395D01*
X122251876Y-127758519D01*
X121939692Y-127309823D01*
X121343741Y-126989388D01*
X120696727Y-126791374D01*
X120023516Y-126723390D01*
X119349977Y-126788051D01*
X118701994Y-126982870D01*
X118104470Y-127300361D01*
X118090308Y-127309823D01*
X117778124Y-127758519D01*
X69143321Y-127758519D01*
X67238804Y-125854003D01*
X67215001Y-125824999D01*
X67129707Y-125755000D01*
X124435000Y-125755000D01*
X124435001Y-164440000D01*
X26060000Y-164440000D01*
X26060000Y-162436481D01*
X28243124Y-162436481D01*
X28555308Y-162885177D01*
X29151259Y-163205612D01*
X29798273Y-163403626D01*
X30471484Y-163471610D01*
X31145023Y-163406949D01*
X31793006Y-163212130D01*
X32390530Y-162894639D01*
X32404692Y-162885177D01*
X32716876Y-162436481D01*
X30480000Y-160199605D01*
X28243124Y-162436481D01*
X26060000Y-162436481D01*
X26060000Y-160011484D01*
X27028390Y-160011484D01*
X27093051Y-160685023D01*
X27287870Y-161333006D01*
X27605361Y-161930530D01*
X27614823Y-161944692D01*
X28063519Y-162256876D01*
X30300395Y-160020000D01*
X30659605Y-160020000D01*
X32896481Y-162256876D01*
X33345177Y-161944692D01*
X33665612Y-161348741D01*
X33863626Y-160701727D01*
X33931610Y-160028516D01*
X33929199Y-160003400D01*
X34656928Y-160003400D01*
X34656928Y-161306600D01*
X34673961Y-161479542D01*
X34724407Y-161645838D01*
X34806325Y-161799097D01*
X34916570Y-161933430D01*
X35050903Y-162043675D01*
X35204162Y-162125593D01*
X35370458Y-162176039D01*
X35543400Y-162193072D01*
X36846600Y-162193072D01*
X37019542Y-162176039D01*
X37185838Y-162125593D01*
X37339097Y-162043675D01*
X37473430Y-161933430D01*
X37583675Y-161799097D01*
X37626444Y-161719080D01*
X37850525Y-161719080D01*
X37934208Y-161973261D01*
X38206775Y-162104158D01*
X38499642Y-162179365D01*
X38801553Y-162195991D01*
X39100907Y-162153397D01*
X39386199Y-162053222D01*
X39535792Y-161973261D01*
X39619475Y-161719080D01*
X38735000Y-160834605D01*
X37850525Y-161719080D01*
X37626444Y-161719080D01*
X37665593Y-161645838D01*
X37709588Y-161500807D01*
X38555395Y-160655000D01*
X37709588Y-159809193D01*
X37665593Y-159664162D01*
X37626445Y-159590920D01*
X37850525Y-159590920D01*
X38735000Y-160475395D01*
X39619475Y-159590920D01*
X39535792Y-159336739D01*
X39263225Y-159205842D01*
X38970358Y-159130635D01*
X38668447Y-159114009D01*
X38369093Y-159156603D01*
X38083801Y-159256778D01*
X37934208Y-159336739D01*
X37850525Y-159590920D01*
X37626445Y-159590920D01*
X37583675Y-159510903D01*
X37473430Y-159376570D01*
X37339097Y-159266325D01*
X37185838Y-159184407D01*
X37019542Y-159133961D01*
X36955000Y-159127604D01*
X36955000Y-158882110D01*
X37009850Y-158865472D01*
X37163386Y-158783405D01*
X37297962Y-158672962D01*
X37408405Y-158538386D01*
X37490472Y-158384850D01*
X37541008Y-158218254D01*
X37558072Y-158045000D01*
X37558072Y-157545000D01*
X37541008Y-157371746D01*
X37490472Y-157205150D01*
X37408405Y-157051614D01*
X37297962Y-156917038D01*
X37291406Y-156911658D01*
X37371185Y-156846185D01*
X37450537Y-156749494D01*
X37509502Y-156639180D01*
X37545812Y-156519482D01*
X37556618Y-156409761D01*
X37805000Y-156409761D01*
X37805000Y-156770239D01*
X37875325Y-157123791D01*
X38013275Y-157456830D01*
X38213546Y-157756557D01*
X38468443Y-158011454D01*
X38768170Y-158211725D01*
X39101209Y-158349675D01*
X39454761Y-158420000D01*
X39815239Y-158420000D01*
X40168791Y-158349675D01*
X40501830Y-158211725D01*
X40801557Y-158011454D01*
X41056454Y-157756557D01*
X41256725Y-157456830D01*
X41394675Y-157123791D01*
X41465000Y-156770239D01*
X41465000Y-156409761D01*
X41394675Y-156056209D01*
X41256725Y-155723170D01*
X41056454Y-155423443D01*
X40801557Y-155168546D01*
X40501830Y-154968275D01*
X40168791Y-154830325D01*
X39815239Y-154760000D01*
X39454761Y-154760000D01*
X39101209Y-154830325D01*
X38768170Y-154968275D01*
X38468443Y-155168546D01*
X38213546Y-155423443D01*
X38013275Y-155723170D01*
X37875325Y-156056209D01*
X37805000Y-156409761D01*
X37556618Y-156409761D01*
X37558072Y-156395000D01*
X37555000Y-156180750D01*
X37396250Y-156022000D01*
X36322000Y-156022000D01*
X36322000Y-156042000D01*
X36068000Y-156042000D01*
X36068000Y-156022000D01*
X34993750Y-156022000D01*
X34835000Y-156180750D01*
X34831928Y-156395000D01*
X34844188Y-156519482D01*
X34880498Y-156639180D01*
X34939463Y-156749494D01*
X35018815Y-156846185D01*
X35098594Y-156911658D01*
X35092038Y-156917038D01*
X34981595Y-157051614D01*
X34899528Y-157205150D01*
X34848992Y-157371746D01*
X34831928Y-157545000D01*
X34831928Y-158045000D01*
X34848992Y-158218254D01*
X34899528Y-158384850D01*
X34981595Y-158538386D01*
X35092038Y-158672962D01*
X35226614Y-158783405D01*
X35380150Y-158865472D01*
X35435001Y-158882111D01*
X35435001Y-159127604D01*
X35370458Y-159133961D01*
X35204162Y-159184407D01*
X35050903Y-159266325D01*
X34916570Y-159376570D01*
X34806325Y-159510903D01*
X34724407Y-159664162D01*
X34673961Y-159830458D01*
X34656928Y-160003400D01*
X33929199Y-160003400D01*
X33866949Y-159354977D01*
X33672130Y-158706994D01*
X33354639Y-158109470D01*
X33345177Y-158095308D01*
X32896481Y-157783124D01*
X30659605Y-160020000D01*
X30300395Y-160020000D01*
X28063519Y-157783124D01*
X27614823Y-158095308D01*
X27294388Y-158691259D01*
X27096374Y-159338273D01*
X27028390Y-160011484D01*
X26060000Y-160011484D01*
X26060000Y-157603519D01*
X28243124Y-157603519D01*
X30480000Y-159840395D01*
X32716876Y-157603519D01*
X32404692Y-157154823D01*
X31808741Y-156834388D01*
X31161727Y-156636374D01*
X30488516Y-156568390D01*
X29814977Y-156633051D01*
X29166994Y-156827870D01*
X28569470Y-157145361D01*
X28555308Y-157154823D01*
X28243124Y-157603519D01*
X26060000Y-157603519D01*
X26060000Y-155395000D01*
X34831928Y-155395000D01*
X34835000Y-155609250D01*
X34993750Y-155768000D01*
X36068000Y-155768000D01*
X36068000Y-154918750D01*
X36322000Y-154918750D01*
X36322000Y-155768000D01*
X37396250Y-155768000D01*
X37555000Y-155609250D01*
X37558072Y-155395000D01*
X37545812Y-155270518D01*
X37509502Y-155150820D01*
X37450537Y-155040506D01*
X37371185Y-154943815D01*
X37274494Y-154864463D01*
X37164180Y-154805498D01*
X37044482Y-154769188D01*
X36920000Y-154756928D01*
X36480750Y-154760000D01*
X36322000Y-154918750D01*
X36068000Y-154918750D01*
X35909250Y-154760000D01*
X35470000Y-154756928D01*
X35345518Y-154769188D01*
X35225820Y-154805498D01*
X35115506Y-154864463D01*
X35018815Y-154943815D01*
X34939463Y-155040506D01*
X34880498Y-155150820D01*
X34844188Y-155270518D01*
X34831928Y-155395000D01*
X26060000Y-155395000D01*
X26060000Y-135013397D01*
X34711208Y-135013397D01*
X34788843Y-135262472D01*
X35052883Y-135388371D01*
X35336411Y-135460339D01*
X35628531Y-135475611D01*
X35918019Y-135433599D01*
X36193747Y-135335919D01*
X36331157Y-135262472D01*
X36408792Y-135013397D01*
X35560000Y-134164605D01*
X34711208Y-135013397D01*
X26060000Y-135013397D01*
X26060000Y-134053531D01*
X34069389Y-134053531D01*
X34111401Y-134343019D01*
X34209081Y-134618747D01*
X34282528Y-134756157D01*
X34531603Y-134833792D01*
X35380395Y-133985000D01*
X34531603Y-133136208D01*
X34282528Y-133213843D01*
X34156629Y-133477883D01*
X34084661Y-133761411D01*
X34069389Y-134053531D01*
X26060000Y-134053531D01*
X26060000Y-132591481D01*
X28243124Y-132591481D01*
X28555308Y-133040177D01*
X29151259Y-133360612D01*
X29798273Y-133558626D01*
X30471484Y-133626610D01*
X31145023Y-133561949D01*
X31793006Y-133367130D01*
X32390530Y-133049639D01*
X32404692Y-133040177D01*
X32716876Y-132591481D01*
X30480000Y-130354605D01*
X28243124Y-132591481D01*
X26060000Y-132591481D01*
X26060000Y-130166484D01*
X27028390Y-130166484D01*
X27093051Y-130840023D01*
X27287870Y-131488006D01*
X27605361Y-132085530D01*
X27614823Y-132099692D01*
X28063519Y-132411876D01*
X30300395Y-130175000D01*
X30659605Y-130175000D01*
X32896481Y-132411876D01*
X33345177Y-132099692D01*
X33665612Y-131503741D01*
X33863626Y-130856727D01*
X33931610Y-130183516D01*
X33866949Y-129509977D01*
X33672130Y-128861994D01*
X33354639Y-128264470D01*
X33345177Y-128250308D01*
X32896481Y-127938124D01*
X30659605Y-130175000D01*
X30300395Y-130175000D01*
X28063519Y-127938124D01*
X27614823Y-128250308D01*
X27294388Y-128846259D01*
X27096374Y-129493273D01*
X27028390Y-130166484D01*
X26060000Y-130166484D01*
X26060000Y-127758519D01*
X28243124Y-127758519D01*
X30480000Y-129995395D01*
X32716876Y-127758519D01*
X32404692Y-127309823D01*
X31808741Y-126989388D01*
X31161727Y-126791374D01*
X30488516Y-126723390D01*
X29814977Y-126788051D01*
X29166994Y-126982870D01*
X28569470Y-127300361D01*
X28555308Y-127309823D01*
X28243124Y-127758519D01*
X26060000Y-127758519D01*
X26060000Y-125755000D01*
X51615292Y-125755000D01*
X51562083Y-125798668D01*
%TA.AperFunction,Conductor*%
D24*
G36*
X51562083Y-125798668D02*
G01*
X51529999Y-125824999D01*
X51506201Y-125853997D01*
X48580199Y-128780000D01*
X39407322Y-128780000D01*
X39369999Y-128776324D01*
X39332676Y-128780000D01*
X39332667Y-128780000D01*
X39221014Y-128790997D01*
X39077753Y-128834454D01*
X38945724Y-128905026D01*
X38829999Y-128999999D01*
X38806201Y-129028997D01*
X37855697Y-129979502D01*
X37666842Y-130017068D01*
X37396589Y-130129010D01*
X37153368Y-130291525D01*
X36946525Y-130498368D01*
X36830000Y-130672760D01*
X36713475Y-130498368D01*
X36506632Y-130291525D01*
X36263411Y-130129010D01*
X35993158Y-130017068D01*
X35706260Y-129960000D01*
X35413740Y-129960000D01*
X35126842Y-130017068D01*
X34856589Y-130129010D01*
X34613368Y-130291525D01*
X34406525Y-130498368D01*
X34244010Y-130741589D01*
X34132068Y-131011842D01*
X34075000Y-131298740D01*
X34075000Y-131591260D01*
X34132068Y-131878158D01*
X34244010Y-132148411D01*
X34406525Y-132391632D01*
X34613368Y-132598475D01*
X34786729Y-132714311D01*
X34711208Y-132956603D01*
X35560000Y-133805395D01*
X36408792Y-132956603D01*
X36333271Y-132714311D01*
X36506632Y-132598475D01*
X36713475Y-132391632D01*
X36830000Y-132217240D01*
X36946525Y-132391632D01*
X37153368Y-132598475D01*
X37327760Y-132715000D01*
X37153368Y-132831525D01*
X36946525Y-133038368D01*
X36830689Y-133211729D01*
X36588397Y-133136208D01*
X35739605Y-133985000D01*
X36588397Y-134833792D01*
X36830689Y-134758271D01*
X36946525Y-134931632D01*
X37153368Y-135138475D01*
X37396589Y-135300990D01*
X37666842Y-135412932D01*
X37953740Y-135470000D01*
X38246260Y-135470000D01*
X38533158Y-135412932D01*
X38803411Y-135300990D01*
X39046632Y-135138475D01*
X39253475Y-134931632D01*
X39370000Y-134757240D01*
X39486525Y-134931632D01*
X39505000Y-134950107D01*
X39505001Y-147899239D01*
X39505000Y-147899249D01*
X39505000Y-148534249D01*
X39505001Y-152799239D01*
X39499509Y-152855000D01*
X39521423Y-153077498D01*
X39586324Y-153291446D01*
X39586325Y-153291447D01*
X39691717Y-153488623D01*
X39833552Y-153661449D01*
X39876860Y-153696991D01*
X42452500Y-156272632D01*
X42452501Y-157872367D01*
X41204869Y-159120000D01*
X41123816Y-159120000D01*
X40827257Y-159178989D01*
X40547905Y-159294701D01*
X40296495Y-159462688D01*
X40082688Y-159676495D01*
X39980049Y-159830105D01*
X39799080Y-159770525D01*
X38914605Y-160655000D01*
X39799080Y-161539475D01*
X39980049Y-161479895D01*
X40082688Y-161633505D01*
X40296495Y-161847312D01*
X40547905Y-162015299D01*
X40827257Y-162131011D01*
X41123816Y-162190000D01*
X41426184Y-162190000D01*
X41722743Y-162131011D01*
X42002095Y-162015299D01*
X42253505Y-161847312D01*
X42467312Y-161633505D01*
X42635299Y-161382095D01*
X42751011Y-161102743D01*
X42810000Y-160806184D01*
X42810000Y-160725131D01*
X44350641Y-159184491D01*
X44393949Y-159148949D01*
X44535784Y-158976123D01*
X44641176Y-158778947D01*
X44706077Y-158564999D01*
X44722500Y-158398252D01*
X44727991Y-158342500D01*
X44722500Y-158286748D01*
X44722500Y-157255000D01*
X64659869Y-157255000D01*
X64196865Y-157718004D01*
X64153551Y-157753551D01*
X64011716Y-157926377D01*
X63921901Y-158094412D01*
X63906324Y-158123554D01*
X63841423Y-158337502D01*
X63819509Y-158560000D01*
X63825000Y-158615752D01*
X63825001Y-160343193D01*
X63733187Y-160267843D01*
X63492580Y-160139236D01*
X63231506Y-160060040D01*
X62960000Y-160033299D01*
X62688493Y-160060040D01*
X62427419Y-160139236D01*
X62194114Y-160263940D01*
X62161185Y-160223815D01*
X62064494Y-160144463D01*
X61954180Y-160085498D01*
X61834482Y-160049188D01*
X61710000Y-160036928D01*
X60210000Y-160036928D01*
X60097504Y-160048008D01*
X60092766Y-160042234D01*
X59828577Y-159825421D01*
X59527167Y-159664314D01*
X59200118Y-159565105D01*
X58860000Y-159531606D01*
X58519881Y-159565105D01*
X58192832Y-159664314D01*
X57891422Y-159825421D01*
X57627234Y-160042234D01*
X57410421Y-160306423D01*
X57249314Y-160607833D01*
X57150105Y-160934882D01*
X57125000Y-161189776D01*
X57125000Y-162660225D01*
X57150105Y-162915119D01*
X57249315Y-163242168D01*
X57410422Y-163543578D01*
X57627235Y-163807766D01*
X57891423Y-164024579D01*
X58192833Y-164185686D01*
X58519882Y-164284895D01*
X58860000Y-164318394D01*
X59200119Y-164284895D01*
X59527168Y-164185686D01*
X59828578Y-164024579D01*
X60092766Y-163807766D01*
X60097504Y-163801992D01*
X60210000Y-163813072D01*
X61710000Y-163813072D01*
X61834482Y-163800812D01*
X61954180Y-163764502D01*
X62064494Y-163705537D01*
X62161185Y-163626185D01*
X62194115Y-163586060D01*
X62427420Y-163710764D01*
X62688494Y-163789960D01*
X62960000Y-163816701D01*
X63231507Y-163789960D01*
X63492581Y-163710764D01*
X63733188Y-163582157D01*
X63944081Y-163409081D01*
X63960000Y-163389683D01*
X63975920Y-163409081D01*
X64186813Y-163582157D01*
X64427420Y-163710764D01*
X64688494Y-163789960D01*
X64960000Y-163816701D01*
X65231507Y-163789960D01*
X65492581Y-163710764D01*
X65669862Y-163616006D01*
X65827235Y-163807766D01*
X66091423Y-164024579D01*
X66392833Y-164185686D01*
X66719882Y-164284895D01*
X67060000Y-164318394D01*
X67400119Y-164284895D01*
X67727168Y-164185686D01*
X68028578Y-164024579D01*
X68292766Y-163807766D01*
X68509579Y-163543578D01*
X68670686Y-163242168D01*
X68769895Y-162915119D01*
X68795000Y-162660225D01*
X68795000Y-162436481D01*
X117778124Y-162436481D01*
X118090308Y-162885177D01*
X118686259Y-163205612D01*
X119333273Y-163403626D01*
X120006484Y-163471610D01*
X120680023Y-163406949D01*
X121328006Y-163212130D01*
X121925530Y-162894639D01*
X121939692Y-162885177D01*
X122251876Y-162436481D01*
X120015000Y-160199605D01*
X117778124Y-162436481D01*
X68795000Y-162436481D01*
X68795000Y-161189775D01*
X68769895Y-160934881D01*
X68670686Y-160607832D01*
X68509579Y-160306422D01*
X68292766Y-160042234D01*
X68028577Y-159825421D01*
X67727167Y-159664314D01*
X67400118Y-159565105D01*
X67060000Y-159531606D01*
X66719881Y-159565105D01*
X66392832Y-159664314D01*
X66095000Y-159823509D01*
X66095000Y-159030131D01*
X67870132Y-157255000D01*
X88199499Y-157255000D01*
X88253815Y-157321185D01*
X88350506Y-157400537D01*
X88460820Y-157459502D01*
X88580518Y-157495812D01*
X88705000Y-157508072D01*
X89705000Y-157508072D01*
X89829482Y-157495812D01*
X89949180Y-157459502D01*
X90005000Y-157429665D01*
X90060820Y-157459502D01*
X90180518Y-157495812D01*
X90305000Y-157508072D01*
X91270001Y-157508072D01*
X91270000Y-159024248D01*
X91264509Y-159080000D01*
X91270000Y-159135751D01*
X91286423Y-159302498D01*
X91351324Y-159516446D01*
X91456716Y-159713623D01*
X91598551Y-159886449D01*
X91641865Y-159921996D01*
X93773009Y-162053141D01*
X93808551Y-162096449D01*
X93981377Y-162238284D01*
X94178553Y-162343676D01*
X94392501Y-162408577D01*
X94615000Y-162430491D01*
X94670751Y-162425000D01*
X105989249Y-162425000D01*
X106045000Y-162430491D01*
X106100751Y-162425000D01*
X106100752Y-162425000D01*
X106267499Y-162408577D01*
X106481447Y-162343676D01*
X106678623Y-162238284D01*
X106851449Y-162096449D01*
X106886996Y-162053135D01*
X108928647Y-160011484D01*
X116563390Y-160011484D01*
X116628051Y-160685023D01*
X116822870Y-161333006D01*
X117140361Y-161930530D01*
X117149823Y-161944692D01*
X117598519Y-162256876D01*
X119835395Y-160020000D01*
X120194605Y-160020000D01*
X122431481Y-162256876D01*
X122880177Y-161944692D01*
X123200612Y-161348741D01*
X123398626Y-160701727D01*
X123466610Y-160028516D01*
X123401949Y-159354977D01*
X123207130Y-158706994D01*
X122889639Y-158109470D01*
X122880177Y-158095308D01*
X122431481Y-157783124D01*
X120194605Y-160020000D01*
X119835395Y-160020000D01*
X117598519Y-157783124D01*
X117149823Y-158095308D01*
X116829388Y-158691259D01*
X116631374Y-159338273D01*
X116563390Y-160011484D01*
X108928647Y-160011484D01*
X109018141Y-159921991D01*
X109061449Y-159886449D01*
X109203284Y-159713623D01*
X109308676Y-159516447D01*
X109373577Y-159302499D01*
X109390000Y-159135752D01*
X109390000Y-159135751D01*
X109395491Y-159080000D01*
X109390000Y-159024249D01*
X109390000Y-157603519D01*
X117778124Y-157603519D01*
X120015000Y-159840395D01*
X122251876Y-157603519D01*
X121939692Y-157154823D01*
X121343741Y-156834388D01*
X120696727Y-156636374D01*
X120023516Y-156568390D01*
X119349977Y-156633051D01*
X118701994Y-156827870D01*
X118104470Y-157145361D01*
X118090308Y-157154823D01*
X117778124Y-157603519D01*
X109390000Y-157603519D01*
X109390000Y-157508072D01*
X110355000Y-157508072D01*
X110479482Y-157495812D01*
X110599180Y-157459502D01*
X110655000Y-157429665D01*
X110710820Y-157459502D01*
X110830518Y-157495812D01*
X110955000Y-157508072D01*
X111955000Y-157508072D01*
X112079482Y-157495812D01*
X112199180Y-157459502D01*
X112309494Y-157400537D01*
X112406185Y-157321185D01*
X112458164Y-157257848D01*
X112485000Y-157260491D01*
X112540751Y-157255000D01*
X112540752Y-157255000D01*
X112707499Y-157238577D01*
X112921447Y-157173676D01*
X113118623Y-157068284D01*
X113291449Y-156926449D01*
X113326996Y-156883135D01*
X114428140Y-155781992D01*
X114471449Y-155746449D01*
X114613284Y-155573623D01*
X114718676Y-155376447D01*
X114783577Y-155162499D01*
X114800000Y-154995752D01*
X114805491Y-154940001D01*
X114800000Y-154884249D01*
X114800000Y-135310751D01*
X114805491Y-135254999D01*
X114783577Y-135032501D01*
X114718676Y-134818553D01*
X114697744Y-134779392D01*
X114613284Y-134621377D01*
X114471449Y-134448551D01*
X114428140Y-134413008D01*
X113326996Y-133311865D01*
X113291449Y-133268551D01*
X113118623Y-133126716D01*
X112921447Y-133021324D01*
X112707499Y-132956423D01*
X112540752Y-132940000D01*
X112540751Y-132940000D01*
X112485000Y-132934509D01*
X112458164Y-132937152D01*
X112406185Y-132873815D01*
X112309494Y-132794463D01*
X112199180Y-132735498D01*
X112079482Y-132699188D01*
X111955000Y-132686928D01*
X110955000Y-132686928D01*
X110830518Y-132699188D01*
X110710820Y-132735498D01*
X110655000Y-132765335D01*
X110599180Y-132735498D01*
X110479482Y-132699188D01*
X110355000Y-132686928D01*
X109355000Y-132686928D01*
X109230518Y-132699188D01*
X109110820Y-132735498D01*
X109055000Y-132765335D01*
X108999180Y-132735498D01*
X108879482Y-132699188D01*
X108755000Y-132686928D01*
X107755000Y-132686928D01*
X107630518Y-132699188D01*
X107510820Y-132735498D01*
X107400506Y-132794463D01*
X107303815Y-132873815D01*
X107249499Y-132940000D01*
X93410501Y-132940000D01*
X93356185Y-132873815D01*
X93259494Y-132794463D01*
X93149180Y-132735498D01*
X93029482Y-132699188D01*
X92905000Y-132686928D01*
X91905000Y-132686928D01*
X91780518Y-132699188D01*
X91660820Y-132735498D01*
X91605000Y-132765335D01*
X91549180Y-132735498D01*
X91429482Y-132699188D01*
X91305000Y-132686928D01*
X90305000Y-132686928D01*
X90180518Y-132699188D01*
X90060820Y-132735498D01*
X90005000Y-132765335D01*
X89949180Y-132735498D01*
X89829482Y-132699188D01*
X89705000Y-132686928D01*
X88705000Y-132686928D01*
X88580518Y-132699188D01*
X88460820Y-132735498D01*
X88350506Y-132794463D01*
X88253815Y-132873815D01*
X88174463Y-132970506D01*
X88115498Y-133080820D01*
X88079188Y-133200518D01*
X88066928Y-133325000D01*
X88066928Y-134050439D01*
X88064509Y-134075000D01*
X88066928Y-134099561D01*
X88066928Y-134825000D01*
X88079188Y-134949482D01*
X88115498Y-135069180D01*
X88174463Y-135179494D01*
X88253815Y-135276185D01*
X88350506Y-135355537D01*
X88460820Y-135414502D01*
X88580518Y-135450812D01*
X88705000Y-135463072D01*
X89705000Y-135463072D01*
X89829482Y-135450812D01*
X89949180Y-135414502D01*
X90005000Y-135384665D01*
X90060820Y-135414502D01*
X90180518Y-135450812D01*
X90305000Y-135463072D01*
X91030756Y-135463072D01*
X91003553Y-135471324D01*
X90806377Y-135576716D01*
X90633551Y-135718551D01*
X90598008Y-135761860D01*
X90041860Y-136318009D01*
X89998552Y-136353551D01*
X89856717Y-136526377D01*
X89827654Y-136580751D01*
X89751324Y-136723554D01*
X89686423Y-136937502D01*
X89664509Y-137160000D01*
X89670000Y-137215751D01*
X89670000Y-137586928D01*
X88705000Y-137586928D01*
X88580518Y-137599188D01*
X88460820Y-137635498D01*
X88350506Y-137694463D01*
X88253815Y-137773815D01*
X88174463Y-137870506D01*
X88115498Y-137980820D01*
X88079188Y-138100518D01*
X88066928Y-138225000D01*
X88066928Y-138507939D01*
X86104869Y-140470000D01*
X83648461Y-140470000D01*
X83583387Y-140416595D01*
X83429851Y-140334528D01*
X83263255Y-140283992D01*
X83090001Y-140266928D01*
X82564999Y-140266928D01*
X82391745Y-140283992D01*
X82225149Y-140334528D01*
X82071613Y-140416595D01*
X81937038Y-140527038D01*
X81915000Y-140553891D01*
X81892962Y-140527038D01*
X81758387Y-140416595D01*
X81604851Y-140334528D01*
X81438255Y-140283992D01*
X81265001Y-140266928D01*
X80739999Y-140266928D01*
X80566745Y-140283992D01*
X80400149Y-140334528D01*
X80363988Y-140353856D01*
X78605000Y-138594869D01*
X78605000Y-135945741D01*
X78610490Y-135889999D01*
X78605000Y-135834257D01*
X78605000Y-135834248D01*
X78588577Y-135667501D01*
X78523676Y-135453553D01*
X78418284Y-135256377D01*
X78276449Y-135083551D01*
X78233141Y-135048009D01*
X75776613Y-132591481D01*
X117778124Y-132591481D01*
X118090308Y-133040177D01*
X118686259Y-133360612D01*
X119333273Y-133558626D01*
X120006484Y-133626610D01*
X120680023Y-133561949D01*
X121328006Y-133367130D01*
X121925530Y-133049639D01*
X121939692Y-133040177D01*
X122251876Y-132591481D01*
X120015000Y-130354605D01*
X117778124Y-132591481D01*
X75776613Y-132591481D01*
X73866996Y-130681865D01*
X73831449Y-130638551D01*
X73658623Y-130496716D01*
X73461447Y-130391324D01*
X73247499Y-130326423D01*
X73080752Y-130310000D01*
X73080751Y-130310000D01*
X73025000Y-130304509D01*
X72969249Y-130310000D01*
X71694801Y-130310000D01*
X71683803Y-130299002D01*
X71683799Y-130298997D01*
X71551286Y-130166484D01*
X116563390Y-130166484D01*
X116628051Y-130840023D01*
X116822870Y-131488006D01*
X117140361Y-132085530D01*
X117149823Y-132099692D01*
X117598519Y-132411876D01*
X119835395Y-130175000D01*
X120194605Y-130175000D01*
X122431481Y-132411876D01*
X122880177Y-132099692D01*
X123200612Y-131503741D01*
X123398626Y-130856727D01*
X123466610Y-130183516D01*
X123401949Y-129509977D01*
X123207130Y-128861994D01*
X122889639Y-128264470D01*
X122880177Y-128250308D01*
X122431481Y-127938124D01*
X120194605Y-130175000D01*
X119835395Y-130175000D01*
X117598519Y-127938124D01*
X117149823Y-128250308D01*
X116829388Y-128846259D01*
X116631374Y-129493273D01*
X116563390Y-130166484D01*
X71551286Y-130166484D01*
X69143321Y-127758519D01*
X117778124Y-127758519D01*
X120015000Y-129995395D01*
X122251876Y-127758519D01*
X121939692Y-127309823D01*
X121343741Y-126989388D01*
X120696727Y-126791374D01*
X120023516Y-126723390D01*
X119349977Y-126788051D01*
X118701994Y-126982870D01*
X118104470Y-127300361D01*
X118090308Y-127309823D01*
X117778124Y-127758519D01*
X69143321Y-127758519D01*
X67238804Y-125854003D01*
X67215001Y-125824999D01*
X67129707Y-125755000D01*
X124435000Y-125755000D01*
X124435001Y-164440000D01*
X26060000Y-164440000D01*
X26060000Y-162436481D01*
X28243124Y-162436481D01*
X28555308Y-162885177D01*
X29151259Y-163205612D01*
X29798273Y-163403626D01*
X30471484Y-163471610D01*
X31145023Y-163406949D01*
X31793006Y-163212130D01*
X32390530Y-162894639D01*
X32404692Y-162885177D01*
X32716876Y-162436481D01*
X30480000Y-160199605D01*
X28243124Y-162436481D01*
X26060000Y-162436481D01*
X26060000Y-160011484D01*
X27028390Y-160011484D01*
X27093051Y-160685023D01*
X27287870Y-161333006D01*
X27605361Y-161930530D01*
X27614823Y-161944692D01*
X28063519Y-162256876D01*
X30300395Y-160020000D01*
X30659605Y-160020000D01*
X32896481Y-162256876D01*
X33345177Y-161944692D01*
X33665612Y-161348741D01*
X33863626Y-160701727D01*
X33931610Y-160028516D01*
X33929199Y-160003400D01*
X34656928Y-160003400D01*
X34656928Y-161306600D01*
X34673961Y-161479542D01*
X34724407Y-161645838D01*
X34806325Y-161799097D01*
X34916570Y-161933430D01*
X35050903Y-162043675D01*
X35204162Y-162125593D01*
X35370458Y-162176039D01*
X35543400Y-162193072D01*
X36846600Y-162193072D01*
X37019542Y-162176039D01*
X37185838Y-162125593D01*
X37339097Y-162043675D01*
X37473430Y-161933430D01*
X37583675Y-161799097D01*
X37626444Y-161719080D01*
X37850525Y-161719080D01*
X37934208Y-161973261D01*
X38206775Y-162104158D01*
X38499642Y-162179365D01*
X38801553Y-162195991D01*
X39100907Y-162153397D01*
X39386199Y-162053222D01*
X39535792Y-161973261D01*
X39619475Y-161719080D01*
X38735000Y-160834605D01*
X37850525Y-161719080D01*
X37626444Y-161719080D01*
X37665593Y-161645838D01*
X37709588Y-161500807D01*
X38555395Y-160655000D01*
X37709588Y-159809193D01*
X37665593Y-159664162D01*
X37626445Y-159590920D01*
X37850525Y-159590920D01*
X38735000Y-160475395D01*
X39619475Y-159590920D01*
X39535792Y-159336739D01*
X39263225Y-159205842D01*
X38970358Y-159130635D01*
X38668447Y-159114009D01*
X38369093Y-159156603D01*
X38083801Y-159256778D01*
X37934208Y-159336739D01*
X37850525Y-159590920D01*
X37626445Y-159590920D01*
X37583675Y-159510903D01*
X37473430Y-159376570D01*
X37339097Y-159266325D01*
X37185838Y-159184407D01*
X37019542Y-159133961D01*
X36955000Y-159127604D01*
X36955000Y-158882110D01*
X37009850Y-158865472D01*
X37163386Y-158783405D01*
X37297962Y-158672962D01*
X37408405Y-158538386D01*
X37490472Y-158384850D01*
X37541008Y-158218254D01*
X37558072Y-158045000D01*
X37558072Y-157545000D01*
X37541008Y-157371746D01*
X37490472Y-157205150D01*
X37408405Y-157051614D01*
X37297962Y-156917038D01*
X37291406Y-156911658D01*
X37371185Y-156846185D01*
X37450537Y-156749494D01*
X37509502Y-156639180D01*
X37545812Y-156519482D01*
X37556618Y-156409761D01*
X37805000Y-156409761D01*
X37805000Y-156770239D01*
X37875325Y-157123791D01*
X38013275Y-157456830D01*
X38213546Y-157756557D01*
X38468443Y-158011454D01*
X38768170Y-158211725D01*
X39101209Y-158349675D01*
X39454761Y-158420000D01*
X39815239Y-158420000D01*
X40168791Y-158349675D01*
X40501830Y-158211725D01*
X40801557Y-158011454D01*
X41056454Y-157756557D01*
X41256725Y-157456830D01*
X41394675Y-157123791D01*
X41465000Y-156770239D01*
X41465000Y-156409761D01*
X41394675Y-156056209D01*
X41256725Y-155723170D01*
X41056454Y-155423443D01*
X40801557Y-155168546D01*
X40501830Y-154968275D01*
X40168791Y-154830325D01*
X39815239Y-154760000D01*
X39454761Y-154760000D01*
X39101209Y-154830325D01*
X38768170Y-154968275D01*
X38468443Y-155168546D01*
X38213546Y-155423443D01*
X38013275Y-155723170D01*
X37875325Y-156056209D01*
X37805000Y-156409761D01*
X37556618Y-156409761D01*
X37558072Y-156395000D01*
X37555000Y-156180750D01*
X37396250Y-156022000D01*
X36322000Y-156022000D01*
X36322000Y-156042000D01*
X36068000Y-156042000D01*
X36068000Y-156022000D01*
X34993750Y-156022000D01*
X34835000Y-156180750D01*
X34831928Y-156395000D01*
X34844188Y-156519482D01*
X34880498Y-156639180D01*
X34939463Y-156749494D01*
X35018815Y-156846185D01*
X35098594Y-156911658D01*
X35092038Y-156917038D01*
X34981595Y-157051614D01*
X34899528Y-157205150D01*
X34848992Y-157371746D01*
X34831928Y-157545000D01*
X34831928Y-158045000D01*
X34848992Y-158218254D01*
X34899528Y-158384850D01*
X34981595Y-158538386D01*
X35092038Y-158672962D01*
X35226614Y-158783405D01*
X35380150Y-158865472D01*
X35435001Y-158882111D01*
X35435001Y-159127604D01*
X35370458Y-159133961D01*
X35204162Y-159184407D01*
X35050903Y-159266325D01*
X34916570Y-159376570D01*
X34806325Y-159510903D01*
X34724407Y-159664162D01*
X34673961Y-159830458D01*
X34656928Y-160003400D01*
X33929199Y-160003400D01*
X33866949Y-159354977D01*
X33672130Y-158706994D01*
X33354639Y-158109470D01*
X33345177Y-158095308D01*
X32896481Y-157783124D01*
X30659605Y-160020000D01*
X30300395Y-160020000D01*
X28063519Y-157783124D01*
X27614823Y-158095308D01*
X27294388Y-158691259D01*
X27096374Y-159338273D01*
X27028390Y-160011484D01*
X26060000Y-160011484D01*
X26060000Y-157603519D01*
X28243124Y-157603519D01*
X30480000Y-159840395D01*
X32716876Y-157603519D01*
X32404692Y-157154823D01*
X31808741Y-156834388D01*
X31161727Y-156636374D01*
X30488516Y-156568390D01*
X29814977Y-156633051D01*
X29166994Y-156827870D01*
X28569470Y-157145361D01*
X28555308Y-157154823D01*
X28243124Y-157603519D01*
X26060000Y-157603519D01*
X26060000Y-155395000D01*
X34831928Y-155395000D01*
X34835000Y-155609250D01*
X34993750Y-155768000D01*
X36068000Y-155768000D01*
X36068000Y-154918750D01*
X36322000Y-154918750D01*
X36322000Y-155768000D01*
X37396250Y-155768000D01*
X37555000Y-155609250D01*
X37558072Y-155395000D01*
X37545812Y-155270518D01*
X37509502Y-155150820D01*
X37450537Y-155040506D01*
X37371185Y-154943815D01*
X37274494Y-154864463D01*
X37164180Y-154805498D01*
X37044482Y-154769188D01*
X36920000Y-154756928D01*
X36480750Y-154760000D01*
X36322000Y-154918750D01*
X36068000Y-154918750D01*
X35909250Y-154760000D01*
X35470000Y-154756928D01*
X35345518Y-154769188D01*
X35225820Y-154805498D01*
X35115506Y-154864463D01*
X35018815Y-154943815D01*
X34939463Y-155040506D01*
X34880498Y-155150820D01*
X34844188Y-155270518D01*
X34831928Y-155395000D01*
X26060000Y-155395000D01*
X26060000Y-135013397D01*
X34711208Y-135013397D01*
X34788843Y-135262472D01*
X35052883Y-135388371D01*
X35336411Y-135460339D01*
X35628531Y-135475611D01*
X35918019Y-135433599D01*
X36193747Y-135335919D01*
X36331157Y-135262472D01*
X36408792Y-135013397D01*
X35560000Y-134164605D01*
X34711208Y-135013397D01*
X26060000Y-135013397D01*
X26060000Y-134053531D01*
X34069389Y-134053531D01*
X34111401Y-134343019D01*
X34209081Y-134618747D01*
X34282528Y-134756157D01*
X34531603Y-134833792D01*
X35380395Y-133985000D01*
X34531603Y-133136208D01*
X34282528Y-133213843D01*
X34156629Y-133477883D01*
X34084661Y-133761411D01*
X34069389Y-134053531D01*
X26060000Y-134053531D01*
X26060000Y-132591481D01*
X28243124Y-132591481D01*
X28555308Y-133040177D01*
X29151259Y-133360612D01*
X29798273Y-133558626D01*
X30471484Y-133626610D01*
X31145023Y-133561949D01*
X31793006Y-133367130D01*
X32390530Y-133049639D01*
X32404692Y-133040177D01*
X32716876Y-132591481D01*
X30480000Y-130354605D01*
X28243124Y-132591481D01*
X26060000Y-132591481D01*
X26060000Y-130166484D01*
X27028390Y-130166484D01*
X27093051Y-130840023D01*
X27287870Y-131488006D01*
X27605361Y-132085530D01*
X27614823Y-132099692D01*
X28063519Y-132411876D01*
X30300395Y-130175000D01*
X30659605Y-130175000D01*
X32896481Y-132411876D01*
X33345177Y-132099692D01*
X33665612Y-131503741D01*
X33863626Y-130856727D01*
X33931610Y-130183516D01*
X33866949Y-129509977D01*
X33672130Y-128861994D01*
X33354639Y-128264470D01*
X33345177Y-128250308D01*
X32896481Y-127938124D01*
X30659605Y-130175000D01*
X30300395Y-130175000D01*
X28063519Y-127938124D01*
X27614823Y-128250308D01*
X27294388Y-128846259D01*
X27096374Y-129493273D01*
X27028390Y-130166484D01*
X26060000Y-130166484D01*
X26060000Y-127758519D01*
X28243124Y-127758519D01*
X30480000Y-129995395D01*
X32716876Y-127758519D01*
X32404692Y-127309823D01*
X31808741Y-126989388D01*
X31161727Y-126791374D01*
X30488516Y-126723390D01*
X29814977Y-126788051D01*
X29166994Y-126982870D01*
X28569470Y-127300361D01*
X28555308Y-127309823D01*
X28243124Y-127758519D01*
X26060000Y-127758519D01*
X26060000Y-125755000D01*
X51615292Y-125755000D01*
X51562083Y-125798668D01*
G37*
%TD.AperFunction*%
D23*
X55418031Y-134158500D02*
X55465722Y-134315716D01*
X55543169Y-134460608D01*
X55647394Y-134587606D01*
X55686866Y-134620000D01*
X55647394Y-134652394D01*
X55543169Y-134779392D01*
X55465722Y-134924284D01*
X55418031Y-135081500D01*
X55401928Y-135245000D01*
X55401928Y-135645000D01*
X55418031Y-135808500D01*
X55465722Y-135965716D01*
X55543169Y-136110608D01*
X55647394Y-136237606D01*
X55774392Y-136341831D01*
X55919284Y-136419278D01*
X56076500Y-136466969D01*
X56240000Y-136483072D01*
X56478271Y-136483072D01*
X57031201Y-137036003D01*
X57054999Y-137065001D01*
X57170724Y-137159974D01*
X57302753Y-137230546D01*
X57446014Y-137274003D01*
X57557667Y-137285000D01*
X57557675Y-137285000D01*
X57595000Y-137288676D01*
X57616928Y-137286516D01*
X57616928Y-137325000D01*
X57629188Y-137449482D01*
X57665498Y-137569180D01*
X57724463Y-137679494D01*
X57803815Y-137776185D01*
X57900506Y-137855537D01*
X58010820Y-137914502D01*
X58130518Y-137950812D01*
X58255000Y-137963072D01*
X59855000Y-137963072D01*
X59979482Y-137950812D01*
X60099180Y-137914502D01*
X60209494Y-137855537D01*
X60306185Y-137776185D01*
X60385537Y-137679494D01*
X60444502Y-137569180D01*
X60480812Y-137449482D01*
X60481643Y-137441039D01*
X60680241Y-137639637D01*
X60915273Y-137796680D01*
X61176426Y-137904853D01*
X61453665Y-137960000D01*
X61736335Y-137960000D01*
X62013574Y-137904853D01*
X62274727Y-137796680D01*
X62509759Y-137639637D01*
X62709637Y-137439759D01*
X62865000Y-137207241D01*
X63020363Y-137439759D01*
X63220241Y-137639637D01*
X63455273Y-137796680D01*
X63716426Y-137904853D01*
X63993665Y-137960000D01*
X64276335Y-137960000D01*
X64553574Y-137904853D01*
X64814727Y-137796680D01*
X65049759Y-137639637D01*
X65249637Y-137439759D01*
X65406680Y-137204727D01*
X65411067Y-137194135D01*
X65522615Y-137380131D01*
X65711586Y-137588519D01*
X65937580Y-137756037D01*
X66191913Y-137876246D01*
X66325961Y-137916904D01*
X66548000Y-137794915D01*
X66548000Y-136652000D01*
X66802000Y-136652000D01*
X66802000Y-137794915D01*
X67024039Y-137916904D01*
X67158087Y-137876246D01*
X67412420Y-137756037D01*
X67638414Y-137588519D01*
X67827385Y-137380131D01*
X67972070Y-137138881D01*
X68066909Y-136874040D01*
X67945624Y-136652000D01*
X66802000Y-136652000D01*
X66548000Y-136652000D01*
X66528000Y-136652000D01*
X66528000Y-136398000D01*
X66548000Y-136398000D01*
X66548000Y-136378000D01*
X66802000Y-136378000D01*
X66802000Y-136398000D01*
X67945624Y-136398000D01*
X68066909Y-136175960D01*
X67972070Y-135911119D01*
X67827385Y-135669869D01*
X67638414Y-135461481D01*
X67412420Y-135293963D01*
X67158087Y-135173754D01*
X67024039Y-135133096D01*
X66802002Y-135255084D01*
X66802002Y-135120000D01*
X71284869Y-135120000D01*
X73795000Y-137630132D01*
X73795001Y-146629239D01*
X73789509Y-146685000D01*
X73811423Y-146907498D01*
X73876324Y-147121446D01*
X73876325Y-147121447D01*
X73981717Y-147318623D01*
X74123552Y-147491449D01*
X74166860Y-147526991D01*
X75993009Y-149353141D01*
X76028551Y-149396449D01*
X76105988Y-149460000D01*
X76201377Y-149538284D01*
X76398553Y-149643676D01*
X76612501Y-149708577D01*
X76835000Y-149730491D01*
X76890752Y-149725000D01*
X80181539Y-149725000D01*
X80246613Y-149778405D01*
X80400149Y-149860472D01*
X80566745Y-149911008D01*
X80739999Y-149928072D01*
X81265001Y-149928072D01*
X81438255Y-149911008D01*
X81604851Y-149860472D01*
X81758387Y-149778405D01*
X81892962Y-149667962D01*
X81915000Y-149641109D01*
X81937038Y-149667962D01*
X82071613Y-149778405D01*
X82225149Y-149860472D01*
X82391745Y-149911008D01*
X82564999Y-149928072D01*
X83090001Y-149928072D01*
X83263255Y-149911008D01*
X83429851Y-149860472D01*
X83583387Y-149778405D01*
X83648461Y-149725000D01*
X84253638Y-149725000D01*
X84141716Y-149861377D01*
X84036324Y-150058553D01*
X83971423Y-150272501D01*
X83949509Y-150495000D01*
X83971423Y-150717499D01*
X84036324Y-150931447D01*
X84141716Y-151128623D01*
X84283551Y-151301449D01*
X84326865Y-151336996D01*
X87423009Y-154433141D01*
X87458551Y-154476449D01*
X87631377Y-154618284D01*
X87817002Y-154717502D01*
X87828553Y-154723676D01*
X88042501Y-154788577D01*
X88264999Y-154810491D01*
X88320751Y-154805000D01*
X88414981Y-154805000D01*
X88350506Y-154839463D01*
X88253815Y-154918815D01*
X88199499Y-154985000D01*
X67455751Y-154985000D01*
X67399999Y-154979509D01*
X67344248Y-154985000D01*
X44380483Y-154985000D01*
X44350641Y-154960509D01*
X41775000Y-152384869D01*
X41775000Y-149050000D01*
X46200130Y-149050000D01*
X46210498Y-149084180D01*
X46269463Y-149194494D01*
X46348815Y-149291185D01*
X46445506Y-149370537D01*
X46555820Y-149429502D01*
X46675518Y-149465812D01*
X46800000Y-149478072D01*
X48600000Y-149478072D01*
X48724482Y-149465812D01*
X48844180Y-149429502D01*
X48954494Y-149370537D01*
X49051185Y-149291185D01*
X49130537Y-149194494D01*
X49189502Y-149084180D01*
X49199870Y-149050000D01*
X52400130Y-149050000D01*
X52410498Y-149084180D01*
X52469463Y-149194494D01*
X52548815Y-149291185D01*
X52645506Y-149370537D01*
X52755820Y-149429502D01*
X52875518Y-149465812D01*
X53000000Y-149478072D01*
X54800000Y-149478072D01*
X54924482Y-149465812D01*
X55044180Y-149429502D01*
X55154494Y-149370537D01*
X55251185Y-149291185D01*
X55330537Y-149194494D01*
X55389502Y-149084180D01*
X55425812Y-148964482D01*
X55438072Y-148840000D01*
X55438072Y-147740000D01*
X55425812Y-147615518D01*
X55389502Y-147495820D01*
X55330537Y-147385506D01*
X55251185Y-147288815D01*
X55154494Y-147209463D01*
X55044180Y-147150498D01*
X54924482Y-147114188D01*
X54800000Y-147101928D01*
X53000000Y-147101928D01*
X52875518Y-147114188D01*
X52755820Y-147150498D01*
X52645506Y-147209463D01*
X52548815Y-147288815D01*
X52469463Y-147385506D01*
X52410498Y-147495820D01*
X52400130Y-147530000D01*
X49199870Y-147530000D01*
X49189502Y-147495820D01*
X49130537Y-147385506D01*
X49051185Y-147288815D01*
X48954494Y-147209463D01*
X48844180Y-147150498D01*
X48724482Y-147114188D01*
X48600000Y-147101928D01*
X46800000Y-147101928D01*
X46675518Y-147114188D01*
X46555820Y-147150498D01*
X46445506Y-147209463D01*
X46348815Y-147288815D01*
X46269463Y-147385506D01*
X46210498Y-147495820D01*
X46200130Y-147530000D01*
X41775000Y-147530000D01*
X41775000Y-146640000D01*
X42701928Y-146640000D01*
X42714188Y-146764482D01*
X42750498Y-146884180D01*
X42809463Y-146994494D01*
X42888815Y-147091185D01*
X42985506Y-147170537D01*
X43095820Y-147229502D01*
X43215518Y-147265812D01*
X43340000Y-147278072D01*
X43529250Y-147275000D01*
X43688000Y-147116250D01*
X43688000Y-146367000D01*
X43942000Y-146367000D01*
X43942000Y-147116250D01*
X44100750Y-147275000D01*
X44290000Y-147278072D01*
X44414482Y-147265812D01*
X44534180Y-147229502D01*
X44644494Y-147170537D01*
X44741185Y-147091185D01*
X44820537Y-146994494D01*
X44879502Y-146884180D01*
X44915812Y-146764482D01*
X44928072Y-146640000D01*
X44925000Y-146525750D01*
X44766250Y-146367000D01*
X43942000Y-146367000D01*
X43688000Y-146367000D01*
X42863750Y-146367000D01*
X42705000Y-146525750D01*
X42701928Y-146640000D01*
X41775000Y-146640000D01*
X41775000Y-135120000D01*
X46685198Y-135120000D01*
X43304003Y-138501196D01*
X43274999Y-138524999D01*
X43219871Y-138592174D01*
X43180026Y-138640724D01*
X43125207Y-138743283D01*
X43109454Y-138772754D01*
X43065997Y-138916015D01*
X43055000Y-139027668D01*
X43055000Y-139027678D01*
X43051324Y-139065000D01*
X43055000Y-139102323D01*
X43055001Y-140912658D01*
X43055000Y-140912668D01*
X43055001Y-143709083D01*
X42947394Y-143797394D01*
X42843169Y-143924392D01*
X42765722Y-144069284D01*
X42718031Y-144226500D01*
X42701928Y-144390000D01*
X42701928Y-144790000D01*
X42718031Y-144953500D01*
X42765722Y-145110716D01*
X42843169Y-145255608D01*
X42926863Y-145357590D01*
X42888815Y-145388815D01*
X42809463Y-145485506D01*
X42750498Y-145595820D01*
X42714188Y-145715518D01*
X42701928Y-145840000D01*
X42705000Y-145954250D01*
X42863750Y-146113000D01*
X43688000Y-146113000D01*
X43688000Y-146093000D01*
X43942000Y-146093000D01*
X43942000Y-146113000D01*
X44766250Y-146113000D01*
X44925000Y-145954250D01*
X44928072Y-145840000D01*
X44915812Y-145715518D01*
X44879502Y-145595820D01*
X44820537Y-145485506D01*
X44741185Y-145388815D01*
X44703137Y-145357590D01*
X44709365Y-145350000D01*
X46200130Y-145350000D01*
X46210498Y-145384180D01*
X46269463Y-145494494D01*
X46348815Y-145591185D01*
X46445506Y-145670537D01*
X46555820Y-145729502D01*
X46675518Y-145765812D01*
X46800000Y-145778072D01*
X48600000Y-145778072D01*
X48724482Y-145765812D01*
X48844180Y-145729502D01*
X48954494Y-145670537D01*
X49051185Y-145591185D01*
X49130537Y-145494494D01*
X49189502Y-145384180D01*
X49199870Y-145350000D01*
X52400130Y-145350000D01*
X52410498Y-145384180D01*
X52469463Y-145494494D01*
X52548815Y-145591185D01*
X52645506Y-145670537D01*
X52755820Y-145729502D01*
X52875518Y-145765812D01*
X53000000Y-145778072D01*
X54800000Y-145778072D01*
X54924482Y-145765812D01*
X55044180Y-145729502D01*
X55154494Y-145670537D01*
X55251185Y-145591185D01*
X55330537Y-145494494D01*
X55389502Y-145384180D01*
X55425812Y-145264482D01*
X55438072Y-145140000D01*
X55438072Y-144040000D01*
X55425812Y-143915518D01*
X55389502Y-143795820D01*
X55330537Y-143685506D01*
X55251185Y-143588815D01*
X55154494Y-143509463D01*
X55044180Y-143450498D01*
X54924482Y-143414188D01*
X54800000Y-143401928D01*
X53000000Y-143401928D01*
X52875518Y-143414188D01*
X52755820Y-143450498D01*
X52645506Y-143509463D01*
X52548815Y-143588815D01*
X52469463Y-143685506D01*
X52410498Y-143795820D01*
X52400130Y-143830000D01*
X49199870Y-143830000D01*
X49189502Y-143795820D01*
X49130537Y-143685506D01*
X49051185Y-143588815D01*
X48954494Y-143509463D01*
X48844180Y-143450498D01*
X48724482Y-143414188D01*
X48600000Y-143401928D01*
X46800000Y-143401928D01*
X46675518Y-143414188D01*
X46555820Y-143450498D01*
X46445506Y-143509463D01*
X46348815Y-143588815D01*
X46269463Y-143685506D01*
X46210498Y-143795820D01*
X46200130Y-143830000D01*
X44709365Y-143830000D01*
X44682606Y-143797394D01*
X44575000Y-143709084D01*
X44575000Y-140357560D01*
X45605000Y-140357560D01*
X45605000Y-140822440D01*
X45695694Y-141278387D01*
X45873595Y-141707879D01*
X46131868Y-142094412D01*
X46460588Y-142423132D01*
X46847121Y-142681405D01*
X47276613Y-142859306D01*
X47732560Y-142950000D01*
X48197440Y-142950000D01*
X48653387Y-142859306D01*
X49082879Y-142681405D01*
X49469412Y-142423132D01*
X49798132Y-142094412D01*
X50056405Y-141707879D01*
X50234306Y-141278387D01*
X50325000Y-140822440D01*
X50325000Y-140357560D01*
X50234306Y-139901613D01*
X50056405Y-139472121D01*
X49798132Y-139085588D01*
X49469412Y-138756868D01*
X49082879Y-138498595D01*
X48653387Y-138320694D01*
X48197440Y-138230000D01*
X47732560Y-138230000D01*
X47276613Y-138320694D01*
X46847121Y-138498595D01*
X46460588Y-138756868D01*
X46131868Y-139085588D01*
X45873595Y-139472121D01*
X45695694Y-139901613D01*
X45605000Y-140357560D01*
X44575000Y-140357560D01*
X44575000Y-139379801D01*
X47564801Y-136390000D01*
X51341928Y-136390000D01*
X51354188Y-136514482D01*
X51390498Y-136634180D01*
X51449463Y-136744494D01*
X51528815Y-136841185D01*
X51625506Y-136920537D01*
X51735820Y-136979502D01*
X51855518Y-137015812D01*
X51980000Y-137028072D01*
X52419250Y-137025000D01*
X52578000Y-136866250D01*
X52578000Y-136017000D01*
X52832000Y-136017000D01*
X52832000Y-136866250D01*
X52990750Y-137025000D01*
X53430000Y-137028072D01*
X53554482Y-137015812D01*
X53674180Y-136979502D01*
X53784494Y-136920537D01*
X53881185Y-136841185D01*
X53960537Y-136744494D01*
X54019502Y-136634180D01*
X54055812Y-136514482D01*
X54068072Y-136390000D01*
X54065000Y-136175750D01*
X53906250Y-136017000D01*
X52832000Y-136017000D01*
X52578000Y-136017000D01*
X51503750Y-136017000D01*
X51345000Y-136175750D01*
X51341928Y-136390000D01*
X47564801Y-136390000D01*
X47591172Y-136363630D01*
X47598061Y-136365000D01*
X47801939Y-136365000D01*
X48001898Y-136325226D01*
X48190256Y-136247205D01*
X48359774Y-136133937D01*
X48503937Y-135989774D01*
X48617205Y-135820256D01*
X48695226Y-135631898D01*
X48735000Y-135431939D01*
X48735000Y-135228061D01*
X48713506Y-135120000D01*
X51404299Y-135120000D01*
X51390498Y-135145820D01*
X51354188Y-135265518D01*
X51341928Y-135390000D01*
X51345000Y-135604250D01*
X51503750Y-135763000D01*
X52578000Y-135763000D01*
X52578000Y-135743000D01*
X52832000Y-135743000D01*
X52832000Y-135763000D01*
X53906250Y-135763000D01*
X54065000Y-135604250D01*
X54068072Y-135390000D01*
X54055812Y-135265518D01*
X54019502Y-135145820D01*
X54006954Y-135122344D01*
X54030751Y-135120000D01*
X54030752Y-135120000D01*
X54197499Y-135103577D01*
X54411447Y-135038676D01*
X54608623Y-134933284D01*
X54781449Y-134791449D01*
X54816996Y-134748135D01*
X55417009Y-134148122D01*
X55418031Y-134158500D01*
%TA.AperFunction,Conductor*%
D24*
G36*
X55418031Y-134158500D02*
G01*
X55465722Y-134315716D01*
X55543169Y-134460608D01*
X55647394Y-134587606D01*
X55686866Y-134620000D01*
X55647394Y-134652394D01*
X55543169Y-134779392D01*
X55465722Y-134924284D01*
X55418031Y-135081500D01*
X55401928Y-135245000D01*
X55401928Y-135645000D01*
X55418031Y-135808500D01*
X55465722Y-135965716D01*
X55543169Y-136110608D01*
X55647394Y-136237606D01*
X55774392Y-136341831D01*
X55919284Y-136419278D01*
X56076500Y-136466969D01*
X56240000Y-136483072D01*
X56478271Y-136483072D01*
X57031201Y-137036003D01*
X57054999Y-137065001D01*
X57170724Y-137159974D01*
X57302753Y-137230546D01*
X57446014Y-137274003D01*
X57557667Y-137285000D01*
X57557675Y-137285000D01*
X57595000Y-137288676D01*
X57616928Y-137286516D01*
X57616928Y-137325000D01*
X57629188Y-137449482D01*
X57665498Y-137569180D01*
X57724463Y-137679494D01*
X57803815Y-137776185D01*
X57900506Y-137855537D01*
X58010820Y-137914502D01*
X58130518Y-137950812D01*
X58255000Y-137963072D01*
X59855000Y-137963072D01*
X59979482Y-137950812D01*
X60099180Y-137914502D01*
X60209494Y-137855537D01*
X60306185Y-137776185D01*
X60385537Y-137679494D01*
X60444502Y-137569180D01*
X60480812Y-137449482D01*
X60481643Y-137441039D01*
X60680241Y-137639637D01*
X60915273Y-137796680D01*
X61176426Y-137904853D01*
X61453665Y-137960000D01*
X61736335Y-137960000D01*
X62013574Y-137904853D01*
X62274727Y-137796680D01*
X62509759Y-137639637D01*
X62709637Y-137439759D01*
X62865000Y-137207241D01*
X63020363Y-137439759D01*
X63220241Y-137639637D01*
X63455273Y-137796680D01*
X63716426Y-137904853D01*
X63993665Y-137960000D01*
X64276335Y-137960000D01*
X64553574Y-137904853D01*
X64814727Y-137796680D01*
X65049759Y-137639637D01*
X65249637Y-137439759D01*
X65406680Y-137204727D01*
X65411067Y-137194135D01*
X65522615Y-137380131D01*
X65711586Y-137588519D01*
X65937580Y-137756037D01*
X66191913Y-137876246D01*
X66325961Y-137916904D01*
X66548000Y-137794915D01*
X66548000Y-136652000D01*
X66802000Y-136652000D01*
X66802000Y-137794915D01*
X67024039Y-137916904D01*
X67158087Y-137876246D01*
X67412420Y-137756037D01*
X67638414Y-137588519D01*
X67827385Y-137380131D01*
X67972070Y-137138881D01*
X68066909Y-136874040D01*
X67945624Y-136652000D01*
X66802000Y-136652000D01*
X66548000Y-136652000D01*
X66528000Y-136652000D01*
X66528000Y-136398000D01*
X66548000Y-136398000D01*
X66548000Y-136378000D01*
X66802000Y-136378000D01*
X66802000Y-136398000D01*
X67945624Y-136398000D01*
X68066909Y-136175960D01*
X67972070Y-135911119D01*
X67827385Y-135669869D01*
X67638414Y-135461481D01*
X67412420Y-135293963D01*
X67158087Y-135173754D01*
X67024039Y-135133096D01*
X66802002Y-135255084D01*
X66802002Y-135120000D01*
X71284869Y-135120000D01*
X73795000Y-137630132D01*
X73795001Y-146629239D01*
X73789509Y-146685000D01*
X73811423Y-146907498D01*
X73876324Y-147121446D01*
X73876325Y-147121447D01*
X73981717Y-147318623D01*
X74123552Y-147491449D01*
X74166860Y-147526991D01*
X75993009Y-149353141D01*
X76028551Y-149396449D01*
X76105988Y-149460000D01*
X76201377Y-149538284D01*
X76398553Y-149643676D01*
X76612501Y-149708577D01*
X76835000Y-149730491D01*
X76890752Y-149725000D01*
X80181539Y-149725000D01*
X80246613Y-149778405D01*
X80400149Y-149860472D01*
X80566745Y-149911008D01*
X80739999Y-149928072D01*
X81265001Y-149928072D01*
X81438255Y-149911008D01*
X81604851Y-149860472D01*
X81758387Y-149778405D01*
X81892962Y-149667962D01*
X81915000Y-149641109D01*
X81937038Y-149667962D01*
X82071613Y-149778405D01*
X82225149Y-149860472D01*
X82391745Y-149911008D01*
X82564999Y-149928072D01*
X83090001Y-149928072D01*
X83263255Y-149911008D01*
X83429851Y-149860472D01*
X83583387Y-149778405D01*
X83648461Y-149725000D01*
X84253638Y-149725000D01*
X84141716Y-149861377D01*
X84036324Y-150058553D01*
X83971423Y-150272501D01*
X83949509Y-150495000D01*
X83971423Y-150717499D01*
X84036324Y-150931447D01*
X84141716Y-151128623D01*
X84283551Y-151301449D01*
X84326865Y-151336996D01*
X87423009Y-154433141D01*
X87458551Y-154476449D01*
X87631377Y-154618284D01*
X87817002Y-154717502D01*
X87828553Y-154723676D01*
X88042501Y-154788577D01*
X88264999Y-154810491D01*
X88320751Y-154805000D01*
X88414981Y-154805000D01*
X88350506Y-154839463D01*
X88253815Y-154918815D01*
X88199499Y-154985000D01*
X67455751Y-154985000D01*
X67399999Y-154979509D01*
X67344248Y-154985000D01*
X44380483Y-154985000D01*
X44350641Y-154960509D01*
X41775000Y-152384869D01*
X41775000Y-149050000D01*
X46200130Y-149050000D01*
X46210498Y-149084180D01*
X46269463Y-149194494D01*
X46348815Y-149291185D01*
X46445506Y-149370537D01*
X46555820Y-149429502D01*
X46675518Y-149465812D01*
X46800000Y-149478072D01*
X48600000Y-149478072D01*
X48724482Y-149465812D01*
X48844180Y-149429502D01*
X48954494Y-149370537D01*
X49051185Y-149291185D01*
X49130537Y-149194494D01*
X49189502Y-149084180D01*
X49199870Y-149050000D01*
X52400130Y-149050000D01*
X52410498Y-149084180D01*
X52469463Y-149194494D01*
X52548815Y-149291185D01*
X52645506Y-149370537D01*
X52755820Y-149429502D01*
X52875518Y-149465812D01*
X53000000Y-149478072D01*
X54800000Y-149478072D01*
X54924482Y-149465812D01*
X55044180Y-149429502D01*
X55154494Y-149370537D01*
X55251185Y-149291185D01*
X55330537Y-149194494D01*
X55389502Y-149084180D01*
X55425812Y-148964482D01*
X55438072Y-148840000D01*
X55438072Y-147740000D01*
X55425812Y-147615518D01*
X55389502Y-147495820D01*
X55330537Y-147385506D01*
X55251185Y-147288815D01*
X55154494Y-147209463D01*
X55044180Y-147150498D01*
X54924482Y-147114188D01*
X54800000Y-147101928D01*
X53000000Y-147101928D01*
X52875518Y-147114188D01*
X52755820Y-147150498D01*
X52645506Y-147209463D01*
X52548815Y-147288815D01*
X52469463Y-147385506D01*
X52410498Y-147495820D01*
X52400130Y-147530000D01*
X49199870Y-147530000D01*
X49189502Y-147495820D01*
X49130537Y-147385506D01*
X49051185Y-147288815D01*
X48954494Y-147209463D01*
X48844180Y-147150498D01*
X48724482Y-147114188D01*
X48600000Y-147101928D01*
X46800000Y-147101928D01*
X46675518Y-147114188D01*
X46555820Y-147150498D01*
X46445506Y-147209463D01*
X46348815Y-147288815D01*
X46269463Y-147385506D01*
X46210498Y-147495820D01*
X46200130Y-147530000D01*
X41775000Y-147530000D01*
X41775000Y-146640000D01*
X42701928Y-146640000D01*
X42714188Y-146764482D01*
X42750498Y-146884180D01*
X42809463Y-146994494D01*
X42888815Y-147091185D01*
X42985506Y-147170537D01*
X43095820Y-147229502D01*
X43215518Y-147265812D01*
X43340000Y-147278072D01*
X43529250Y-147275000D01*
X43688000Y-147116250D01*
X43688000Y-146367000D01*
X43942000Y-146367000D01*
X43942000Y-147116250D01*
X44100750Y-147275000D01*
X44290000Y-147278072D01*
X44414482Y-147265812D01*
X44534180Y-147229502D01*
X44644494Y-147170537D01*
X44741185Y-147091185D01*
X44820537Y-146994494D01*
X44879502Y-146884180D01*
X44915812Y-146764482D01*
X44928072Y-146640000D01*
X44925000Y-146525750D01*
X44766250Y-146367000D01*
X43942000Y-146367000D01*
X43688000Y-146367000D01*
X42863750Y-146367000D01*
X42705000Y-146525750D01*
X42701928Y-146640000D01*
X41775000Y-146640000D01*
X41775000Y-135120000D01*
X46685198Y-135120000D01*
X43304003Y-138501196D01*
X43274999Y-138524999D01*
X43219871Y-138592174D01*
X43180026Y-138640724D01*
X43125207Y-138743283D01*
X43109454Y-138772754D01*
X43065997Y-138916015D01*
X43055000Y-139027668D01*
X43055000Y-139027678D01*
X43051324Y-139065000D01*
X43055000Y-139102323D01*
X43055001Y-140912658D01*
X43055000Y-140912668D01*
X43055001Y-143709083D01*
X42947394Y-143797394D01*
X42843169Y-143924392D01*
X42765722Y-144069284D01*
X42718031Y-144226500D01*
X42701928Y-144390000D01*
X42701928Y-144790000D01*
X42718031Y-144953500D01*
X42765722Y-145110716D01*
X42843169Y-145255608D01*
X42926863Y-145357590D01*
X42888815Y-145388815D01*
X42809463Y-145485506D01*
X42750498Y-145595820D01*
X42714188Y-145715518D01*
X42701928Y-145840000D01*
X42705000Y-145954250D01*
X42863750Y-146113000D01*
X43688000Y-146113000D01*
X43688000Y-146093000D01*
X43942000Y-146093000D01*
X43942000Y-146113000D01*
X44766250Y-146113000D01*
X44925000Y-145954250D01*
X44928072Y-145840000D01*
X44915812Y-145715518D01*
X44879502Y-145595820D01*
X44820537Y-145485506D01*
X44741185Y-145388815D01*
X44703137Y-145357590D01*
X44709365Y-145350000D01*
X46200130Y-145350000D01*
X46210498Y-145384180D01*
X46269463Y-145494494D01*
X46348815Y-145591185D01*
X46445506Y-145670537D01*
X46555820Y-145729502D01*
X46675518Y-145765812D01*
X46800000Y-145778072D01*
X48600000Y-145778072D01*
X48724482Y-145765812D01*
X48844180Y-145729502D01*
X48954494Y-145670537D01*
X49051185Y-145591185D01*
X49130537Y-145494494D01*
X49189502Y-145384180D01*
X49199870Y-145350000D01*
X52400130Y-145350000D01*
X52410498Y-145384180D01*
X52469463Y-145494494D01*
X52548815Y-145591185D01*
X52645506Y-145670537D01*
X52755820Y-145729502D01*
X52875518Y-145765812D01*
X53000000Y-145778072D01*
X54800000Y-145778072D01*
X54924482Y-145765812D01*
X55044180Y-145729502D01*
X55154494Y-145670537D01*
X55251185Y-145591185D01*
X55330537Y-145494494D01*
X55389502Y-145384180D01*
X55425812Y-145264482D01*
X55438072Y-145140000D01*
X55438072Y-144040000D01*
X55425812Y-143915518D01*
X55389502Y-143795820D01*
X55330537Y-143685506D01*
X55251185Y-143588815D01*
X55154494Y-143509463D01*
X55044180Y-143450498D01*
X54924482Y-143414188D01*
X54800000Y-143401928D01*
X53000000Y-143401928D01*
X52875518Y-143414188D01*
X52755820Y-143450498D01*
X52645506Y-143509463D01*
X52548815Y-143588815D01*
X52469463Y-143685506D01*
X52410498Y-143795820D01*
X52400130Y-143830000D01*
X49199870Y-143830000D01*
X49189502Y-143795820D01*
X49130537Y-143685506D01*
X49051185Y-143588815D01*
X48954494Y-143509463D01*
X48844180Y-143450498D01*
X48724482Y-143414188D01*
X48600000Y-143401928D01*
X46800000Y-143401928D01*
X46675518Y-143414188D01*
X46555820Y-143450498D01*
X46445506Y-143509463D01*
X46348815Y-143588815D01*
X46269463Y-143685506D01*
X46210498Y-143795820D01*
X46200130Y-143830000D01*
X44709365Y-143830000D01*
X44682606Y-143797394D01*
X44575000Y-143709084D01*
X44575000Y-140357560D01*
X45605000Y-140357560D01*
X45605000Y-140822440D01*
X45695694Y-141278387D01*
X45873595Y-141707879D01*
X46131868Y-142094412D01*
X46460588Y-142423132D01*
X46847121Y-142681405D01*
X47276613Y-142859306D01*
X47732560Y-142950000D01*
X48197440Y-142950000D01*
X48653387Y-142859306D01*
X49082879Y-142681405D01*
X49469412Y-142423132D01*
X49798132Y-142094412D01*
X50056405Y-141707879D01*
X50234306Y-141278387D01*
X50325000Y-140822440D01*
X50325000Y-140357560D01*
X50234306Y-139901613D01*
X50056405Y-139472121D01*
X49798132Y-139085588D01*
X49469412Y-138756868D01*
X49082879Y-138498595D01*
X48653387Y-138320694D01*
X48197440Y-138230000D01*
X47732560Y-138230000D01*
X47276613Y-138320694D01*
X46847121Y-138498595D01*
X46460588Y-138756868D01*
X46131868Y-139085588D01*
X45873595Y-139472121D01*
X45695694Y-139901613D01*
X45605000Y-140357560D01*
X44575000Y-140357560D01*
X44575000Y-139379801D01*
X47564801Y-136390000D01*
X51341928Y-136390000D01*
X51354188Y-136514482D01*
X51390498Y-136634180D01*
X51449463Y-136744494D01*
X51528815Y-136841185D01*
X51625506Y-136920537D01*
X51735820Y-136979502D01*
X51855518Y-137015812D01*
X51980000Y-137028072D01*
X52419250Y-137025000D01*
X52578000Y-136866250D01*
X52578000Y-136017000D01*
X52832000Y-136017000D01*
X52832000Y-136866250D01*
X52990750Y-137025000D01*
X53430000Y-137028072D01*
X53554482Y-137015812D01*
X53674180Y-136979502D01*
X53784494Y-136920537D01*
X53881185Y-136841185D01*
X53960537Y-136744494D01*
X54019502Y-136634180D01*
X54055812Y-136514482D01*
X54068072Y-136390000D01*
X54065000Y-136175750D01*
X53906250Y-136017000D01*
X52832000Y-136017000D01*
X52578000Y-136017000D01*
X51503750Y-136017000D01*
X51345000Y-136175750D01*
X51341928Y-136390000D01*
X47564801Y-136390000D01*
X47591172Y-136363630D01*
X47598061Y-136365000D01*
X47801939Y-136365000D01*
X48001898Y-136325226D01*
X48190256Y-136247205D01*
X48359774Y-136133937D01*
X48503937Y-135989774D01*
X48617205Y-135820256D01*
X48695226Y-135631898D01*
X48735000Y-135431939D01*
X48735000Y-135228061D01*
X48713506Y-135120000D01*
X51404299Y-135120000D01*
X51390498Y-135145820D01*
X51354188Y-135265518D01*
X51341928Y-135390000D01*
X51345000Y-135604250D01*
X51503750Y-135763000D01*
X52578000Y-135763000D01*
X52578000Y-135743000D01*
X52832000Y-135743000D01*
X52832000Y-135763000D01*
X53906250Y-135763000D01*
X54065000Y-135604250D01*
X54068072Y-135390000D01*
X54055812Y-135265518D01*
X54019502Y-135145820D01*
X54006954Y-135122344D01*
X54030751Y-135120000D01*
X54030752Y-135120000D01*
X54197499Y-135103577D01*
X54411447Y-135038676D01*
X54608623Y-134933284D01*
X54781449Y-134791449D01*
X54816996Y-134748135D01*
X55417009Y-134148122D01*
X55418031Y-134158500D01*
G37*
%TD.AperFunction*%
%TD*%
M02*
