%TF.GenerationSoftware,KiCad,Pcbnew,(5.1.7)-1*%
%TF.CreationDate,2020-11-19T15:51:39+01:00*%
%TF.ProjectId,Notifier,4e6f7469-6669-4657-922e-6b696361645f,rev?*%
%TF.SameCoordinates,Original*%
%TF.FileFunction,Copper,L2,Bot*%
%TF.FilePolarity,Positive*%
%FSLAX46Y46*%
G04 Gerber Fmt 4.6, Leading zero omitted, Abs format (unit mm)*
G04 Created by KiCad (PCBNEW (5.1.7)-1) date 2020-11-19 15:51:39*
%MOMM*%
%LPD*%
G01*
G04 APERTURE LIST*
%TA.AperFunction,ComponentPad*%
%ADD10C,5.600000*%
%TD*%
%TA.AperFunction,SMDPad,CuDef*%
%ADD11R,7.340000X6.350000*%
%TD*%
%TA.AperFunction,ComponentPad*%
%ADD12C,1.800000*%
%TD*%
%TA.AperFunction,ComponentPad*%
%ADD13O,2.200000X3.500000*%
%TD*%
%TA.AperFunction,ComponentPad*%
%ADD14O,1.500000X2.500000*%
%TD*%
%TA.AperFunction,ComponentPad*%
%ADD15R,1.500000X2.500000*%
%TD*%
%TA.AperFunction,ComponentPad*%
%ADD16O,1.600000X1.600000*%
%TD*%
%TA.AperFunction,ComponentPad*%
%ADD17R,1.600000X1.600000*%
%TD*%
%TA.AperFunction,ComponentPad*%
%ADD18C,1.700000*%
%TD*%
%TA.AperFunction,ViaPad*%
%ADD19C,0.800000*%
%TD*%
%TA.AperFunction,Conductor*%
%ADD20C,0.250000*%
%TD*%
%TA.AperFunction,Conductor*%
%ADD21C,1.000000*%
%TD*%
%TA.AperFunction,Conductor*%
%ADD22C,0.254000*%
%TD*%
%TA.AperFunction,Conductor*%
%ADD23C,0.100000*%
%TD*%
G04 APERTURE END LIST*
D10*
%TO.P,H4,1*%
%TO.N,GND*%
X120015000Y-160020000D03*
%TD*%
%TO.P,H3,1*%
%TO.N,GND*%
X120015000Y-130175000D03*
%TD*%
%TO.P,H2,1*%
%TO.N,GND*%
X30480000Y-130175000D03*
%TD*%
%TO.P,H1,1*%
%TO.N,GND*%
X30480000Y-160020000D03*
%TD*%
D11*
%TO.P,J1,2*%
%TO.N,GND*%
X114895000Y-148590000D03*
%TO.P,J1,1*%
%TO.N,Net-(J1-Pad1)*%
X36235000Y-148590000D03*
%TD*%
D12*
%TO.P,U2,3*%
%TO.N,VCC*%
X41275000Y-160655000D03*
%TO.P,U2,2*%
%TO.N,GND*%
X38735000Y-160655000D03*
%TO.P,U2,1*%
%TO.N,/IR_out*%
%TA.AperFunction,ComponentPad*%
G36*
G01*
X35295000Y-161306600D02*
X35295000Y-160003400D01*
G75*
G02*
X35543400Y-159755000I248400J0D01*
G01*
X36846600Y-159755000D01*
G75*
G02*
X37095000Y-160003400I0J-248400D01*
G01*
X37095000Y-161306600D01*
G75*
G02*
X36846600Y-161555000I-248400J0D01*
G01*
X35543400Y-161555000D01*
G75*
G02*
X35295000Y-161306600I0J248400D01*
G01*
G37*
%TD.AperFunction*%
%TD*%
D13*
%TO.P,ON/OFF,*%
%TO.N,*%
X67060000Y-161925000D03*
X58860000Y-161925000D03*
D14*
%TO.P,ON/OFF,3*%
%TO.N,VCC*%
X64960000Y-161925000D03*
%TO.P,ON/OFF,2*%
%TO.N,Net-(J1-Pad1)*%
X62960000Y-161925000D03*
D15*
%TO.P,ON/OFF,1*%
%TO.N,Net-(ON/OFF1-Pad1)*%
X60960000Y-161925000D03*
%TD*%
D16*
%TO.P,U1,8*%
%TO.N,VCC*%
X59055000Y-128905000D03*
%TO.P,U1,4*%
%TO.N,GND*%
X66675000Y-136525000D03*
%TO.P,U1,7*%
%TO.N,/LED_red*%
X61595000Y-128905000D03*
%TO.P,U1,3*%
%TO.N,/LED_blue*%
X64135000Y-136525000D03*
%TO.P,U1,6*%
%TO.N,/IR_out*%
X64135000Y-128905000D03*
%TO.P,U1,2*%
%TO.N,/LED_green*%
X61595000Y-136525000D03*
%TO.P,U1,5*%
%TO.N,/MOSI*%
X66675000Y-128905000D03*
D17*
%TO.P,U1,1*%
%TO.N,/!RST*%
X59055000Y-136525000D03*
%TD*%
%TO.P,J2,1*%
%TO.N,/MOSI*%
%TA.AperFunction,ComponentPad*%
G36*
G01*
X40040000Y-130595000D02*
X41240000Y-130595000D01*
G75*
G02*
X41490000Y-130845000I0J-250000D01*
G01*
X41490000Y-132045000D01*
G75*
G02*
X41240000Y-132295000I-250000J0D01*
G01*
X40040000Y-132295000D01*
G75*
G02*
X39790000Y-132045000I0J250000D01*
G01*
X39790000Y-130845000D01*
G75*
G02*
X40040000Y-130595000I250000J0D01*
G01*
G37*
%TD.AperFunction*%
D18*
%TO.P,J2,3*%
%TO.N,/LED_red*%
X38100000Y-131445000D03*
%TO.P,J2,5*%
%TO.N,/!RST*%
X35560000Y-131445000D03*
%TO.P,J2,2*%
%TO.N,VCC*%
X40640000Y-133985000D03*
%TO.P,J2,4*%
%TO.N,/IR_out*%
X38100000Y-133985000D03*
%TO.P,J2,6*%
%TO.N,GND*%
X35560000Y-133985000D03*
%TD*%
D19*
%TO.N,GND*%
X66675000Y-139700000D03*
X67945000Y-139700000D03*
X67945000Y-140970000D03*
X66675000Y-140970000D03*
X52070000Y-160655000D03*
X53340000Y-160655000D03*
X53340000Y-161925000D03*
X52070000Y-161925000D03*
X79375000Y-153035000D03*
X79375000Y-151765000D03*
X78105000Y-151765000D03*
X78105000Y-153035000D03*
X113030000Y-160020000D03*
X113030000Y-161290000D03*
X114300000Y-161290000D03*
X114300000Y-160020000D03*
X82550000Y-135890000D03*
X83820000Y-135890000D03*
X83820000Y-137160000D03*
X82550000Y-137160000D03*
X33655000Y-135890000D03*
X33655000Y-137160000D03*
X32385000Y-137160000D03*
X32385000Y-135890000D03*
%TO.N,/MOSI*%
X47700000Y-135330000D03*
X47625000Y-131445000D03*
%TO.N,Net-(D1-Pad6)*%
X95250000Y-139700000D03*
X95250000Y-143510000D03*
%TO.N,Net-(D1-Pad5)*%
X85090000Y-146685000D03*
X85090000Y-150495000D03*
X100330000Y-136525000D03*
%TO.N,Net-(D1-Pad4)*%
X109855000Y-146050000D03*
X107950000Y-144145000D03*
X95250000Y-150495000D03*
%TD*%
D20*
%TO.N,VCC*%
X41275000Y-161290000D02*
X41275000Y-160655000D01*
%TO.N,/IR_out*%
X38100000Y-137160000D02*
X31115000Y-144145000D01*
X38100000Y-133985000D02*
X38100000Y-137160000D01*
%TO.N,/!RST*%
X52070000Y-129540000D02*
X59055000Y-136525000D01*
X37465000Y-129540000D02*
X52070000Y-129540000D01*
X35560000Y-131445000D02*
X37465000Y-129540000D01*
%TO.N,/IR_out*%
X36195000Y-160655000D02*
X36195000Y-158115000D01*
X36195000Y-158115000D02*
X31115000Y-153035000D01*
X31115000Y-153035000D02*
X31115000Y-144145000D01*
%TO.N,/MOSI*%
X47700000Y-131520000D02*
X47625000Y-131445000D01*
X47700000Y-135330000D02*
X47700000Y-131520000D01*
D21*
%TO.N,Net-(D1-Pad6)*%
X95250000Y-139700000D02*
X95250000Y-143510000D01*
X95250000Y-143510000D02*
X95250000Y-143510000D01*
%TO.N,Net-(D1-Pad5)*%
X85090000Y-150495000D02*
X85090000Y-146685000D01*
X85090000Y-146685000D02*
X95250000Y-146685000D01*
X95250000Y-146685000D02*
X100330000Y-141605000D01*
X100330000Y-141605000D02*
X100330000Y-136525000D01*
X100330000Y-136525000D02*
X100330000Y-136525000D01*
%TO.N,Net-(D1-Pad4)*%
X107950000Y-144145000D02*
X109855000Y-146050000D01*
X101600000Y-144145000D02*
X107950000Y-144145000D01*
X95250000Y-150495000D02*
X101600000Y-144145000D01*
%TO.N,Net-(J1-Pad1)*%
X36235000Y-149225000D02*
X60325000Y-149225000D01*
X62960000Y-151860000D02*
X62960000Y-161925000D01*
X60325000Y-149225000D02*
X62960000Y-151860000D01*
%TD*%
D22*
%TO.N,GND*%
X124435001Y-164440000D02*
X26060000Y-164440000D01*
X26060000Y-162436481D01*
X28243124Y-162436481D01*
X28555308Y-162885177D01*
X29151259Y-163205612D01*
X29798273Y-163403626D01*
X30471484Y-163471610D01*
X31145023Y-163406949D01*
X31793006Y-163212130D01*
X32390530Y-162894639D01*
X32404692Y-162885177D01*
X32716876Y-162436481D01*
X30480000Y-160199605D01*
X28243124Y-162436481D01*
X26060000Y-162436481D01*
X26060000Y-160011484D01*
X27028390Y-160011484D01*
X27093051Y-160685023D01*
X27287870Y-161333006D01*
X27605361Y-161930530D01*
X27614823Y-161944692D01*
X28063519Y-162256876D01*
X30300395Y-160020000D01*
X30659605Y-160020000D01*
X32896481Y-162256876D01*
X33345177Y-161944692D01*
X33665612Y-161348741D01*
X33863626Y-160701727D01*
X33931610Y-160028516D01*
X33866949Y-159354977D01*
X33672130Y-158706994D01*
X33354639Y-158109470D01*
X33345177Y-158095308D01*
X32896481Y-157783124D01*
X30659605Y-160020000D01*
X30300395Y-160020000D01*
X28063519Y-157783124D01*
X27614823Y-158095308D01*
X27294388Y-158691259D01*
X27096374Y-159338273D01*
X27028390Y-160011484D01*
X26060000Y-160011484D01*
X26060000Y-157603519D01*
X28243124Y-157603519D01*
X30480000Y-159840395D01*
X32716876Y-157603519D01*
X32404692Y-157154823D01*
X31808741Y-156834388D01*
X31161727Y-156636374D01*
X30488516Y-156568390D01*
X29814977Y-156633051D01*
X29166994Y-156827870D01*
X28569470Y-157145361D01*
X28555308Y-157154823D01*
X28243124Y-157603519D01*
X26060000Y-157603519D01*
X26060000Y-144145000D01*
X30351324Y-144145000D01*
X30355001Y-144182332D01*
X30355000Y-152997678D01*
X30351324Y-153035000D01*
X30355000Y-153072322D01*
X30355000Y-153072332D01*
X30365997Y-153183985D01*
X30409454Y-153327246D01*
X30480026Y-153459276D01*
X30519871Y-153507826D01*
X30574999Y-153575001D01*
X30604003Y-153598804D01*
X35435001Y-158429803D01*
X35435001Y-159127604D01*
X35370458Y-159133961D01*
X35204162Y-159184407D01*
X35050903Y-159266325D01*
X34916570Y-159376570D01*
X34806325Y-159510903D01*
X34724407Y-159664162D01*
X34673961Y-159830458D01*
X34656928Y-160003400D01*
X34656928Y-161306600D01*
X34673961Y-161479542D01*
X34724407Y-161645838D01*
X34806325Y-161799097D01*
X34916570Y-161933430D01*
X35050903Y-162043675D01*
X35204162Y-162125593D01*
X35370458Y-162176039D01*
X35543400Y-162193072D01*
X36846600Y-162193072D01*
X37019542Y-162176039D01*
X37185838Y-162125593D01*
X37339097Y-162043675D01*
X37473430Y-161933430D01*
X37583675Y-161799097D01*
X37626444Y-161719080D01*
X37850525Y-161719080D01*
X37934208Y-161973261D01*
X38206775Y-162104158D01*
X38499642Y-162179365D01*
X38801553Y-162195991D01*
X39100907Y-162153397D01*
X39386199Y-162053222D01*
X39535792Y-161973261D01*
X39619475Y-161719080D01*
X38735000Y-160834605D01*
X37850525Y-161719080D01*
X37626444Y-161719080D01*
X37665593Y-161645838D01*
X37709588Y-161500807D01*
X38555395Y-160655000D01*
X38914605Y-160655000D01*
X39799080Y-161539475D01*
X39980049Y-161479895D01*
X40082688Y-161633505D01*
X40296495Y-161847312D01*
X40547905Y-162015299D01*
X40827257Y-162131011D01*
X41123816Y-162190000D01*
X41426184Y-162190000D01*
X41722743Y-162131011D01*
X42002095Y-162015299D01*
X42253505Y-161847312D01*
X42467312Y-161633505D01*
X42635299Y-161382095D01*
X42751011Y-161102743D01*
X42810000Y-160806184D01*
X42810000Y-160503816D01*
X42751011Y-160207257D01*
X42635299Y-159927905D01*
X42467312Y-159676495D01*
X42253505Y-159462688D01*
X42002095Y-159294701D01*
X41722743Y-159178989D01*
X41426184Y-159120000D01*
X41123816Y-159120000D01*
X40827257Y-159178989D01*
X40547905Y-159294701D01*
X40296495Y-159462688D01*
X40082688Y-159676495D01*
X39980049Y-159830105D01*
X39799080Y-159770525D01*
X38914605Y-160655000D01*
X38555395Y-160655000D01*
X37709588Y-159809193D01*
X37665593Y-159664162D01*
X37626445Y-159590920D01*
X37850525Y-159590920D01*
X38735000Y-160475395D01*
X39619475Y-159590920D01*
X39535792Y-159336739D01*
X39263225Y-159205842D01*
X38970358Y-159130635D01*
X38668447Y-159114009D01*
X38369093Y-159156603D01*
X38083801Y-159256778D01*
X37934208Y-159336739D01*
X37850525Y-159590920D01*
X37626445Y-159590920D01*
X37583675Y-159510903D01*
X37473430Y-159376570D01*
X37339097Y-159266325D01*
X37185838Y-159184407D01*
X37019542Y-159133961D01*
X36955000Y-159127604D01*
X36955000Y-158152323D01*
X36958676Y-158115000D01*
X36955000Y-158077677D01*
X36955000Y-158077667D01*
X36944003Y-157966014D01*
X36900546Y-157822753D01*
X36839144Y-157707879D01*
X36829974Y-157690723D01*
X36758799Y-157603997D01*
X36735001Y-157574999D01*
X36706003Y-157551201D01*
X35564563Y-156409761D01*
X37805000Y-156409761D01*
X37805000Y-156770239D01*
X37875325Y-157123791D01*
X38013275Y-157456830D01*
X38213546Y-157756557D01*
X38468443Y-158011454D01*
X38768170Y-158211725D01*
X39101209Y-158349675D01*
X39454761Y-158420000D01*
X39815239Y-158420000D01*
X40168791Y-158349675D01*
X40501830Y-158211725D01*
X40801557Y-158011454D01*
X41056454Y-157756557D01*
X41256725Y-157456830D01*
X41394675Y-157123791D01*
X41465000Y-156770239D01*
X41465000Y-156409761D01*
X41394675Y-156056209D01*
X41256725Y-155723170D01*
X41056454Y-155423443D01*
X40801557Y-155168546D01*
X40501830Y-154968275D01*
X40168791Y-154830325D01*
X39815239Y-154760000D01*
X39454761Y-154760000D01*
X39101209Y-154830325D01*
X38768170Y-154968275D01*
X38468443Y-155168546D01*
X38213546Y-155423443D01*
X38013275Y-155723170D01*
X37875325Y-156056209D01*
X37805000Y-156409761D01*
X35564563Y-156409761D01*
X31875000Y-152720199D01*
X31875000Y-145415000D01*
X31926928Y-145415000D01*
X31926928Y-151765000D01*
X31939188Y-151889482D01*
X31975498Y-152009180D01*
X32034463Y-152119494D01*
X32113815Y-152216185D01*
X32210506Y-152295537D01*
X32320820Y-152354502D01*
X32440518Y-152390812D01*
X32565000Y-152403072D01*
X39905000Y-152403072D01*
X40029482Y-152390812D01*
X40149180Y-152354502D01*
X40259494Y-152295537D01*
X40356185Y-152216185D01*
X40435537Y-152119494D01*
X40494502Y-152009180D01*
X40530812Y-151889482D01*
X40543072Y-151765000D01*
X40543072Y-150360000D01*
X59854869Y-150360000D01*
X61825000Y-152330132D01*
X61825001Y-160048254D01*
X61710000Y-160036928D01*
X60210000Y-160036928D01*
X60097504Y-160048008D01*
X60092766Y-160042234D01*
X59828577Y-159825421D01*
X59527167Y-159664314D01*
X59200118Y-159565105D01*
X58860000Y-159531606D01*
X58519881Y-159565105D01*
X58192832Y-159664314D01*
X57891422Y-159825421D01*
X57627234Y-160042234D01*
X57410421Y-160306423D01*
X57249314Y-160607833D01*
X57150105Y-160934882D01*
X57125000Y-161189776D01*
X57125000Y-162660225D01*
X57150105Y-162915119D01*
X57249315Y-163242168D01*
X57410422Y-163543578D01*
X57627235Y-163807766D01*
X57891423Y-164024579D01*
X58192833Y-164185686D01*
X58519882Y-164284895D01*
X58860000Y-164318394D01*
X59200119Y-164284895D01*
X59527168Y-164185686D01*
X59828578Y-164024579D01*
X60092766Y-163807766D01*
X60097504Y-163801992D01*
X60210000Y-163813072D01*
X61710000Y-163813072D01*
X61834482Y-163800812D01*
X61954180Y-163764502D01*
X62064494Y-163705537D01*
X62161185Y-163626185D01*
X62194115Y-163586060D01*
X62427420Y-163710764D01*
X62688494Y-163789960D01*
X62960000Y-163816701D01*
X63231507Y-163789960D01*
X63492581Y-163710764D01*
X63733188Y-163582157D01*
X63944081Y-163409081D01*
X63960000Y-163389683D01*
X63975920Y-163409081D01*
X64186813Y-163582157D01*
X64427420Y-163710764D01*
X64688494Y-163789960D01*
X64960000Y-163816701D01*
X65231507Y-163789960D01*
X65492581Y-163710764D01*
X65669862Y-163616006D01*
X65827235Y-163807766D01*
X66091423Y-164024579D01*
X66392833Y-164185686D01*
X66719882Y-164284895D01*
X67060000Y-164318394D01*
X67400119Y-164284895D01*
X67727168Y-164185686D01*
X68028578Y-164024579D01*
X68292766Y-163807766D01*
X68509579Y-163543578D01*
X68670686Y-163242168D01*
X68769895Y-162915119D01*
X68795000Y-162660225D01*
X68795000Y-162436481D01*
X117778124Y-162436481D01*
X118090308Y-162885177D01*
X118686259Y-163205612D01*
X119333273Y-163403626D01*
X120006484Y-163471610D01*
X120680023Y-163406949D01*
X121328006Y-163212130D01*
X121925530Y-162894639D01*
X121939692Y-162885177D01*
X122251876Y-162436481D01*
X120015000Y-160199605D01*
X117778124Y-162436481D01*
X68795000Y-162436481D01*
X68795000Y-161189775D01*
X68769895Y-160934881D01*
X68670686Y-160607832D01*
X68509579Y-160306422D01*
X68292766Y-160042234D01*
X68255297Y-160011484D01*
X116563390Y-160011484D01*
X116628051Y-160685023D01*
X116822870Y-161333006D01*
X117140361Y-161930530D01*
X117149823Y-161944692D01*
X117598519Y-162256876D01*
X119835395Y-160020000D01*
X120194605Y-160020000D01*
X122431481Y-162256876D01*
X122880177Y-161944692D01*
X123200612Y-161348741D01*
X123398626Y-160701727D01*
X123466610Y-160028516D01*
X123401949Y-159354977D01*
X123207130Y-158706994D01*
X122889639Y-158109470D01*
X122880177Y-158095308D01*
X122431481Y-157783124D01*
X120194605Y-160020000D01*
X119835395Y-160020000D01*
X117598519Y-157783124D01*
X117149823Y-158095308D01*
X116829388Y-158691259D01*
X116631374Y-159338273D01*
X116563390Y-160011484D01*
X68255297Y-160011484D01*
X68028577Y-159825421D01*
X67727167Y-159664314D01*
X67400118Y-159565105D01*
X67060000Y-159531606D01*
X66719881Y-159565105D01*
X66392832Y-159664314D01*
X66091422Y-159825421D01*
X65827234Y-160042234D01*
X65669861Y-160233995D01*
X65492580Y-160139236D01*
X65231506Y-160060040D01*
X64960000Y-160033299D01*
X64688493Y-160060040D01*
X64427419Y-160139236D01*
X64186812Y-160267843D01*
X64095000Y-160343192D01*
X64095000Y-156357560D01*
X100805000Y-156357560D01*
X100805000Y-156822440D01*
X100895694Y-157278387D01*
X101073595Y-157707879D01*
X101331868Y-158094412D01*
X101660588Y-158423132D01*
X102047121Y-158681405D01*
X102476613Y-158859306D01*
X102932560Y-158950000D01*
X103397440Y-158950000D01*
X103853387Y-158859306D01*
X104282879Y-158681405D01*
X104669412Y-158423132D01*
X104998132Y-158094412D01*
X105256405Y-157707879D01*
X105299632Y-157603519D01*
X117778124Y-157603519D01*
X120015000Y-159840395D01*
X122251876Y-157603519D01*
X121939692Y-157154823D01*
X121343741Y-156834388D01*
X120696727Y-156636374D01*
X120023516Y-156568390D01*
X119349977Y-156633051D01*
X118701994Y-156827870D01*
X118104470Y-157145361D01*
X118090308Y-157154823D01*
X117778124Y-157603519D01*
X105299632Y-157603519D01*
X105434306Y-157278387D01*
X105525000Y-156822440D01*
X105525000Y-156357560D01*
X105434306Y-155901613D01*
X105256405Y-155472121D01*
X104998132Y-155085588D01*
X104669412Y-154756868D01*
X104282879Y-154498595D01*
X103853387Y-154320694D01*
X103397440Y-154230000D01*
X102932560Y-154230000D01*
X102476613Y-154320694D01*
X102047121Y-154498595D01*
X101660588Y-154756868D01*
X101331868Y-155085588D01*
X101073595Y-155472121D01*
X100895694Y-155901613D01*
X100805000Y-156357560D01*
X64095000Y-156357560D01*
X64095000Y-151915752D01*
X64100491Y-151860000D01*
X64091135Y-151765000D01*
X110586928Y-151765000D01*
X110599188Y-151889482D01*
X110635498Y-152009180D01*
X110694463Y-152119494D01*
X110773815Y-152216185D01*
X110870506Y-152295537D01*
X110980820Y-152354502D01*
X111100518Y-152390812D01*
X111225000Y-152403072D01*
X114609250Y-152400000D01*
X114768000Y-152241250D01*
X114768000Y-148717000D01*
X115022000Y-148717000D01*
X115022000Y-152241250D01*
X115180750Y-152400000D01*
X118565000Y-152403072D01*
X118689482Y-152390812D01*
X118809180Y-152354502D01*
X118919494Y-152295537D01*
X119016185Y-152216185D01*
X119095537Y-152119494D01*
X119154502Y-152009180D01*
X119190812Y-151889482D01*
X119203072Y-151765000D01*
X119200000Y-148875750D01*
X119041250Y-148717000D01*
X115022000Y-148717000D01*
X114768000Y-148717000D01*
X110748750Y-148717000D01*
X110590000Y-148875750D01*
X110586928Y-151765000D01*
X64091135Y-151765000D01*
X64078577Y-151637501D01*
X64013676Y-151423553D01*
X63908284Y-151226377D01*
X63766449Y-151053551D01*
X63723141Y-151018009D01*
X61166996Y-148461865D01*
X61131449Y-148418551D01*
X60958623Y-148276716D01*
X60761447Y-148171324D01*
X60547499Y-148106423D01*
X60380752Y-148090000D01*
X60380751Y-148090000D01*
X60325000Y-148084509D01*
X60269249Y-148090000D01*
X40543072Y-148090000D01*
X40543072Y-146685000D01*
X83949509Y-146685000D01*
X83955001Y-146740762D01*
X83955000Y-150550751D01*
X83971423Y-150717498D01*
X84036324Y-150931446D01*
X84141716Y-151128623D01*
X84283551Y-151301449D01*
X84456377Y-151443284D01*
X84653553Y-151548676D01*
X84867501Y-151613577D01*
X85090000Y-151635491D01*
X85312498Y-151613577D01*
X85526446Y-151548676D01*
X85723623Y-151443284D01*
X85896449Y-151301449D01*
X86038284Y-151128623D01*
X86143676Y-150931447D01*
X86208577Y-150717499D01*
X86225000Y-150550752D01*
X86225000Y-150495000D01*
X94109509Y-150495000D01*
X94131423Y-150717498D01*
X94196324Y-150931446D01*
X94301717Y-151128622D01*
X94443552Y-151301448D01*
X94616378Y-151443283D01*
X94813554Y-151548676D01*
X95027502Y-151613577D01*
X95250000Y-151635491D01*
X95472498Y-151613577D01*
X95686446Y-151548676D01*
X95883622Y-151443283D01*
X96013143Y-151336988D01*
X102070132Y-145280000D01*
X107479869Y-145280000D01*
X109091856Y-146891988D01*
X109221377Y-146998284D01*
X109418553Y-147103676D01*
X109632501Y-147168577D01*
X109855000Y-147190491D01*
X110077499Y-147168577D01*
X110291446Y-147103676D01*
X110488622Y-146998284D01*
X110588524Y-146916297D01*
X110590000Y-148304250D01*
X110748750Y-148463000D01*
X114768000Y-148463000D01*
X114768000Y-144938750D01*
X115022000Y-144938750D01*
X115022000Y-148463000D01*
X119041250Y-148463000D01*
X119200000Y-148304250D01*
X119203072Y-145415000D01*
X119190812Y-145290518D01*
X119154502Y-145170820D01*
X119095537Y-145060506D01*
X119016185Y-144963815D01*
X118919494Y-144884463D01*
X118809180Y-144825498D01*
X118689482Y-144789188D01*
X118565000Y-144776928D01*
X115180750Y-144780000D01*
X115022000Y-144938750D01*
X114768000Y-144938750D01*
X114609250Y-144780000D01*
X111225000Y-144776928D01*
X111100518Y-144789188D01*
X110980820Y-144825498D01*
X110870506Y-144884463D01*
X110773815Y-144963815D01*
X110694463Y-145060506D01*
X110635498Y-145170820D01*
X110622803Y-145212671D01*
X108791996Y-143381865D01*
X108756449Y-143338551D01*
X108583623Y-143196716D01*
X108386447Y-143091324D01*
X108172499Y-143026423D01*
X108005752Y-143010000D01*
X108005751Y-143010000D01*
X107950000Y-143004509D01*
X107894249Y-143010000D01*
X101655751Y-143010000D01*
X101599999Y-143004509D01*
X101377500Y-143026423D01*
X101327705Y-143041529D01*
X101163553Y-143091324D01*
X100966377Y-143196716D01*
X100793551Y-143338551D01*
X100758009Y-143381859D01*
X94408012Y-149731857D01*
X94301717Y-149861378D01*
X94196324Y-150058554D01*
X94131423Y-150272502D01*
X94109509Y-150495000D01*
X86225000Y-150495000D01*
X86225000Y-147820000D01*
X95194249Y-147820000D01*
X95250000Y-147825491D01*
X95305751Y-147820000D01*
X95305752Y-147820000D01*
X95472499Y-147803577D01*
X95686447Y-147738676D01*
X95883623Y-147633284D01*
X96056449Y-147491449D01*
X96091996Y-147448135D01*
X101093141Y-142446991D01*
X101136449Y-142411449D01*
X101278284Y-142238623D01*
X101383676Y-142041447D01*
X101448577Y-141827499D01*
X101465000Y-141660752D01*
X101465000Y-141660751D01*
X101470491Y-141605000D01*
X101465000Y-141549249D01*
X101465000Y-136580752D01*
X101470491Y-136525000D01*
X101448577Y-136302501D01*
X101383676Y-136088553D01*
X101278284Y-135891377D01*
X101136449Y-135718551D01*
X100963623Y-135576716D01*
X100766447Y-135471324D01*
X100552499Y-135406423D01*
X100385752Y-135390000D01*
X100330000Y-135384509D01*
X100274249Y-135390000D01*
X100274248Y-135390000D01*
X100107501Y-135406423D01*
X99893553Y-135471324D01*
X99696377Y-135576716D01*
X99523551Y-135718551D01*
X99381716Y-135891377D01*
X99276324Y-136088553D01*
X99211423Y-136302501D01*
X99189509Y-136525000D01*
X99195001Y-136580762D01*
X99195000Y-141134868D01*
X96212107Y-144117761D01*
X96303676Y-143946447D01*
X96368577Y-143732499D01*
X96385000Y-143565752D01*
X96390491Y-143510000D01*
X96385000Y-143454248D01*
X96385000Y-139644248D01*
X96368577Y-139477501D01*
X96303676Y-139263553D01*
X96198284Y-139066377D01*
X96056449Y-138893551D01*
X95883623Y-138751716D01*
X95686446Y-138646324D01*
X95472498Y-138581423D01*
X95250000Y-138559509D01*
X95027501Y-138581423D01*
X94813553Y-138646324D01*
X94616377Y-138751716D01*
X94443551Y-138893551D01*
X94301716Y-139066377D01*
X94196324Y-139263554D01*
X94131423Y-139477502D01*
X94115000Y-139644249D01*
X94115001Y-143454238D01*
X94109509Y-143510000D01*
X94131423Y-143732499D01*
X94196324Y-143946447D01*
X94301716Y-144143623D01*
X94443551Y-144316449D01*
X94616377Y-144458284D01*
X94813553Y-144563676D01*
X95027501Y-144628577D01*
X95194248Y-144645000D01*
X95194249Y-144645000D01*
X95250000Y-144650491D01*
X95472499Y-144628577D01*
X95686447Y-144563676D01*
X95857762Y-144472107D01*
X94779869Y-145550000D01*
X85145752Y-145550000D01*
X85090000Y-145544509D01*
X85034249Y-145550000D01*
X85034248Y-145550000D01*
X84867501Y-145566423D01*
X84653553Y-145631324D01*
X84456377Y-145736716D01*
X84283551Y-145878551D01*
X84141716Y-146051377D01*
X84036324Y-146248553D01*
X83971423Y-146462501D01*
X83949509Y-146685000D01*
X40543072Y-146685000D01*
X40543072Y-145415000D01*
X40530812Y-145290518D01*
X40494502Y-145170820D01*
X40435537Y-145060506D01*
X40356185Y-144963815D01*
X40259494Y-144884463D01*
X40149180Y-144825498D01*
X40029482Y-144789188D01*
X39905000Y-144776928D01*
X32565000Y-144776928D01*
X32440518Y-144789188D01*
X32320820Y-144825498D01*
X32210506Y-144884463D01*
X32113815Y-144963815D01*
X32034463Y-145060506D01*
X31975498Y-145170820D01*
X31939188Y-145290518D01*
X31926928Y-145415000D01*
X31875000Y-145415000D01*
X31875000Y-144459801D01*
X35977241Y-140357560D01*
X45605000Y-140357560D01*
X45605000Y-140822440D01*
X45695694Y-141278387D01*
X45873595Y-141707879D01*
X46131868Y-142094412D01*
X46460588Y-142423132D01*
X46847121Y-142681405D01*
X47276613Y-142859306D01*
X47732560Y-142950000D01*
X48197440Y-142950000D01*
X48653387Y-142859306D01*
X49082879Y-142681405D01*
X49469412Y-142423132D01*
X49798132Y-142094412D01*
X50056405Y-141707879D01*
X50234306Y-141278387D01*
X50325000Y-140822440D01*
X50325000Y-140357560D01*
X50234306Y-139901613D01*
X50056405Y-139472121D01*
X49798132Y-139085588D01*
X49469412Y-138756868D01*
X49082879Y-138498595D01*
X48653387Y-138320694D01*
X48197440Y-138230000D01*
X47732560Y-138230000D01*
X47276613Y-138320694D01*
X46847121Y-138498595D01*
X46460588Y-138756868D01*
X46131868Y-139085588D01*
X45873595Y-139472121D01*
X45695694Y-139901613D01*
X45605000Y-140357560D01*
X35977241Y-140357560D01*
X38611003Y-137723799D01*
X38640001Y-137700001D01*
X38734974Y-137584276D01*
X38805546Y-137452247D01*
X38849003Y-137308986D01*
X38860000Y-137197333D01*
X38860000Y-137197325D01*
X38863676Y-137160000D01*
X38860000Y-137122675D01*
X38860000Y-135263178D01*
X39046632Y-135138475D01*
X39253475Y-134931632D01*
X39370000Y-134757240D01*
X39486525Y-134931632D01*
X39693368Y-135138475D01*
X39936589Y-135300990D01*
X40206842Y-135412932D01*
X40493740Y-135470000D01*
X40786260Y-135470000D01*
X41073158Y-135412932D01*
X41343411Y-135300990D01*
X41586632Y-135138475D01*
X41793475Y-134931632D01*
X41955990Y-134688411D01*
X42067932Y-134418158D01*
X42125000Y-134131260D01*
X42125000Y-133838740D01*
X42067932Y-133551842D01*
X41955990Y-133281589D01*
X41793475Y-133038368D01*
X41606392Y-132851285D01*
X41733386Y-132783405D01*
X41867962Y-132672962D01*
X41978405Y-132538386D01*
X42060472Y-132384850D01*
X42111008Y-132218254D01*
X42128072Y-132045000D01*
X42128072Y-131343061D01*
X46590000Y-131343061D01*
X46590000Y-131546939D01*
X46629774Y-131746898D01*
X46707795Y-131935256D01*
X46821063Y-132104774D01*
X46940001Y-132223712D01*
X46940000Y-134626289D01*
X46896063Y-134670226D01*
X46782795Y-134839744D01*
X46704774Y-135028102D01*
X46665000Y-135228061D01*
X46665000Y-135431939D01*
X46704774Y-135631898D01*
X46782795Y-135820256D01*
X46896063Y-135989774D01*
X47040226Y-136133937D01*
X47209744Y-136247205D01*
X47398102Y-136325226D01*
X47598061Y-136365000D01*
X47801939Y-136365000D01*
X48001898Y-136325226D01*
X48190256Y-136247205D01*
X48359774Y-136133937D01*
X48503937Y-135989774D01*
X48617205Y-135820256D01*
X48695226Y-135631898D01*
X48735000Y-135431939D01*
X48735000Y-135228061D01*
X48695226Y-135028102D01*
X48617205Y-134839744D01*
X48503937Y-134670226D01*
X48460000Y-134626289D01*
X48460000Y-132058285D01*
X48542205Y-131935256D01*
X48620226Y-131746898D01*
X48660000Y-131546939D01*
X48660000Y-131343061D01*
X48620226Y-131143102D01*
X48542205Y-130954744D01*
X48428937Y-130785226D01*
X48284774Y-130641063D01*
X48115256Y-130527795D01*
X47926898Y-130449774D01*
X47726939Y-130410000D01*
X47523061Y-130410000D01*
X47323102Y-130449774D01*
X47134744Y-130527795D01*
X46965226Y-130641063D01*
X46821063Y-130785226D01*
X46707795Y-130954744D01*
X46629774Y-131143102D01*
X46590000Y-131343061D01*
X42128072Y-131343061D01*
X42128072Y-130845000D01*
X42111008Y-130671746D01*
X42060472Y-130505150D01*
X41978405Y-130351614D01*
X41936047Y-130300000D01*
X51755199Y-130300000D01*
X57616928Y-136161730D01*
X57616928Y-137325000D01*
X57629188Y-137449482D01*
X57665498Y-137569180D01*
X57724463Y-137679494D01*
X57803815Y-137776185D01*
X57900506Y-137855537D01*
X58010820Y-137914502D01*
X58130518Y-137950812D01*
X58255000Y-137963072D01*
X59855000Y-137963072D01*
X59979482Y-137950812D01*
X60099180Y-137914502D01*
X60209494Y-137855537D01*
X60306185Y-137776185D01*
X60385537Y-137679494D01*
X60444502Y-137569180D01*
X60480812Y-137449482D01*
X60481643Y-137441039D01*
X60680241Y-137639637D01*
X60915273Y-137796680D01*
X61176426Y-137904853D01*
X61453665Y-137960000D01*
X61736335Y-137960000D01*
X62013574Y-137904853D01*
X62274727Y-137796680D01*
X62509759Y-137639637D01*
X62709637Y-137439759D01*
X62865000Y-137207241D01*
X63020363Y-137439759D01*
X63220241Y-137639637D01*
X63455273Y-137796680D01*
X63716426Y-137904853D01*
X63993665Y-137960000D01*
X64276335Y-137960000D01*
X64553574Y-137904853D01*
X64814727Y-137796680D01*
X65049759Y-137639637D01*
X65249637Y-137439759D01*
X65406680Y-137204727D01*
X65411067Y-137194135D01*
X65522615Y-137380131D01*
X65711586Y-137588519D01*
X65937580Y-137756037D01*
X66191913Y-137876246D01*
X66325961Y-137916904D01*
X66548000Y-137794915D01*
X66548000Y-136652000D01*
X66802000Y-136652000D01*
X66802000Y-137794915D01*
X67024039Y-137916904D01*
X67158087Y-137876246D01*
X67412420Y-137756037D01*
X67638414Y-137588519D01*
X67827385Y-137380131D01*
X67972070Y-137138881D01*
X68066909Y-136874040D01*
X67945624Y-136652000D01*
X66802000Y-136652000D01*
X66548000Y-136652000D01*
X66528000Y-136652000D01*
X66528000Y-136398000D01*
X66548000Y-136398000D01*
X66548000Y-135255085D01*
X66802000Y-135255085D01*
X66802000Y-136398000D01*
X67945624Y-136398000D01*
X68066909Y-136175960D01*
X67972070Y-135911119D01*
X67827385Y-135669869D01*
X67638414Y-135461481D01*
X67412420Y-135293963D01*
X67158087Y-135173754D01*
X67024039Y-135133096D01*
X66802000Y-135255085D01*
X66548000Y-135255085D01*
X66325961Y-135133096D01*
X66191913Y-135173754D01*
X65937580Y-135293963D01*
X65711586Y-135461481D01*
X65522615Y-135669869D01*
X65411067Y-135855865D01*
X65406680Y-135845273D01*
X65249637Y-135610241D01*
X65049759Y-135410363D01*
X64814727Y-135253320D01*
X64553574Y-135145147D01*
X64276335Y-135090000D01*
X63993665Y-135090000D01*
X63716426Y-135145147D01*
X63455273Y-135253320D01*
X63220241Y-135410363D01*
X63020363Y-135610241D01*
X62865000Y-135842759D01*
X62709637Y-135610241D01*
X62509759Y-135410363D01*
X62274727Y-135253320D01*
X62013574Y-135145147D01*
X61736335Y-135090000D01*
X61453665Y-135090000D01*
X61176426Y-135145147D01*
X60915273Y-135253320D01*
X60680241Y-135410363D01*
X60481643Y-135608961D01*
X60480812Y-135600518D01*
X60444502Y-135480820D01*
X60385537Y-135370506D01*
X60306185Y-135273815D01*
X60209494Y-135194463D01*
X60099180Y-135135498D01*
X59979482Y-135099188D01*
X59855000Y-135086928D01*
X58691730Y-135086928D01*
X56196283Y-132591481D01*
X117778124Y-132591481D01*
X118090308Y-133040177D01*
X118686259Y-133360612D01*
X119333273Y-133558626D01*
X120006484Y-133626610D01*
X120680023Y-133561949D01*
X121328006Y-133367130D01*
X121925530Y-133049639D01*
X121939692Y-133040177D01*
X122251876Y-132591481D01*
X120015000Y-130354605D01*
X117778124Y-132591481D01*
X56196283Y-132591481D01*
X52633804Y-129029003D01*
X52610001Y-128999999D01*
X52494276Y-128905026D01*
X52362247Y-128834454D01*
X52218986Y-128790997D01*
X52107333Y-128780000D01*
X52107322Y-128780000D01*
X52070000Y-128776324D01*
X52032678Y-128780000D01*
X37502323Y-128780000D01*
X37465000Y-128776324D01*
X37427677Y-128780000D01*
X37427667Y-128780000D01*
X37316014Y-128790997D01*
X37172753Y-128834454D01*
X37040724Y-128905026D01*
X36924999Y-128999999D01*
X36901201Y-129028997D01*
X35926408Y-130003791D01*
X35706260Y-129960000D01*
X35413740Y-129960000D01*
X35126842Y-130017068D01*
X34856589Y-130129010D01*
X34613368Y-130291525D01*
X34406525Y-130498368D01*
X34244010Y-130741589D01*
X34132068Y-131011842D01*
X34075000Y-131298740D01*
X34075000Y-131591260D01*
X34132068Y-131878158D01*
X34244010Y-132148411D01*
X34406525Y-132391632D01*
X34613368Y-132598475D01*
X34786729Y-132714311D01*
X34711208Y-132956603D01*
X35560000Y-133805395D01*
X36408792Y-132956603D01*
X36333271Y-132714311D01*
X36506632Y-132598475D01*
X36713475Y-132391632D01*
X36830000Y-132217240D01*
X36946525Y-132391632D01*
X37153368Y-132598475D01*
X37327760Y-132715000D01*
X37153368Y-132831525D01*
X36946525Y-133038368D01*
X36830689Y-133211729D01*
X36588397Y-133136208D01*
X35739605Y-133985000D01*
X36588397Y-134833792D01*
X36830689Y-134758271D01*
X36946525Y-134931632D01*
X37153368Y-135138475D01*
X37340000Y-135263179D01*
X37340001Y-136845197D01*
X30603998Y-143581201D01*
X30575000Y-143604999D01*
X30551202Y-143633997D01*
X30551201Y-143633998D01*
X30480026Y-143720724D01*
X30409454Y-143852754D01*
X30365998Y-143996015D01*
X30351324Y-144145000D01*
X26060000Y-144145000D01*
X26060000Y-135013397D01*
X34711208Y-135013397D01*
X34788843Y-135262472D01*
X35052883Y-135388371D01*
X35336411Y-135460339D01*
X35628531Y-135475611D01*
X35918019Y-135433599D01*
X36193747Y-135335919D01*
X36331157Y-135262472D01*
X36408792Y-135013397D01*
X35560000Y-134164605D01*
X34711208Y-135013397D01*
X26060000Y-135013397D01*
X26060000Y-134053531D01*
X34069389Y-134053531D01*
X34111401Y-134343019D01*
X34209081Y-134618747D01*
X34282528Y-134756157D01*
X34531603Y-134833792D01*
X35380395Y-133985000D01*
X34531603Y-133136208D01*
X34282528Y-133213843D01*
X34156629Y-133477883D01*
X34084661Y-133761411D01*
X34069389Y-134053531D01*
X26060000Y-134053531D01*
X26060000Y-132591481D01*
X28243124Y-132591481D01*
X28555308Y-133040177D01*
X29151259Y-133360612D01*
X29798273Y-133558626D01*
X30471484Y-133626610D01*
X31145023Y-133561949D01*
X31793006Y-133367130D01*
X32390530Y-133049639D01*
X32404692Y-133040177D01*
X32716876Y-132591481D01*
X30480000Y-130354605D01*
X28243124Y-132591481D01*
X26060000Y-132591481D01*
X26060000Y-130166484D01*
X27028390Y-130166484D01*
X27093051Y-130840023D01*
X27287870Y-131488006D01*
X27605361Y-132085530D01*
X27614823Y-132099692D01*
X28063519Y-132411876D01*
X30300395Y-130175000D01*
X30659605Y-130175000D01*
X32896481Y-132411876D01*
X33345177Y-132099692D01*
X33665612Y-131503741D01*
X33863626Y-130856727D01*
X33931610Y-130183516D01*
X33866949Y-129509977D01*
X33672130Y-128861994D01*
X33619884Y-128763665D01*
X57620000Y-128763665D01*
X57620000Y-129046335D01*
X57675147Y-129323574D01*
X57783320Y-129584727D01*
X57940363Y-129819759D01*
X58140241Y-130019637D01*
X58375273Y-130176680D01*
X58636426Y-130284853D01*
X58913665Y-130340000D01*
X59196335Y-130340000D01*
X59473574Y-130284853D01*
X59734727Y-130176680D01*
X59969759Y-130019637D01*
X60169637Y-129819759D01*
X60325000Y-129587241D01*
X60480363Y-129819759D01*
X60680241Y-130019637D01*
X60915273Y-130176680D01*
X61176426Y-130284853D01*
X61453665Y-130340000D01*
X61736335Y-130340000D01*
X62013574Y-130284853D01*
X62274727Y-130176680D01*
X62509759Y-130019637D01*
X62709637Y-129819759D01*
X62865000Y-129587241D01*
X63020363Y-129819759D01*
X63220241Y-130019637D01*
X63455273Y-130176680D01*
X63716426Y-130284853D01*
X63993665Y-130340000D01*
X64276335Y-130340000D01*
X64553574Y-130284853D01*
X64814727Y-130176680D01*
X65049759Y-130019637D01*
X65249637Y-129819759D01*
X65405000Y-129587241D01*
X65560363Y-129819759D01*
X65760241Y-130019637D01*
X65995273Y-130176680D01*
X66256426Y-130284853D01*
X66533665Y-130340000D01*
X66816335Y-130340000D01*
X67093574Y-130284853D01*
X67354727Y-130176680D01*
X67369986Y-130166484D01*
X116563390Y-130166484D01*
X116628051Y-130840023D01*
X116822870Y-131488006D01*
X117140361Y-132085530D01*
X117149823Y-132099692D01*
X117598519Y-132411876D01*
X119835395Y-130175000D01*
X120194605Y-130175000D01*
X122431481Y-132411876D01*
X122880177Y-132099692D01*
X123200612Y-131503741D01*
X123398626Y-130856727D01*
X123466610Y-130183516D01*
X123401949Y-129509977D01*
X123207130Y-128861994D01*
X122889639Y-128264470D01*
X122880177Y-128250308D01*
X122431481Y-127938124D01*
X120194605Y-130175000D01*
X119835395Y-130175000D01*
X117598519Y-127938124D01*
X117149823Y-128250308D01*
X116829388Y-128846259D01*
X116631374Y-129493273D01*
X116563390Y-130166484D01*
X67369986Y-130166484D01*
X67589759Y-130019637D01*
X67789637Y-129819759D01*
X67946680Y-129584727D01*
X68054853Y-129323574D01*
X68110000Y-129046335D01*
X68110000Y-128763665D01*
X68054853Y-128486426D01*
X67946680Y-128225273D01*
X67789637Y-127990241D01*
X67589759Y-127790363D01*
X67542101Y-127758519D01*
X117778124Y-127758519D01*
X120015000Y-129995395D01*
X122251876Y-127758519D01*
X121939692Y-127309823D01*
X121343741Y-126989388D01*
X120696727Y-126791374D01*
X120023516Y-126723390D01*
X119349977Y-126788051D01*
X118701994Y-126982870D01*
X118104470Y-127300361D01*
X118090308Y-127309823D01*
X117778124Y-127758519D01*
X67542101Y-127758519D01*
X67354727Y-127633320D01*
X67093574Y-127525147D01*
X66816335Y-127470000D01*
X66533665Y-127470000D01*
X66256426Y-127525147D01*
X65995273Y-127633320D01*
X65760241Y-127790363D01*
X65560363Y-127990241D01*
X65405000Y-128222759D01*
X65249637Y-127990241D01*
X65049759Y-127790363D01*
X64814727Y-127633320D01*
X64553574Y-127525147D01*
X64276335Y-127470000D01*
X63993665Y-127470000D01*
X63716426Y-127525147D01*
X63455273Y-127633320D01*
X63220241Y-127790363D01*
X63020363Y-127990241D01*
X62865000Y-128222759D01*
X62709637Y-127990241D01*
X62509759Y-127790363D01*
X62274727Y-127633320D01*
X62013574Y-127525147D01*
X61736335Y-127470000D01*
X61453665Y-127470000D01*
X61176426Y-127525147D01*
X60915273Y-127633320D01*
X60680241Y-127790363D01*
X60480363Y-127990241D01*
X60325000Y-128222759D01*
X60169637Y-127990241D01*
X59969759Y-127790363D01*
X59734727Y-127633320D01*
X59473574Y-127525147D01*
X59196335Y-127470000D01*
X58913665Y-127470000D01*
X58636426Y-127525147D01*
X58375273Y-127633320D01*
X58140241Y-127790363D01*
X57940363Y-127990241D01*
X57783320Y-128225273D01*
X57675147Y-128486426D01*
X57620000Y-128763665D01*
X33619884Y-128763665D01*
X33354639Y-128264470D01*
X33345177Y-128250308D01*
X32896481Y-127938124D01*
X30659605Y-130175000D01*
X30300395Y-130175000D01*
X28063519Y-127938124D01*
X27614823Y-128250308D01*
X27294388Y-128846259D01*
X27096374Y-129493273D01*
X27028390Y-130166484D01*
X26060000Y-130166484D01*
X26060000Y-127758519D01*
X28243124Y-127758519D01*
X30480000Y-129995395D01*
X32716876Y-127758519D01*
X32404692Y-127309823D01*
X31808741Y-126989388D01*
X31161727Y-126791374D01*
X30488516Y-126723390D01*
X29814977Y-126788051D01*
X29166994Y-126982870D01*
X28569470Y-127300361D01*
X28555308Y-127309823D01*
X28243124Y-127758519D01*
X26060000Y-127758519D01*
X26060000Y-125755000D01*
X124435000Y-125755000D01*
X124435001Y-164440000D01*
%TA.AperFunction,Conductor*%
D23*
G36*
X124435001Y-164440000D02*
G01*
X26060000Y-164440000D01*
X26060000Y-162436481D01*
X28243124Y-162436481D01*
X28555308Y-162885177D01*
X29151259Y-163205612D01*
X29798273Y-163403626D01*
X30471484Y-163471610D01*
X31145023Y-163406949D01*
X31793006Y-163212130D01*
X32390530Y-162894639D01*
X32404692Y-162885177D01*
X32716876Y-162436481D01*
X30480000Y-160199605D01*
X28243124Y-162436481D01*
X26060000Y-162436481D01*
X26060000Y-160011484D01*
X27028390Y-160011484D01*
X27093051Y-160685023D01*
X27287870Y-161333006D01*
X27605361Y-161930530D01*
X27614823Y-161944692D01*
X28063519Y-162256876D01*
X30300395Y-160020000D01*
X30659605Y-160020000D01*
X32896481Y-162256876D01*
X33345177Y-161944692D01*
X33665612Y-161348741D01*
X33863626Y-160701727D01*
X33931610Y-160028516D01*
X33866949Y-159354977D01*
X33672130Y-158706994D01*
X33354639Y-158109470D01*
X33345177Y-158095308D01*
X32896481Y-157783124D01*
X30659605Y-160020000D01*
X30300395Y-160020000D01*
X28063519Y-157783124D01*
X27614823Y-158095308D01*
X27294388Y-158691259D01*
X27096374Y-159338273D01*
X27028390Y-160011484D01*
X26060000Y-160011484D01*
X26060000Y-157603519D01*
X28243124Y-157603519D01*
X30480000Y-159840395D01*
X32716876Y-157603519D01*
X32404692Y-157154823D01*
X31808741Y-156834388D01*
X31161727Y-156636374D01*
X30488516Y-156568390D01*
X29814977Y-156633051D01*
X29166994Y-156827870D01*
X28569470Y-157145361D01*
X28555308Y-157154823D01*
X28243124Y-157603519D01*
X26060000Y-157603519D01*
X26060000Y-144145000D01*
X30351324Y-144145000D01*
X30355001Y-144182332D01*
X30355000Y-152997678D01*
X30351324Y-153035000D01*
X30355000Y-153072322D01*
X30355000Y-153072332D01*
X30365997Y-153183985D01*
X30409454Y-153327246D01*
X30480026Y-153459276D01*
X30519871Y-153507826D01*
X30574999Y-153575001D01*
X30604003Y-153598804D01*
X35435001Y-158429803D01*
X35435001Y-159127604D01*
X35370458Y-159133961D01*
X35204162Y-159184407D01*
X35050903Y-159266325D01*
X34916570Y-159376570D01*
X34806325Y-159510903D01*
X34724407Y-159664162D01*
X34673961Y-159830458D01*
X34656928Y-160003400D01*
X34656928Y-161306600D01*
X34673961Y-161479542D01*
X34724407Y-161645838D01*
X34806325Y-161799097D01*
X34916570Y-161933430D01*
X35050903Y-162043675D01*
X35204162Y-162125593D01*
X35370458Y-162176039D01*
X35543400Y-162193072D01*
X36846600Y-162193072D01*
X37019542Y-162176039D01*
X37185838Y-162125593D01*
X37339097Y-162043675D01*
X37473430Y-161933430D01*
X37583675Y-161799097D01*
X37626444Y-161719080D01*
X37850525Y-161719080D01*
X37934208Y-161973261D01*
X38206775Y-162104158D01*
X38499642Y-162179365D01*
X38801553Y-162195991D01*
X39100907Y-162153397D01*
X39386199Y-162053222D01*
X39535792Y-161973261D01*
X39619475Y-161719080D01*
X38735000Y-160834605D01*
X37850525Y-161719080D01*
X37626444Y-161719080D01*
X37665593Y-161645838D01*
X37709588Y-161500807D01*
X38555395Y-160655000D01*
X38914605Y-160655000D01*
X39799080Y-161539475D01*
X39980049Y-161479895D01*
X40082688Y-161633505D01*
X40296495Y-161847312D01*
X40547905Y-162015299D01*
X40827257Y-162131011D01*
X41123816Y-162190000D01*
X41426184Y-162190000D01*
X41722743Y-162131011D01*
X42002095Y-162015299D01*
X42253505Y-161847312D01*
X42467312Y-161633505D01*
X42635299Y-161382095D01*
X42751011Y-161102743D01*
X42810000Y-160806184D01*
X42810000Y-160503816D01*
X42751011Y-160207257D01*
X42635299Y-159927905D01*
X42467312Y-159676495D01*
X42253505Y-159462688D01*
X42002095Y-159294701D01*
X41722743Y-159178989D01*
X41426184Y-159120000D01*
X41123816Y-159120000D01*
X40827257Y-159178989D01*
X40547905Y-159294701D01*
X40296495Y-159462688D01*
X40082688Y-159676495D01*
X39980049Y-159830105D01*
X39799080Y-159770525D01*
X38914605Y-160655000D01*
X38555395Y-160655000D01*
X37709588Y-159809193D01*
X37665593Y-159664162D01*
X37626445Y-159590920D01*
X37850525Y-159590920D01*
X38735000Y-160475395D01*
X39619475Y-159590920D01*
X39535792Y-159336739D01*
X39263225Y-159205842D01*
X38970358Y-159130635D01*
X38668447Y-159114009D01*
X38369093Y-159156603D01*
X38083801Y-159256778D01*
X37934208Y-159336739D01*
X37850525Y-159590920D01*
X37626445Y-159590920D01*
X37583675Y-159510903D01*
X37473430Y-159376570D01*
X37339097Y-159266325D01*
X37185838Y-159184407D01*
X37019542Y-159133961D01*
X36955000Y-159127604D01*
X36955000Y-158152323D01*
X36958676Y-158115000D01*
X36955000Y-158077677D01*
X36955000Y-158077667D01*
X36944003Y-157966014D01*
X36900546Y-157822753D01*
X36839144Y-157707879D01*
X36829974Y-157690723D01*
X36758799Y-157603997D01*
X36735001Y-157574999D01*
X36706003Y-157551201D01*
X35564563Y-156409761D01*
X37805000Y-156409761D01*
X37805000Y-156770239D01*
X37875325Y-157123791D01*
X38013275Y-157456830D01*
X38213546Y-157756557D01*
X38468443Y-158011454D01*
X38768170Y-158211725D01*
X39101209Y-158349675D01*
X39454761Y-158420000D01*
X39815239Y-158420000D01*
X40168791Y-158349675D01*
X40501830Y-158211725D01*
X40801557Y-158011454D01*
X41056454Y-157756557D01*
X41256725Y-157456830D01*
X41394675Y-157123791D01*
X41465000Y-156770239D01*
X41465000Y-156409761D01*
X41394675Y-156056209D01*
X41256725Y-155723170D01*
X41056454Y-155423443D01*
X40801557Y-155168546D01*
X40501830Y-154968275D01*
X40168791Y-154830325D01*
X39815239Y-154760000D01*
X39454761Y-154760000D01*
X39101209Y-154830325D01*
X38768170Y-154968275D01*
X38468443Y-155168546D01*
X38213546Y-155423443D01*
X38013275Y-155723170D01*
X37875325Y-156056209D01*
X37805000Y-156409761D01*
X35564563Y-156409761D01*
X31875000Y-152720199D01*
X31875000Y-145415000D01*
X31926928Y-145415000D01*
X31926928Y-151765000D01*
X31939188Y-151889482D01*
X31975498Y-152009180D01*
X32034463Y-152119494D01*
X32113815Y-152216185D01*
X32210506Y-152295537D01*
X32320820Y-152354502D01*
X32440518Y-152390812D01*
X32565000Y-152403072D01*
X39905000Y-152403072D01*
X40029482Y-152390812D01*
X40149180Y-152354502D01*
X40259494Y-152295537D01*
X40356185Y-152216185D01*
X40435537Y-152119494D01*
X40494502Y-152009180D01*
X40530812Y-151889482D01*
X40543072Y-151765000D01*
X40543072Y-150360000D01*
X59854869Y-150360000D01*
X61825000Y-152330132D01*
X61825001Y-160048254D01*
X61710000Y-160036928D01*
X60210000Y-160036928D01*
X60097504Y-160048008D01*
X60092766Y-160042234D01*
X59828577Y-159825421D01*
X59527167Y-159664314D01*
X59200118Y-159565105D01*
X58860000Y-159531606D01*
X58519881Y-159565105D01*
X58192832Y-159664314D01*
X57891422Y-159825421D01*
X57627234Y-160042234D01*
X57410421Y-160306423D01*
X57249314Y-160607833D01*
X57150105Y-160934882D01*
X57125000Y-161189776D01*
X57125000Y-162660225D01*
X57150105Y-162915119D01*
X57249315Y-163242168D01*
X57410422Y-163543578D01*
X57627235Y-163807766D01*
X57891423Y-164024579D01*
X58192833Y-164185686D01*
X58519882Y-164284895D01*
X58860000Y-164318394D01*
X59200119Y-164284895D01*
X59527168Y-164185686D01*
X59828578Y-164024579D01*
X60092766Y-163807766D01*
X60097504Y-163801992D01*
X60210000Y-163813072D01*
X61710000Y-163813072D01*
X61834482Y-163800812D01*
X61954180Y-163764502D01*
X62064494Y-163705537D01*
X62161185Y-163626185D01*
X62194115Y-163586060D01*
X62427420Y-163710764D01*
X62688494Y-163789960D01*
X62960000Y-163816701D01*
X63231507Y-163789960D01*
X63492581Y-163710764D01*
X63733188Y-163582157D01*
X63944081Y-163409081D01*
X63960000Y-163389683D01*
X63975920Y-163409081D01*
X64186813Y-163582157D01*
X64427420Y-163710764D01*
X64688494Y-163789960D01*
X64960000Y-163816701D01*
X65231507Y-163789960D01*
X65492581Y-163710764D01*
X65669862Y-163616006D01*
X65827235Y-163807766D01*
X66091423Y-164024579D01*
X66392833Y-164185686D01*
X66719882Y-164284895D01*
X67060000Y-164318394D01*
X67400119Y-164284895D01*
X67727168Y-164185686D01*
X68028578Y-164024579D01*
X68292766Y-163807766D01*
X68509579Y-163543578D01*
X68670686Y-163242168D01*
X68769895Y-162915119D01*
X68795000Y-162660225D01*
X68795000Y-162436481D01*
X117778124Y-162436481D01*
X118090308Y-162885177D01*
X118686259Y-163205612D01*
X119333273Y-163403626D01*
X120006484Y-163471610D01*
X120680023Y-163406949D01*
X121328006Y-163212130D01*
X121925530Y-162894639D01*
X121939692Y-162885177D01*
X122251876Y-162436481D01*
X120015000Y-160199605D01*
X117778124Y-162436481D01*
X68795000Y-162436481D01*
X68795000Y-161189775D01*
X68769895Y-160934881D01*
X68670686Y-160607832D01*
X68509579Y-160306422D01*
X68292766Y-160042234D01*
X68255297Y-160011484D01*
X116563390Y-160011484D01*
X116628051Y-160685023D01*
X116822870Y-161333006D01*
X117140361Y-161930530D01*
X117149823Y-161944692D01*
X117598519Y-162256876D01*
X119835395Y-160020000D01*
X120194605Y-160020000D01*
X122431481Y-162256876D01*
X122880177Y-161944692D01*
X123200612Y-161348741D01*
X123398626Y-160701727D01*
X123466610Y-160028516D01*
X123401949Y-159354977D01*
X123207130Y-158706994D01*
X122889639Y-158109470D01*
X122880177Y-158095308D01*
X122431481Y-157783124D01*
X120194605Y-160020000D01*
X119835395Y-160020000D01*
X117598519Y-157783124D01*
X117149823Y-158095308D01*
X116829388Y-158691259D01*
X116631374Y-159338273D01*
X116563390Y-160011484D01*
X68255297Y-160011484D01*
X68028577Y-159825421D01*
X67727167Y-159664314D01*
X67400118Y-159565105D01*
X67060000Y-159531606D01*
X66719881Y-159565105D01*
X66392832Y-159664314D01*
X66091422Y-159825421D01*
X65827234Y-160042234D01*
X65669861Y-160233995D01*
X65492580Y-160139236D01*
X65231506Y-160060040D01*
X64960000Y-160033299D01*
X64688493Y-160060040D01*
X64427419Y-160139236D01*
X64186812Y-160267843D01*
X64095000Y-160343192D01*
X64095000Y-156357560D01*
X100805000Y-156357560D01*
X100805000Y-156822440D01*
X100895694Y-157278387D01*
X101073595Y-157707879D01*
X101331868Y-158094412D01*
X101660588Y-158423132D01*
X102047121Y-158681405D01*
X102476613Y-158859306D01*
X102932560Y-158950000D01*
X103397440Y-158950000D01*
X103853387Y-158859306D01*
X104282879Y-158681405D01*
X104669412Y-158423132D01*
X104998132Y-158094412D01*
X105256405Y-157707879D01*
X105299632Y-157603519D01*
X117778124Y-157603519D01*
X120015000Y-159840395D01*
X122251876Y-157603519D01*
X121939692Y-157154823D01*
X121343741Y-156834388D01*
X120696727Y-156636374D01*
X120023516Y-156568390D01*
X119349977Y-156633051D01*
X118701994Y-156827870D01*
X118104470Y-157145361D01*
X118090308Y-157154823D01*
X117778124Y-157603519D01*
X105299632Y-157603519D01*
X105434306Y-157278387D01*
X105525000Y-156822440D01*
X105525000Y-156357560D01*
X105434306Y-155901613D01*
X105256405Y-155472121D01*
X104998132Y-155085588D01*
X104669412Y-154756868D01*
X104282879Y-154498595D01*
X103853387Y-154320694D01*
X103397440Y-154230000D01*
X102932560Y-154230000D01*
X102476613Y-154320694D01*
X102047121Y-154498595D01*
X101660588Y-154756868D01*
X101331868Y-155085588D01*
X101073595Y-155472121D01*
X100895694Y-155901613D01*
X100805000Y-156357560D01*
X64095000Y-156357560D01*
X64095000Y-151915752D01*
X64100491Y-151860000D01*
X64091135Y-151765000D01*
X110586928Y-151765000D01*
X110599188Y-151889482D01*
X110635498Y-152009180D01*
X110694463Y-152119494D01*
X110773815Y-152216185D01*
X110870506Y-152295537D01*
X110980820Y-152354502D01*
X111100518Y-152390812D01*
X111225000Y-152403072D01*
X114609250Y-152400000D01*
X114768000Y-152241250D01*
X114768000Y-148717000D01*
X115022000Y-148717000D01*
X115022000Y-152241250D01*
X115180750Y-152400000D01*
X118565000Y-152403072D01*
X118689482Y-152390812D01*
X118809180Y-152354502D01*
X118919494Y-152295537D01*
X119016185Y-152216185D01*
X119095537Y-152119494D01*
X119154502Y-152009180D01*
X119190812Y-151889482D01*
X119203072Y-151765000D01*
X119200000Y-148875750D01*
X119041250Y-148717000D01*
X115022000Y-148717000D01*
X114768000Y-148717000D01*
X110748750Y-148717000D01*
X110590000Y-148875750D01*
X110586928Y-151765000D01*
X64091135Y-151765000D01*
X64078577Y-151637501D01*
X64013676Y-151423553D01*
X63908284Y-151226377D01*
X63766449Y-151053551D01*
X63723141Y-151018009D01*
X61166996Y-148461865D01*
X61131449Y-148418551D01*
X60958623Y-148276716D01*
X60761447Y-148171324D01*
X60547499Y-148106423D01*
X60380752Y-148090000D01*
X60380751Y-148090000D01*
X60325000Y-148084509D01*
X60269249Y-148090000D01*
X40543072Y-148090000D01*
X40543072Y-146685000D01*
X83949509Y-146685000D01*
X83955001Y-146740762D01*
X83955000Y-150550751D01*
X83971423Y-150717498D01*
X84036324Y-150931446D01*
X84141716Y-151128623D01*
X84283551Y-151301449D01*
X84456377Y-151443284D01*
X84653553Y-151548676D01*
X84867501Y-151613577D01*
X85090000Y-151635491D01*
X85312498Y-151613577D01*
X85526446Y-151548676D01*
X85723623Y-151443284D01*
X85896449Y-151301449D01*
X86038284Y-151128623D01*
X86143676Y-150931447D01*
X86208577Y-150717499D01*
X86225000Y-150550752D01*
X86225000Y-150495000D01*
X94109509Y-150495000D01*
X94131423Y-150717498D01*
X94196324Y-150931446D01*
X94301717Y-151128622D01*
X94443552Y-151301448D01*
X94616378Y-151443283D01*
X94813554Y-151548676D01*
X95027502Y-151613577D01*
X95250000Y-151635491D01*
X95472498Y-151613577D01*
X95686446Y-151548676D01*
X95883622Y-151443283D01*
X96013143Y-151336988D01*
X102070132Y-145280000D01*
X107479869Y-145280000D01*
X109091856Y-146891988D01*
X109221377Y-146998284D01*
X109418553Y-147103676D01*
X109632501Y-147168577D01*
X109855000Y-147190491D01*
X110077499Y-147168577D01*
X110291446Y-147103676D01*
X110488622Y-146998284D01*
X110588524Y-146916297D01*
X110590000Y-148304250D01*
X110748750Y-148463000D01*
X114768000Y-148463000D01*
X114768000Y-144938750D01*
X115022000Y-144938750D01*
X115022000Y-148463000D01*
X119041250Y-148463000D01*
X119200000Y-148304250D01*
X119203072Y-145415000D01*
X119190812Y-145290518D01*
X119154502Y-145170820D01*
X119095537Y-145060506D01*
X119016185Y-144963815D01*
X118919494Y-144884463D01*
X118809180Y-144825498D01*
X118689482Y-144789188D01*
X118565000Y-144776928D01*
X115180750Y-144780000D01*
X115022000Y-144938750D01*
X114768000Y-144938750D01*
X114609250Y-144780000D01*
X111225000Y-144776928D01*
X111100518Y-144789188D01*
X110980820Y-144825498D01*
X110870506Y-144884463D01*
X110773815Y-144963815D01*
X110694463Y-145060506D01*
X110635498Y-145170820D01*
X110622803Y-145212671D01*
X108791996Y-143381865D01*
X108756449Y-143338551D01*
X108583623Y-143196716D01*
X108386447Y-143091324D01*
X108172499Y-143026423D01*
X108005752Y-143010000D01*
X108005751Y-143010000D01*
X107950000Y-143004509D01*
X107894249Y-143010000D01*
X101655751Y-143010000D01*
X101599999Y-143004509D01*
X101377500Y-143026423D01*
X101327705Y-143041529D01*
X101163553Y-143091324D01*
X100966377Y-143196716D01*
X100793551Y-143338551D01*
X100758009Y-143381859D01*
X94408012Y-149731857D01*
X94301717Y-149861378D01*
X94196324Y-150058554D01*
X94131423Y-150272502D01*
X94109509Y-150495000D01*
X86225000Y-150495000D01*
X86225000Y-147820000D01*
X95194249Y-147820000D01*
X95250000Y-147825491D01*
X95305751Y-147820000D01*
X95305752Y-147820000D01*
X95472499Y-147803577D01*
X95686447Y-147738676D01*
X95883623Y-147633284D01*
X96056449Y-147491449D01*
X96091996Y-147448135D01*
X101093141Y-142446991D01*
X101136449Y-142411449D01*
X101278284Y-142238623D01*
X101383676Y-142041447D01*
X101448577Y-141827499D01*
X101465000Y-141660752D01*
X101465000Y-141660751D01*
X101470491Y-141605000D01*
X101465000Y-141549249D01*
X101465000Y-136580752D01*
X101470491Y-136525000D01*
X101448577Y-136302501D01*
X101383676Y-136088553D01*
X101278284Y-135891377D01*
X101136449Y-135718551D01*
X100963623Y-135576716D01*
X100766447Y-135471324D01*
X100552499Y-135406423D01*
X100385752Y-135390000D01*
X100330000Y-135384509D01*
X100274249Y-135390000D01*
X100274248Y-135390000D01*
X100107501Y-135406423D01*
X99893553Y-135471324D01*
X99696377Y-135576716D01*
X99523551Y-135718551D01*
X99381716Y-135891377D01*
X99276324Y-136088553D01*
X99211423Y-136302501D01*
X99189509Y-136525000D01*
X99195001Y-136580762D01*
X99195000Y-141134868D01*
X96212107Y-144117761D01*
X96303676Y-143946447D01*
X96368577Y-143732499D01*
X96385000Y-143565752D01*
X96390491Y-143510000D01*
X96385000Y-143454248D01*
X96385000Y-139644248D01*
X96368577Y-139477501D01*
X96303676Y-139263553D01*
X96198284Y-139066377D01*
X96056449Y-138893551D01*
X95883623Y-138751716D01*
X95686446Y-138646324D01*
X95472498Y-138581423D01*
X95250000Y-138559509D01*
X95027501Y-138581423D01*
X94813553Y-138646324D01*
X94616377Y-138751716D01*
X94443551Y-138893551D01*
X94301716Y-139066377D01*
X94196324Y-139263554D01*
X94131423Y-139477502D01*
X94115000Y-139644249D01*
X94115001Y-143454238D01*
X94109509Y-143510000D01*
X94131423Y-143732499D01*
X94196324Y-143946447D01*
X94301716Y-144143623D01*
X94443551Y-144316449D01*
X94616377Y-144458284D01*
X94813553Y-144563676D01*
X95027501Y-144628577D01*
X95194248Y-144645000D01*
X95194249Y-144645000D01*
X95250000Y-144650491D01*
X95472499Y-144628577D01*
X95686447Y-144563676D01*
X95857762Y-144472107D01*
X94779869Y-145550000D01*
X85145752Y-145550000D01*
X85090000Y-145544509D01*
X85034249Y-145550000D01*
X85034248Y-145550000D01*
X84867501Y-145566423D01*
X84653553Y-145631324D01*
X84456377Y-145736716D01*
X84283551Y-145878551D01*
X84141716Y-146051377D01*
X84036324Y-146248553D01*
X83971423Y-146462501D01*
X83949509Y-146685000D01*
X40543072Y-146685000D01*
X40543072Y-145415000D01*
X40530812Y-145290518D01*
X40494502Y-145170820D01*
X40435537Y-145060506D01*
X40356185Y-144963815D01*
X40259494Y-144884463D01*
X40149180Y-144825498D01*
X40029482Y-144789188D01*
X39905000Y-144776928D01*
X32565000Y-144776928D01*
X32440518Y-144789188D01*
X32320820Y-144825498D01*
X32210506Y-144884463D01*
X32113815Y-144963815D01*
X32034463Y-145060506D01*
X31975498Y-145170820D01*
X31939188Y-145290518D01*
X31926928Y-145415000D01*
X31875000Y-145415000D01*
X31875000Y-144459801D01*
X35977241Y-140357560D01*
X45605000Y-140357560D01*
X45605000Y-140822440D01*
X45695694Y-141278387D01*
X45873595Y-141707879D01*
X46131868Y-142094412D01*
X46460588Y-142423132D01*
X46847121Y-142681405D01*
X47276613Y-142859306D01*
X47732560Y-142950000D01*
X48197440Y-142950000D01*
X48653387Y-142859306D01*
X49082879Y-142681405D01*
X49469412Y-142423132D01*
X49798132Y-142094412D01*
X50056405Y-141707879D01*
X50234306Y-141278387D01*
X50325000Y-140822440D01*
X50325000Y-140357560D01*
X50234306Y-139901613D01*
X50056405Y-139472121D01*
X49798132Y-139085588D01*
X49469412Y-138756868D01*
X49082879Y-138498595D01*
X48653387Y-138320694D01*
X48197440Y-138230000D01*
X47732560Y-138230000D01*
X47276613Y-138320694D01*
X46847121Y-138498595D01*
X46460588Y-138756868D01*
X46131868Y-139085588D01*
X45873595Y-139472121D01*
X45695694Y-139901613D01*
X45605000Y-140357560D01*
X35977241Y-140357560D01*
X38611003Y-137723799D01*
X38640001Y-137700001D01*
X38734974Y-137584276D01*
X38805546Y-137452247D01*
X38849003Y-137308986D01*
X38860000Y-137197333D01*
X38860000Y-137197325D01*
X38863676Y-137160000D01*
X38860000Y-137122675D01*
X38860000Y-135263178D01*
X39046632Y-135138475D01*
X39253475Y-134931632D01*
X39370000Y-134757240D01*
X39486525Y-134931632D01*
X39693368Y-135138475D01*
X39936589Y-135300990D01*
X40206842Y-135412932D01*
X40493740Y-135470000D01*
X40786260Y-135470000D01*
X41073158Y-135412932D01*
X41343411Y-135300990D01*
X41586632Y-135138475D01*
X41793475Y-134931632D01*
X41955990Y-134688411D01*
X42067932Y-134418158D01*
X42125000Y-134131260D01*
X42125000Y-133838740D01*
X42067932Y-133551842D01*
X41955990Y-133281589D01*
X41793475Y-133038368D01*
X41606392Y-132851285D01*
X41733386Y-132783405D01*
X41867962Y-132672962D01*
X41978405Y-132538386D01*
X42060472Y-132384850D01*
X42111008Y-132218254D01*
X42128072Y-132045000D01*
X42128072Y-131343061D01*
X46590000Y-131343061D01*
X46590000Y-131546939D01*
X46629774Y-131746898D01*
X46707795Y-131935256D01*
X46821063Y-132104774D01*
X46940001Y-132223712D01*
X46940000Y-134626289D01*
X46896063Y-134670226D01*
X46782795Y-134839744D01*
X46704774Y-135028102D01*
X46665000Y-135228061D01*
X46665000Y-135431939D01*
X46704774Y-135631898D01*
X46782795Y-135820256D01*
X46896063Y-135989774D01*
X47040226Y-136133937D01*
X47209744Y-136247205D01*
X47398102Y-136325226D01*
X47598061Y-136365000D01*
X47801939Y-136365000D01*
X48001898Y-136325226D01*
X48190256Y-136247205D01*
X48359774Y-136133937D01*
X48503937Y-135989774D01*
X48617205Y-135820256D01*
X48695226Y-135631898D01*
X48735000Y-135431939D01*
X48735000Y-135228061D01*
X48695226Y-135028102D01*
X48617205Y-134839744D01*
X48503937Y-134670226D01*
X48460000Y-134626289D01*
X48460000Y-132058285D01*
X48542205Y-131935256D01*
X48620226Y-131746898D01*
X48660000Y-131546939D01*
X48660000Y-131343061D01*
X48620226Y-131143102D01*
X48542205Y-130954744D01*
X48428937Y-130785226D01*
X48284774Y-130641063D01*
X48115256Y-130527795D01*
X47926898Y-130449774D01*
X47726939Y-130410000D01*
X47523061Y-130410000D01*
X47323102Y-130449774D01*
X47134744Y-130527795D01*
X46965226Y-130641063D01*
X46821063Y-130785226D01*
X46707795Y-130954744D01*
X46629774Y-131143102D01*
X46590000Y-131343061D01*
X42128072Y-131343061D01*
X42128072Y-130845000D01*
X42111008Y-130671746D01*
X42060472Y-130505150D01*
X41978405Y-130351614D01*
X41936047Y-130300000D01*
X51755199Y-130300000D01*
X57616928Y-136161730D01*
X57616928Y-137325000D01*
X57629188Y-137449482D01*
X57665498Y-137569180D01*
X57724463Y-137679494D01*
X57803815Y-137776185D01*
X57900506Y-137855537D01*
X58010820Y-137914502D01*
X58130518Y-137950812D01*
X58255000Y-137963072D01*
X59855000Y-137963072D01*
X59979482Y-137950812D01*
X60099180Y-137914502D01*
X60209494Y-137855537D01*
X60306185Y-137776185D01*
X60385537Y-137679494D01*
X60444502Y-137569180D01*
X60480812Y-137449482D01*
X60481643Y-137441039D01*
X60680241Y-137639637D01*
X60915273Y-137796680D01*
X61176426Y-137904853D01*
X61453665Y-137960000D01*
X61736335Y-137960000D01*
X62013574Y-137904853D01*
X62274727Y-137796680D01*
X62509759Y-137639637D01*
X62709637Y-137439759D01*
X62865000Y-137207241D01*
X63020363Y-137439759D01*
X63220241Y-137639637D01*
X63455273Y-137796680D01*
X63716426Y-137904853D01*
X63993665Y-137960000D01*
X64276335Y-137960000D01*
X64553574Y-137904853D01*
X64814727Y-137796680D01*
X65049759Y-137639637D01*
X65249637Y-137439759D01*
X65406680Y-137204727D01*
X65411067Y-137194135D01*
X65522615Y-137380131D01*
X65711586Y-137588519D01*
X65937580Y-137756037D01*
X66191913Y-137876246D01*
X66325961Y-137916904D01*
X66548000Y-137794915D01*
X66548000Y-136652000D01*
X66802000Y-136652000D01*
X66802000Y-137794915D01*
X67024039Y-137916904D01*
X67158087Y-137876246D01*
X67412420Y-137756037D01*
X67638414Y-137588519D01*
X67827385Y-137380131D01*
X67972070Y-137138881D01*
X68066909Y-136874040D01*
X67945624Y-136652000D01*
X66802000Y-136652000D01*
X66548000Y-136652000D01*
X66528000Y-136652000D01*
X66528000Y-136398000D01*
X66548000Y-136398000D01*
X66548000Y-135255085D01*
X66802000Y-135255085D01*
X66802000Y-136398000D01*
X67945624Y-136398000D01*
X68066909Y-136175960D01*
X67972070Y-135911119D01*
X67827385Y-135669869D01*
X67638414Y-135461481D01*
X67412420Y-135293963D01*
X67158087Y-135173754D01*
X67024039Y-135133096D01*
X66802000Y-135255085D01*
X66548000Y-135255085D01*
X66325961Y-135133096D01*
X66191913Y-135173754D01*
X65937580Y-135293963D01*
X65711586Y-135461481D01*
X65522615Y-135669869D01*
X65411067Y-135855865D01*
X65406680Y-135845273D01*
X65249637Y-135610241D01*
X65049759Y-135410363D01*
X64814727Y-135253320D01*
X64553574Y-135145147D01*
X64276335Y-135090000D01*
X63993665Y-135090000D01*
X63716426Y-135145147D01*
X63455273Y-135253320D01*
X63220241Y-135410363D01*
X63020363Y-135610241D01*
X62865000Y-135842759D01*
X62709637Y-135610241D01*
X62509759Y-135410363D01*
X62274727Y-135253320D01*
X62013574Y-135145147D01*
X61736335Y-135090000D01*
X61453665Y-135090000D01*
X61176426Y-135145147D01*
X60915273Y-135253320D01*
X60680241Y-135410363D01*
X60481643Y-135608961D01*
X60480812Y-135600518D01*
X60444502Y-135480820D01*
X60385537Y-135370506D01*
X60306185Y-135273815D01*
X60209494Y-135194463D01*
X60099180Y-135135498D01*
X59979482Y-135099188D01*
X59855000Y-135086928D01*
X58691730Y-135086928D01*
X56196283Y-132591481D01*
X117778124Y-132591481D01*
X118090308Y-133040177D01*
X118686259Y-133360612D01*
X119333273Y-133558626D01*
X120006484Y-133626610D01*
X120680023Y-133561949D01*
X121328006Y-133367130D01*
X121925530Y-133049639D01*
X121939692Y-133040177D01*
X122251876Y-132591481D01*
X120015000Y-130354605D01*
X117778124Y-132591481D01*
X56196283Y-132591481D01*
X52633804Y-129029003D01*
X52610001Y-128999999D01*
X52494276Y-128905026D01*
X52362247Y-128834454D01*
X52218986Y-128790997D01*
X52107333Y-128780000D01*
X52107322Y-128780000D01*
X52070000Y-128776324D01*
X52032678Y-128780000D01*
X37502323Y-128780000D01*
X37465000Y-128776324D01*
X37427677Y-128780000D01*
X37427667Y-128780000D01*
X37316014Y-128790997D01*
X37172753Y-128834454D01*
X37040724Y-128905026D01*
X36924999Y-128999999D01*
X36901201Y-129028997D01*
X35926408Y-130003791D01*
X35706260Y-129960000D01*
X35413740Y-129960000D01*
X35126842Y-130017068D01*
X34856589Y-130129010D01*
X34613368Y-130291525D01*
X34406525Y-130498368D01*
X34244010Y-130741589D01*
X34132068Y-131011842D01*
X34075000Y-131298740D01*
X34075000Y-131591260D01*
X34132068Y-131878158D01*
X34244010Y-132148411D01*
X34406525Y-132391632D01*
X34613368Y-132598475D01*
X34786729Y-132714311D01*
X34711208Y-132956603D01*
X35560000Y-133805395D01*
X36408792Y-132956603D01*
X36333271Y-132714311D01*
X36506632Y-132598475D01*
X36713475Y-132391632D01*
X36830000Y-132217240D01*
X36946525Y-132391632D01*
X37153368Y-132598475D01*
X37327760Y-132715000D01*
X37153368Y-132831525D01*
X36946525Y-133038368D01*
X36830689Y-133211729D01*
X36588397Y-133136208D01*
X35739605Y-133985000D01*
X36588397Y-134833792D01*
X36830689Y-134758271D01*
X36946525Y-134931632D01*
X37153368Y-135138475D01*
X37340000Y-135263179D01*
X37340001Y-136845197D01*
X30603998Y-143581201D01*
X30575000Y-143604999D01*
X30551202Y-143633997D01*
X30551201Y-143633998D01*
X30480026Y-143720724D01*
X30409454Y-143852754D01*
X30365998Y-143996015D01*
X30351324Y-144145000D01*
X26060000Y-144145000D01*
X26060000Y-135013397D01*
X34711208Y-135013397D01*
X34788843Y-135262472D01*
X35052883Y-135388371D01*
X35336411Y-135460339D01*
X35628531Y-135475611D01*
X35918019Y-135433599D01*
X36193747Y-135335919D01*
X36331157Y-135262472D01*
X36408792Y-135013397D01*
X35560000Y-134164605D01*
X34711208Y-135013397D01*
X26060000Y-135013397D01*
X26060000Y-134053531D01*
X34069389Y-134053531D01*
X34111401Y-134343019D01*
X34209081Y-134618747D01*
X34282528Y-134756157D01*
X34531603Y-134833792D01*
X35380395Y-133985000D01*
X34531603Y-133136208D01*
X34282528Y-133213843D01*
X34156629Y-133477883D01*
X34084661Y-133761411D01*
X34069389Y-134053531D01*
X26060000Y-134053531D01*
X26060000Y-132591481D01*
X28243124Y-132591481D01*
X28555308Y-133040177D01*
X29151259Y-133360612D01*
X29798273Y-133558626D01*
X30471484Y-133626610D01*
X31145023Y-133561949D01*
X31793006Y-133367130D01*
X32390530Y-133049639D01*
X32404692Y-133040177D01*
X32716876Y-132591481D01*
X30480000Y-130354605D01*
X28243124Y-132591481D01*
X26060000Y-132591481D01*
X26060000Y-130166484D01*
X27028390Y-130166484D01*
X27093051Y-130840023D01*
X27287870Y-131488006D01*
X27605361Y-132085530D01*
X27614823Y-132099692D01*
X28063519Y-132411876D01*
X30300395Y-130175000D01*
X30659605Y-130175000D01*
X32896481Y-132411876D01*
X33345177Y-132099692D01*
X33665612Y-131503741D01*
X33863626Y-130856727D01*
X33931610Y-130183516D01*
X33866949Y-129509977D01*
X33672130Y-128861994D01*
X33619884Y-128763665D01*
X57620000Y-128763665D01*
X57620000Y-129046335D01*
X57675147Y-129323574D01*
X57783320Y-129584727D01*
X57940363Y-129819759D01*
X58140241Y-130019637D01*
X58375273Y-130176680D01*
X58636426Y-130284853D01*
X58913665Y-130340000D01*
X59196335Y-130340000D01*
X59473574Y-130284853D01*
X59734727Y-130176680D01*
X59969759Y-130019637D01*
X60169637Y-129819759D01*
X60325000Y-129587241D01*
X60480363Y-129819759D01*
X60680241Y-130019637D01*
X60915273Y-130176680D01*
X61176426Y-130284853D01*
X61453665Y-130340000D01*
X61736335Y-130340000D01*
X62013574Y-130284853D01*
X62274727Y-130176680D01*
X62509759Y-130019637D01*
X62709637Y-129819759D01*
X62865000Y-129587241D01*
X63020363Y-129819759D01*
X63220241Y-130019637D01*
X63455273Y-130176680D01*
X63716426Y-130284853D01*
X63993665Y-130340000D01*
X64276335Y-130340000D01*
X64553574Y-130284853D01*
X64814727Y-130176680D01*
X65049759Y-130019637D01*
X65249637Y-129819759D01*
X65405000Y-129587241D01*
X65560363Y-129819759D01*
X65760241Y-130019637D01*
X65995273Y-130176680D01*
X66256426Y-130284853D01*
X66533665Y-130340000D01*
X66816335Y-130340000D01*
X67093574Y-130284853D01*
X67354727Y-130176680D01*
X67369986Y-130166484D01*
X116563390Y-130166484D01*
X116628051Y-130840023D01*
X116822870Y-131488006D01*
X117140361Y-132085530D01*
X117149823Y-132099692D01*
X117598519Y-132411876D01*
X119835395Y-130175000D01*
X120194605Y-130175000D01*
X122431481Y-132411876D01*
X122880177Y-132099692D01*
X123200612Y-131503741D01*
X123398626Y-130856727D01*
X123466610Y-130183516D01*
X123401949Y-129509977D01*
X123207130Y-128861994D01*
X122889639Y-128264470D01*
X122880177Y-128250308D01*
X122431481Y-127938124D01*
X120194605Y-130175000D01*
X119835395Y-130175000D01*
X117598519Y-127938124D01*
X117149823Y-128250308D01*
X116829388Y-128846259D01*
X116631374Y-129493273D01*
X116563390Y-130166484D01*
X67369986Y-130166484D01*
X67589759Y-130019637D01*
X67789637Y-129819759D01*
X67946680Y-129584727D01*
X68054853Y-129323574D01*
X68110000Y-129046335D01*
X68110000Y-128763665D01*
X68054853Y-128486426D01*
X67946680Y-128225273D01*
X67789637Y-127990241D01*
X67589759Y-127790363D01*
X67542101Y-127758519D01*
X117778124Y-127758519D01*
X120015000Y-129995395D01*
X122251876Y-127758519D01*
X121939692Y-127309823D01*
X121343741Y-126989388D01*
X120696727Y-126791374D01*
X120023516Y-126723390D01*
X119349977Y-126788051D01*
X118701994Y-126982870D01*
X118104470Y-127300361D01*
X118090308Y-127309823D01*
X117778124Y-127758519D01*
X67542101Y-127758519D01*
X67354727Y-127633320D01*
X67093574Y-127525147D01*
X66816335Y-127470000D01*
X66533665Y-127470000D01*
X66256426Y-127525147D01*
X65995273Y-127633320D01*
X65760241Y-127790363D01*
X65560363Y-127990241D01*
X65405000Y-128222759D01*
X65249637Y-127990241D01*
X65049759Y-127790363D01*
X64814727Y-127633320D01*
X64553574Y-127525147D01*
X64276335Y-127470000D01*
X63993665Y-127470000D01*
X63716426Y-127525147D01*
X63455273Y-127633320D01*
X63220241Y-127790363D01*
X63020363Y-127990241D01*
X62865000Y-128222759D01*
X62709637Y-127990241D01*
X62509759Y-127790363D01*
X62274727Y-127633320D01*
X62013574Y-127525147D01*
X61736335Y-127470000D01*
X61453665Y-127470000D01*
X61176426Y-127525147D01*
X60915273Y-127633320D01*
X60680241Y-127790363D01*
X60480363Y-127990241D01*
X60325000Y-128222759D01*
X60169637Y-127990241D01*
X59969759Y-127790363D01*
X59734727Y-127633320D01*
X59473574Y-127525147D01*
X59196335Y-127470000D01*
X58913665Y-127470000D01*
X58636426Y-127525147D01*
X58375273Y-127633320D01*
X58140241Y-127790363D01*
X57940363Y-127990241D01*
X57783320Y-128225273D01*
X57675147Y-128486426D01*
X57620000Y-128763665D01*
X33619884Y-128763665D01*
X33354639Y-128264470D01*
X33345177Y-128250308D01*
X32896481Y-127938124D01*
X30659605Y-130175000D01*
X30300395Y-130175000D01*
X28063519Y-127938124D01*
X27614823Y-128250308D01*
X27294388Y-128846259D01*
X27096374Y-129493273D01*
X27028390Y-130166484D01*
X26060000Y-130166484D01*
X26060000Y-127758519D01*
X28243124Y-127758519D01*
X30480000Y-129995395D01*
X32716876Y-127758519D01*
X32404692Y-127309823D01*
X31808741Y-126989388D01*
X31161727Y-126791374D01*
X30488516Y-126723390D01*
X29814977Y-126788051D01*
X29166994Y-126982870D01*
X28569470Y-127300361D01*
X28555308Y-127309823D01*
X28243124Y-127758519D01*
X26060000Y-127758519D01*
X26060000Y-125755000D01*
X124435000Y-125755000D01*
X124435001Y-164440000D01*
G37*
%TD.AperFunction*%
%TD*%
M02*
