%TF.GenerationSoftware,KiCad,Pcbnew,(5.1.7)-1*%
%TF.CreationDate,2020-11-19T15:51:39+01:00*%
%TF.ProjectId,Notifier,4e6f7469-6669-4657-922e-6b696361645f,rev?*%
%TF.SameCoordinates,Original*%
%TF.FileFunction,Paste,Top*%
%TF.FilePolarity,Positive*%
%FSLAX46Y46*%
G04 Gerber Fmt 4.6, Leading zero omitted, Abs format (unit mm)*
G04 Created by KiCad (PCBNEW (5.1.7)-1) date 2020-11-19 15:51:39*
%MOMM*%
%LPD*%
G01*
G04 APERTURE LIST*
%ADD10R,1.000000X1.500000*%
%ADD11R,1.800000X1.100000*%
G04 APERTURE END LIST*
%TO.C,C1*%
G36*
G01*
X53180000Y-134490000D02*
X52230000Y-134490000D01*
G75*
G02*
X51980000Y-134240000I0J250000D01*
G01*
X51980000Y-133740000D01*
G75*
G02*
X52230000Y-133490000I250000J0D01*
G01*
X53180000Y-133490000D01*
G75*
G02*
X53430000Y-133740000I0J-250000D01*
G01*
X53430000Y-134240000D01*
G75*
G02*
X53180000Y-134490000I-250000J0D01*
G01*
G37*
G36*
G01*
X53180000Y-136390000D02*
X52230000Y-136390000D01*
G75*
G02*
X51980000Y-136140000I0J250000D01*
G01*
X51980000Y-135640000D01*
G75*
G02*
X52230000Y-135390000I250000J0D01*
G01*
X53180000Y-135390000D01*
G75*
G02*
X53430000Y-135640000I0J-250000D01*
G01*
X53430000Y-136140000D01*
G75*
G02*
X53180000Y-136390000I-250000J0D01*
G01*
G37*
%TD*%
D10*
%TO.C,D1*%
X92405000Y-134075000D03*
X90805000Y-134075000D03*
X89205000Y-134075000D03*
X92405000Y-138975000D03*
X90805000Y-138975000D03*
X89205000Y-138975000D03*
%TD*%
%TO.C,D4*%
X108255000Y-156120000D03*
X109855000Y-156120000D03*
X111455000Y-156120000D03*
X108255000Y-151220000D03*
X109855000Y-151220000D03*
X111455000Y-151220000D03*
%TD*%
%TO.C,D2*%
X89205000Y-156120000D03*
X90805000Y-156120000D03*
X92405000Y-156120000D03*
X89205000Y-151220000D03*
X90805000Y-151220000D03*
X92405000Y-151220000D03*
%TD*%
%TO.C,D3*%
X111455000Y-134075000D03*
X109855000Y-134075000D03*
X108255000Y-134075000D03*
X111455000Y-138975000D03*
X109855000Y-138975000D03*
X108255000Y-138975000D03*
%TD*%
D11*
%TO.C,SW1*%
X53900000Y-148290000D03*
X47700000Y-148290000D03*
X53900000Y-144590000D03*
X47700000Y-144590000D03*
%TD*%
%TO.C,R_red*%
G36*
G01*
X81515000Y-141154999D02*
X81515000Y-142055001D01*
G75*
G02*
X81265001Y-142305000I-249999J0D01*
G01*
X80739999Y-142305000D01*
G75*
G02*
X80490000Y-142055001I0J249999D01*
G01*
X80490000Y-141154999D01*
G75*
G02*
X80739999Y-140905000I249999J0D01*
G01*
X81265001Y-140905000D01*
G75*
G02*
X81515000Y-141154999I0J-249999D01*
G01*
G37*
G36*
G01*
X83340000Y-141154999D02*
X83340000Y-142055001D01*
G75*
G02*
X83090001Y-142305000I-249999J0D01*
G01*
X82564999Y-142305000D01*
G75*
G02*
X82315000Y-142055001I0J249999D01*
G01*
X82315000Y-141154999D01*
G75*
G02*
X82564999Y-140905000I249999J0D01*
G01*
X83090001Y-140905000D01*
G75*
G02*
X83340000Y-141154999I0J-249999D01*
G01*
G37*
%TD*%
%TO.C,R_pu*%
G36*
G01*
X56240000Y-135045000D02*
X56790000Y-135045000D01*
G75*
G02*
X56990000Y-135245000I0J-200000D01*
G01*
X56990000Y-135645000D01*
G75*
G02*
X56790000Y-135845000I-200000J0D01*
G01*
X56240000Y-135845000D01*
G75*
G02*
X56040000Y-135645000I0J200000D01*
G01*
X56040000Y-135245000D01*
G75*
G02*
X56240000Y-135045000I200000J0D01*
G01*
G37*
G36*
G01*
X56240000Y-133395000D02*
X56790000Y-133395000D01*
G75*
G02*
X56990000Y-133595000I0J-200000D01*
G01*
X56990000Y-133995000D01*
G75*
G02*
X56790000Y-134195000I-200000J0D01*
G01*
X56240000Y-134195000D01*
G75*
G02*
X56040000Y-133995000I0J200000D01*
G01*
X56040000Y-133595000D01*
G75*
G02*
X56240000Y-133395000I200000J0D01*
G01*
G37*
%TD*%
%TO.C,R_pd*%
G36*
G01*
X43540000Y-145840000D02*
X44090000Y-145840000D01*
G75*
G02*
X44290000Y-146040000I0J-200000D01*
G01*
X44290000Y-146440000D01*
G75*
G02*
X44090000Y-146640000I-200000J0D01*
G01*
X43540000Y-146640000D01*
G75*
G02*
X43340000Y-146440000I0J200000D01*
G01*
X43340000Y-146040000D01*
G75*
G02*
X43540000Y-145840000I200000J0D01*
G01*
G37*
G36*
G01*
X43540000Y-144190000D02*
X44090000Y-144190000D01*
G75*
G02*
X44290000Y-144390000I0J-200000D01*
G01*
X44290000Y-144790000D01*
G75*
G02*
X44090000Y-144990000I-200000J0D01*
G01*
X43540000Y-144990000D01*
G75*
G02*
X43340000Y-144790000I0J200000D01*
G01*
X43340000Y-144390000D01*
G75*
G02*
X43540000Y-144190000I200000J0D01*
G01*
G37*
%TD*%
%TO.C,R_green*%
G36*
G01*
X81515000Y-144647499D02*
X81515000Y-145547501D01*
G75*
G02*
X81265001Y-145797500I-249999J0D01*
G01*
X80739999Y-145797500D01*
G75*
G02*
X80490000Y-145547501I0J249999D01*
G01*
X80490000Y-144647499D01*
G75*
G02*
X80739999Y-144397500I249999J0D01*
G01*
X81265001Y-144397500D01*
G75*
G02*
X81515000Y-144647499I0J-249999D01*
G01*
G37*
G36*
G01*
X83340000Y-144647499D02*
X83340000Y-145547501D01*
G75*
G02*
X83090001Y-145797500I-249999J0D01*
G01*
X82564999Y-145797500D01*
G75*
G02*
X82315000Y-145547501I0J249999D01*
G01*
X82315000Y-144647499D01*
G75*
G02*
X82564999Y-144397500I249999J0D01*
G01*
X83090001Y-144397500D01*
G75*
G02*
X83340000Y-144647499I0J-249999D01*
G01*
G37*
%TD*%
%TO.C,R_blue*%
G36*
G01*
X81515000Y-148139999D02*
X81515000Y-149040001D01*
G75*
G02*
X81265001Y-149290000I-249999J0D01*
G01*
X80739999Y-149290000D01*
G75*
G02*
X80490000Y-149040001I0J249999D01*
G01*
X80490000Y-148139999D01*
G75*
G02*
X80739999Y-147890000I249999J0D01*
G01*
X81265001Y-147890000D01*
G75*
G02*
X81515000Y-148139999I0J-249999D01*
G01*
G37*
G36*
G01*
X83340000Y-148139999D02*
X83340000Y-149040001D01*
G75*
G02*
X83090001Y-149290000I-249999J0D01*
G01*
X82564999Y-149290000D01*
G75*
G02*
X82315000Y-149040001I0J249999D01*
G01*
X82315000Y-148139999D01*
G75*
G02*
X82564999Y-147890000I249999J0D01*
G01*
X83090001Y-147890000D01*
G75*
G02*
X83340000Y-148139999I0J-249999D01*
G01*
G37*
%TD*%
%TO.C,C2*%
G36*
G01*
X36670000Y-156395000D02*
X35720000Y-156395000D01*
G75*
G02*
X35470000Y-156145000I0J250000D01*
G01*
X35470000Y-155645000D01*
G75*
G02*
X35720000Y-155395000I250000J0D01*
G01*
X36670000Y-155395000D01*
G75*
G02*
X36920000Y-155645000I0J-250000D01*
G01*
X36920000Y-156145000D01*
G75*
G02*
X36670000Y-156395000I-250000J0D01*
G01*
G37*
G36*
G01*
X36670000Y-158295000D02*
X35720000Y-158295000D01*
G75*
G02*
X35470000Y-158045000I0J250000D01*
G01*
X35470000Y-157545000D01*
G75*
G02*
X35720000Y-157295000I250000J0D01*
G01*
X36670000Y-157295000D01*
G75*
G02*
X36920000Y-157545000I0J-250000D01*
G01*
X36920000Y-158045000D01*
G75*
G02*
X36670000Y-158295000I-250000J0D01*
G01*
G37*
%TD*%
M02*
