M48
; DRILL file {KiCad (5.1.7)-1} date 11/19/20 15:51:41
; FORMAT={-:-/ absolute / metric / decimal}
; #@! TF.CreationDate,2020-11-19T15:51:41+01:00
; #@! TF.GenerationSoftware,Kicad,Pcbnew,(5.1.7)-1
; #@! TF.FileFunction,Plated,1,2,PTH
FMAT,2
METRIC
T1C0.400
T2C0.800
T3C0.900
T4C1.000
T5C1.500
T6C3.200
%
G90
G05
T1
X32.385Y-135.89
X32.385Y-137.16
X33.655Y-135.89
X33.655Y-137.16
X47.625Y-131.445
X47.7Y-135.33
X52.07Y-160.655
X52.07Y-161.925
X53.34Y-160.655
X53.34Y-161.925
X66.675Y-139.7
X66.675Y-140.97
X67.945Y-139.7
X67.945Y-140.97
X78.105Y-151.765
X78.105Y-153.035
X79.375Y-151.765
X79.375Y-153.035
X82.55Y-135.89
X82.55Y-137.16
X83.82Y-135.89
X83.82Y-137.16
X85.09Y-146.685
X85.09Y-150.495
X95.25Y-139.7
X95.25Y-143.51
X95.25Y-150.495
X100.33Y-136.525
X107.95Y-144.145
X109.855Y-146.05
X113.03Y-160.02
X113.03Y-161.29
X114.3Y-160.02
X114.3Y-161.29
T2
X59.055Y-128.905
X59.055Y-136.525
X61.595Y-128.905
X61.595Y-136.525
X64.135Y-128.905
X64.135Y-136.525
X66.675Y-128.905
X66.675Y-136.525
T3
X60.96Y-161.925
X62.96Y-161.925
X64.96Y-161.925
X36.195Y-160.655
X38.735Y-160.655
X41.275Y-160.655
T4
X35.56Y-131.445
X35.56Y-133.985
X38.1Y-131.445
X38.1Y-133.985
X40.64Y-131.445
X40.64Y-133.985
T5
X58.86Y-161.925
X67.06Y-161.925
T6
X30.48Y-130.175
X30.48Y-160.02
X120.015Y-160.02
X120.015Y-130.175
T0
M30
