%TF.GenerationSoftware,KiCad,Pcbnew,(5.1.7)-1*%
%TF.CreationDate,2020-11-19T15:51:39+01:00*%
%TF.ProjectId,Notifier,4e6f7469-6669-4657-922e-6b696361645f,rev?*%
%TF.SameCoordinates,Original*%
%TF.FileFunction,Legend,Bot*%
%TF.FilePolarity,Positive*%
%FSLAX46Y46*%
G04 Gerber Fmt 4.6, Leading zero omitted, Abs format (unit mm)*
G04 Created by KiCad (PCBNEW (5.1.7)-1) date 2020-11-19 15:51:39*
%MOMM*%
%LPD*%
G01*
G04 APERTURE LIST*
%ADD10C,0.150000*%
%ADD11C,0.120000*%
G04 APERTURE END LIST*
D10*
X99850714Y-133619761D02*
X99850714Y-131619761D01*
X99088809Y-131619761D01*
X98898333Y-131715000D01*
X98803095Y-131810238D01*
X98707857Y-132000714D01*
X98707857Y-132286428D01*
X98803095Y-132476904D01*
X98898333Y-132572142D01*
X99088809Y-132667380D01*
X99850714Y-132667380D01*
X96707857Y-133429285D02*
X96803095Y-133524523D01*
X97088809Y-133619761D01*
X97279285Y-133619761D01*
X97565000Y-133524523D01*
X97755476Y-133334047D01*
X97850714Y-133143571D01*
X97945952Y-132762619D01*
X97945952Y-132476904D01*
X97850714Y-132095952D01*
X97755476Y-131905476D01*
X97565000Y-131715000D01*
X97279285Y-131619761D01*
X97088809Y-131619761D01*
X96803095Y-131715000D01*
X96707857Y-131810238D01*
X95184047Y-132572142D02*
X94898333Y-132667380D01*
X94803095Y-132762619D01*
X94707857Y-132953095D01*
X94707857Y-133238809D01*
X94803095Y-133429285D01*
X94898333Y-133524523D01*
X95088809Y-133619761D01*
X95850714Y-133619761D01*
X95850714Y-131619761D01*
X95184047Y-131619761D01*
X94993571Y-131715000D01*
X94898333Y-131810238D01*
X94803095Y-132000714D01*
X94803095Y-132191190D01*
X94898333Y-132381666D01*
X94993571Y-132476904D01*
X95184047Y-132572142D01*
X95850714Y-132572142D01*
X92326904Y-133619761D02*
X92326904Y-131619761D01*
X91850714Y-131619761D01*
X91565000Y-131715000D01*
X91374523Y-131905476D01*
X91279285Y-132095952D01*
X91184047Y-132476904D01*
X91184047Y-132762619D01*
X91279285Y-133143571D01*
X91374523Y-133334047D01*
X91565000Y-133524523D01*
X91850714Y-133619761D01*
X92326904Y-133619761D01*
X89565000Y-133524523D02*
X89755476Y-133619761D01*
X90136428Y-133619761D01*
X90326904Y-133524523D01*
X90422142Y-133334047D01*
X90422142Y-132572142D01*
X90326904Y-132381666D01*
X90136428Y-132286428D01*
X89755476Y-132286428D01*
X89565000Y-132381666D01*
X89469761Y-132572142D01*
X89469761Y-132762619D01*
X90422142Y-132953095D01*
X88707857Y-133524523D02*
X88517380Y-133619761D01*
X88136428Y-133619761D01*
X87945952Y-133524523D01*
X87850714Y-133334047D01*
X87850714Y-133238809D01*
X87945952Y-133048333D01*
X88136428Y-132953095D01*
X88422142Y-132953095D01*
X88612619Y-132857857D01*
X88707857Y-132667380D01*
X88707857Y-132572142D01*
X88612619Y-132381666D01*
X88422142Y-132286428D01*
X88136428Y-132286428D01*
X87945952Y-132381666D01*
X86993571Y-133619761D02*
X86993571Y-132286428D01*
X86993571Y-131619761D02*
X87088809Y-131715000D01*
X86993571Y-131810238D01*
X86898333Y-131715000D01*
X86993571Y-131619761D01*
X86993571Y-131810238D01*
X85184047Y-132286428D02*
X85184047Y-133905476D01*
X85279285Y-134095952D01*
X85374523Y-134191190D01*
X85565000Y-134286428D01*
X85850714Y-134286428D01*
X86041190Y-134191190D01*
X85184047Y-133524523D02*
X85374523Y-133619761D01*
X85755476Y-133619761D01*
X85945952Y-133524523D01*
X86041190Y-133429285D01*
X86136428Y-133238809D01*
X86136428Y-132667380D01*
X86041190Y-132476904D01*
X85945952Y-132381666D01*
X85755476Y-132286428D01*
X85374523Y-132286428D01*
X85184047Y-132381666D01*
X84231666Y-132286428D02*
X84231666Y-133619761D01*
X84231666Y-132476904D02*
X84136428Y-132381666D01*
X83945952Y-132286428D01*
X83660238Y-132286428D01*
X83469761Y-132381666D01*
X83374523Y-132572142D01*
X83374523Y-133619761D01*
X81660238Y-133524523D02*
X81850714Y-133619761D01*
X82231666Y-133619761D01*
X82422142Y-133524523D01*
X82517380Y-133334047D01*
X82517380Y-132572142D01*
X82422142Y-132381666D01*
X82231666Y-132286428D01*
X81850714Y-132286428D01*
X81660238Y-132381666D01*
X81565000Y-132572142D01*
X81565000Y-132762619D01*
X82517380Y-132953095D01*
X79850714Y-133619761D02*
X79850714Y-131619761D01*
X79850714Y-133524523D02*
X80041190Y-133619761D01*
X80422142Y-133619761D01*
X80612619Y-133524523D01*
X80707857Y-133429285D01*
X80803095Y-133238809D01*
X80803095Y-132667380D01*
X80707857Y-132476904D01*
X80612619Y-132381666D01*
X80422142Y-132286428D01*
X80041190Y-132286428D01*
X79850714Y-132381666D01*
X77374523Y-133619761D02*
X77374523Y-131619761D01*
X77374523Y-132381666D02*
X77184047Y-132286428D01*
X76803095Y-132286428D01*
X76612619Y-132381666D01*
X76517380Y-132476904D01*
X76422142Y-132667380D01*
X76422142Y-133238809D01*
X76517380Y-133429285D01*
X76612619Y-133524523D01*
X76803095Y-133619761D01*
X77184047Y-133619761D01*
X77374523Y-133524523D01*
X75755476Y-132286428D02*
X75279285Y-133619761D01*
X74803095Y-132286428D02*
X75279285Y-133619761D01*
X75469761Y-134095952D01*
X75565000Y-134191190D01*
X75755476Y-134286428D01*
X72612619Y-133048333D02*
X71660238Y-133048333D01*
X72803095Y-133619761D02*
X72136428Y-131619761D01*
X71469761Y-133619761D01*
X70517380Y-133619761D02*
X70707857Y-133524523D01*
X70803095Y-133334047D01*
X70803095Y-131619761D01*
X69755476Y-133619761D02*
X69755476Y-132286428D01*
X69755476Y-132476904D02*
X69660238Y-132381666D01*
X69469761Y-132286428D01*
X69184047Y-132286428D01*
X68993571Y-132381666D01*
X68898333Y-132572142D01*
X68898333Y-133619761D01*
X68898333Y-132572142D02*
X68803095Y-132381666D01*
X68612619Y-132286428D01*
X68326904Y-132286428D01*
X68136428Y-132381666D01*
X68041190Y-132572142D01*
X68041190Y-133619761D01*
X66326904Y-133524523D02*
X66517380Y-133619761D01*
X66898333Y-133619761D01*
X67088809Y-133524523D01*
X67184047Y-133334047D01*
X67184047Y-132572142D01*
X67088809Y-132381666D01*
X66898333Y-132286428D01*
X66517380Y-132286428D01*
X66326904Y-132381666D01*
X66231666Y-132572142D01*
X66231666Y-132762619D01*
X67184047Y-132953095D01*
X65374523Y-133619761D02*
X65374523Y-132286428D01*
X65374523Y-132667380D02*
X65279285Y-132476904D01*
X65184047Y-132381666D01*
X64993571Y-132286428D01*
X64803095Y-132286428D01*
X61755476Y-133619761D02*
X61755476Y-131619761D01*
X61755476Y-133524523D02*
X61945952Y-133619761D01*
X62326904Y-133619761D01*
X62517380Y-133524523D01*
X62612619Y-133429285D01*
X62707857Y-133238809D01*
X62707857Y-132667380D01*
X62612619Y-132476904D01*
X62517380Y-132381666D01*
X62326904Y-132286428D01*
X61945952Y-132286428D01*
X61755476Y-132381666D01*
X60041190Y-133524523D02*
X60231666Y-133619761D01*
X60612619Y-133619761D01*
X60803095Y-133524523D01*
X60898333Y-133334047D01*
X60898333Y-132572142D01*
X60803095Y-132381666D01*
X60612619Y-132286428D01*
X60231666Y-132286428D01*
X60041190Y-132381666D01*
X59945952Y-132572142D01*
X59945952Y-132762619D01*
X60898333Y-132953095D01*
X57850714Y-131619761D02*
X57184047Y-133619761D01*
X56517380Y-131619761D01*
X55850714Y-133619761D02*
X55850714Y-132286428D01*
X55850714Y-132667380D02*
X55755476Y-132476904D01*
X55660238Y-132381666D01*
X55469761Y-132286428D01*
X55279285Y-132286428D01*
X54612619Y-133619761D02*
X54612619Y-132286428D01*
X54612619Y-131619761D02*
X54707857Y-131715000D01*
X54612619Y-131810238D01*
X54517380Y-131715000D01*
X54612619Y-131619761D01*
X54612619Y-131810238D01*
X52898333Y-133524523D02*
X53088809Y-133619761D01*
X53469761Y-133619761D01*
X53660238Y-133524523D01*
X53755476Y-133334047D01*
X53755476Y-132572142D01*
X53660238Y-132381666D01*
X53469761Y-132286428D01*
X53088809Y-132286428D01*
X52898333Y-132381666D01*
X52803095Y-132572142D01*
X52803095Y-132762619D01*
X53755476Y-132953095D01*
X52041190Y-133524523D02*
X51850714Y-133619761D01*
X51469761Y-133619761D01*
X51279285Y-133524523D01*
X51184047Y-133334047D01*
X51184047Y-133238809D01*
X51279285Y-133048333D01*
X51469761Y-132953095D01*
X51755476Y-132953095D01*
X51945952Y-132857857D01*
X52041190Y-132667380D01*
X52041190Y-132572142D01*
X51945952Y-132381666D01*
X51755476Y-132286428D01*
X51469761Y-132286428D01*
X51279285Y-132381666D01*
D11*
%TO.C,J1*%
X33065000Y-153340000D02*
X33065000Y-155840000D01*
X31815000Y-154590000D02*
X34315000Y-154590000D01*
X119315000Y-154590000D02*
X116815000Y-154590000D01*
X114205000Y-152030000D02*
X114205000Y-159010000D01*
X114205000Y-159030000D02*
X36925000Y-159030000D01*
X36925000Y-159030000D02*
X36925000Y-152030000D01*
X114205000Y-145150000D02*
X114205000Y-138150000D01*
X114205000Y-138150000D02*
X36925000Y-138150000D01*
X36925000Y-138150000D02*
X36925000Y-145150000D01*
X36925000Y-152030000D02*
X32565000Y-152030000D01*
D10*
X75898333Y-159542380D02*
X75898333Y-160256666D01*
X75945952Y-160399523D01*
X76041190Y-160494761D01*
X76184047Y-160542380D01*
X76279285Y-160542380D01*
X74898333Y-160542380D02*
X75469761Y-160542380D01*
X75184047Y-160542380D02*
X75184047Y-159542380D01*
X75279285Y-159685238D01*
X75374523Y-159780476D01*
X75469761Y-159828095D01*
%TD*%
M02*
