%TF.GenerationSoftware,KiCad,Pcbnew,(5.1.7)-1*%
%TF.CreationDate,2020-11-19T15:51:39+01:00*%
%TF.ProjectId,Notifier,4e6f7469-6669-4657-922e-6b696361645f,rev?*%
%TF.SameCoordinates,Original*%
%TF.FileFunction,Legend,Top*%
%TF.FilePolarity,Positive*%
%FSLAX46Y46*%
G04 Gerber Fmt 4.6, Leading zero omitted, Abs format (unit mm)*
G04 Created by KiCad (PCBNEW (5.1.7)-1) date 2020-11-19 15:51:39*
%MOMM*%
%LPD*%
G01*
G04 APERTURE LIST*
%ADD10C,0.150000*%
%ADD11C,0.010000*%
%ADD12C,0.120000*%
G04 APERTURE END LIST*
D10*
X91155476Y-127809761D02*
X91536428Y-127809761D01*
X91726904Y-127905000D01*
X91917380Y-128095476D01*
X92012619Y-128476428D01*
X92012619Y-129143095D01*
X91917380Y-129524047D01*
X91726904Y-129714523D01*
X91536428Y-129809761D01*
X91155476Y-129809761D01*
X90965000Y-129714523D01*
X90774523Y-129524047D01*
X90679285Y-129143095D01*
X90679285Y-128476428D01*
X90774523Y-128095476D01*
X90965000Y-127905000D01*
X91155476Y-127809761D01*
X92584047Y-128476428D02*
X93345952Y-128476428D01*
X92869761Y-129809761D02*
X92869761Y-128095476D01*
X92965000Y-127905000D01*
X93155476Y-127809761D01*
X93345952Y-127809761D01*
X93726904Y-128476428D02*
X94488809Y-128476428D01*
X94012619Y-129809761D02*
X94012619Y-128095476D01*
X94107857Y-127905000D01*
X94298333Y-127809761D01*
X94488809Y-127809761D01*
X95155476Y-129809761D02*
X95155476Y-128476428D01*
X95155476Y-127809761D02*
X95060238Y-127905000D01*
X95155476Y-128000238D01*
X95250714Y-127905000D01*
X95155476Y-127809761D01*
X95155476Y-128000238D01*
X96965000Y-129714523D02*
X96774523Y-129809761D01*
X96393571Y-129809761D01*
X96203095Y-129714523D01*
X96107857Y-129619285D01*
X96012619Y-129428809D01*
X96012619Y-128857380D01*
X96107857Y-128666904D01*
X96203095Y-128571666D01*
X96393571Y-128476428D01*
X96774523Y-128476428D01*
X96965000Y-128571666D01*
X98584047Y-129714523D02*
X98393571Y-129809761D01*
X98012619Y-129809761D01*
X97822142Y-129714523D01*
X97726904Y-129524047D01*
X97726904Y-128762142D01*
X97822142Y-128571666D01*
X98012619Y-128476428D01*
X98393571Y-128476428D01*
X98584047Y-128571666D01*
X98679285Y-128762142D01*
X98679285Y-128952619D01*
X97726904Y-129143095D01*
X101060238Y-129809761D02*
X101060238Y-127809761D01*
X102203095Y-129809761D01*
X102203095Y-127809761D01*
X103441190Y-129809761D02*
X103250714Y-129714523D01*
X103155476Y-129619285D01*
X103060238Y-129428809D01*
X103060238Y-128857380D01*
X103155476Y-128666904D01*
X103250714Y-128571666D01*
X103441190Y-128476428D01*
X103726904Y-128476428D01*
X103917380Y-128571666D01*
X104012619Y-128666904D01*
X104107857Y-128857380D01*
X104107857Y-129428809D01*
X104012619Y-129619285D01*
X103917380Y-129714523D01*
X103726904Y-129809761D01*
X103441190Y-129809761D01*
X104679285Y-128476428D02*
X105441190Y-128476428D01*
X104965000Y-127809761D02*
X104965000Y-129524047D01*
X105060238Y-129714523D01*
X105250714Y-129809761D01*
X105441190Y-129809761D01*
X106107857Y-129809761D02*
X106107857Y-128476428D01*
X106107857Y-127809761D02*
X106012619Y-127905000D01*
X106107857Y-128000238D01*
X106203095Y-127905000D01*
X106107857Y-127809761D01*
X106107857Y-128000238D01*
X106774523Y-128476428D02*
X107536428Y-128476428D01*
X107060238Y-129809761D02*
X107060238Y-128095476D01*
X107155476Y-127905000D01*
X107345952Y-127809761D01*
X107536428Y-127809761D01*
X108203095Y-129809761D02*
X108203095Y-128476428D01*
X108203095Y-127809761D02*
X108107857Y-127905000D01*
X108203095Y-128000238D01*
X108298333Y-127905000D01*
X108203095Y-127809761D01*
X108203095Y-128000238D01*
X109917380Y-129714523D02*
X109726904Y-129809761D01*
X109345952Y-129809761D01*
X109155476Y-129714523D01*
X109060238Y-129524047D01*
X109060238Y-128762142D01*
X109155476Y-128571666D01*
X109345952Y-128476428D01*
X109726904Y-128476428D01*
X109917380Y-128571666D01*
X110012619Y-128762142D01*
X110012619Y-128952619D01*
X109060238Y-129143095D01*
X110869761Y-129809761D02*
X110869761Y-128476428D01*
X110869761Y-128857380D02*
X110964999Y-128666904D01*
X111060238Y-128571666D01*
X111250714Y-128476428D01*
X111441190Y-128476428D01*
D11*
%TO.C,FID1*%
G36*
X64463085Y-140221671D02*
G01*
X64509129Y-140296491D01*
X64580067Y-140415028D01*
X64672991Y-140572237D01*
X64784992Y-140763076D01*
X64913162Y-140982501D01*
X65054592Y-141225469D01*
X65206373Y-141486937D01*
X65365597Y-141761860D01*
X65529356Y-142045197D01*
X65694740Y-142331902D01*
X65858842Y-142616934D01*
X66018752Y-142895248D01*
X66171562Y-143161802D01*
X66314363Y-143411552D01*
X66444247Y-143639455D01*
X66558305Y-143840466D01*
X66653629Y-144009544D01*
X66727310Y-144141645D01*
X66776439Y-144231724D01*
X66798108Y-144274740D01*
X66798902Y-144277429D01*
X66772002Y-144313930D01*
X66697227Y-144369764D01*
X66583470Y-144439450D01*
X66439623Y-144517509D01*
X66289029Y-144591687D01*
X66084119Y-144681635D01*
X65868633Y-144762453D01*
X65635146Y-144835938D01*
X65376236Y-144903884D01*
X65084479Y-144968088D01*
X64752451Y-145030346D01*
X64372731Y-145092454D01*
X63979937Y-145150290D01*
X63638668Y-145201600D01*
X63352090Y-145252397D01*
X63113015Y-145305204D01*
X62914259Y-145362546D01*
X62748635Y-145426947D01*
X62608956Y-145500931D01*
X62488036Y-145587024D01*
X62378689Y-145687750D01*
X62343428Y-145725167D01*
X62267000Y-145812279D01*
X62210463Y-145883364D01*
X62184235Y-145925167D01*
X62183536Y-145928594D01*
X62174360Y-145949612D01*
X62142515Y-145949849D01*
X62081531Y-145926509D01*
X61984935Y-145876793D01*
X61846254Y-145797905D01*
X61749878Y-145741175D01*
X61606166Y-145652494D01*
X61494483Y-145576559D01*
X61422334Y-145518832D01*
X61397226Y-145484776D01*
X61397241Y-145484529D01*
X61412811Y-145452075D01*
X61456783Y-145370800D01*
X61526605Y-145245134D01*
X61619725Y-145079505D01*
X61733589Y-144878344D01*
X61865646Y-144646080D01*
X62013343Y-144387143D01*
X62174128Y-144105961D01*
X62345448Y-143806965D01*
X62524751Y-143494584D01*
X62709485Y-143173248D01*
X62897098Y-142847386D01*
X63085036Y-142521427D01*
X63270747Y-142199801D01*
X63451680Y-141886937D01*
X63625281Y-141587266D01*
X63788999Y-141305216D01*
X63940281Y-141045218D01*
X64076574Y-140811699D01*
X64195326Y-140609091D01*
X64293985Y-140441823D01*
X64369999Y-140314324D01*
X64420814Y-140231023D01*
X64443879Y-140196350D01*
X64444845Y-140195610D01*
X64463085Y-140221671D01*
G37*
X64463085Y-140221671D02*
X64509129Y-140296491D01*
X64580067Y-140415028D01*
X64672991Y-140572237D01*
X64784992Y-140763076D01*
X64913162Y-140982501D01*
X65054592Y-141225469D01*
X65206373Y-141486937D01*
X65365597Y-141761860D01*
X65529356Y-142045197D01*
X65694740Y-142331902D01*
X65858842Y-142616934D01*
X66018752Y-142895248D01*
X66171562Y-143161802D01*
X66314363Y-143411552D01*
X66444247Y-143639455D01*
X66558305Y-143840466D01*
X66653629Y-144009544D01*
X66727310Y-144141645D01*
X66776439Y-144231724D01*
X66798108Y-144274740D01*
X66798902Y-144277429D01*
X66772002Y-144313930D01*
X66697227Y-144369764D01*
X66583470Y-144439450D01*
X66439623Y-144517509D01*
X66289029Y-144591687D01*
X66084119Y-144681635D01*
X65868633Y-144762453D01*
X65635146Y-144835938D01*
X65376236Y-144903884D01*
X65084479Y-144968088D01*
X64752451Y-145030346D01*
X64372731Y-145092454D01*
X63979937Y-145150290D01*
X63638668Y-145201600D01*
X63352090Y-145252397D01*
X63113015Y-145305204D01*
X62914259Y-145362546D01*
X62748635Y-145426947D01*
X62608956Y-145500931D01*
X62488036Y-145587024D01*
X62378689Y-145687750D01*
X62343428Y-145725167D01*
X62267000Y-145812279D01*
X62210463Y-145883364D01*
X62184235Y-145925167D01*
X62183536Y-145928594D01*
X62174360Y-145949612D01*
X62142515Y-145949849D01*
X62081531Y-145926509D01*
X61984935Y-145876793D01*
X61846254Y-145797905D01*
X61749878Y-145741175D01*
X61606166Y-145652494D01*
X61494483Y-145576559D01*
X61422334Y-145518832D01*
X61397226Y-145484776D01*
X61397241Y-145484529D01*
X61412811Y-145452075D01*
X61456783Y-145370800D01*
X61526605Y-145245134D01*
X61619725Y-145079505D01*
X61733589Y-144878344D01*
X61865646Y-144646080D01*
X62013343Y-144387143D01*
X62174128Y-144105961D01*
X62345448Y-143806965D01*
X62524751Y-143494584D01*
X62709485Y-143173248D01*
X62897098Y-142847386D01*
X63085036Y-142521427D01*
X63270747Y-142199801D01*
X63451680Y-141886937D01*
X63625281Y-141587266D01*
X63788999Y-141305216D01*
X63940281Y-141045218D01*
X64076574Y-140811699D01*
X64195326Y-140609091D01*
X64293985Y-140441823D01*
X64369999Y-140314324D01*
X64420814Y-140231023D01*
X64443879Y-140196350D01*
X64444845Y-140195610D01*
X64463085Y-140221671D01*
G36*
X68110056Y-146519238D02*
G01*
X68132816Y-146557386D01*
X68183975Y-146644843D01*
X68261004Y-146777238D01*
X68361372Y-146950204D01*
X68482549Y-147159370D01*
X68622006Y-147400367D01*
X68777213Y-147668824D01*
X68945640Y-147960374D01*
X69124757Y-148270646D01*
X69308995Y-148590000D01*
X69497152Y-148916235D01*
X69677803Y-149229418D01*
X69848330Y-149525012D01*
X70006114Y-149798480D01*
X70148538Y-150045284D01*
X70272981Y-150260889D01*
X70376826Y-150440755D01*
X70457455Y-150580347D01*
X70512248Y-150675128D01*
X70538013Y-150719573D01*
X70580014Y-150794661D01*
X70602850Y-150841663D01*
X70604102Y-150849841D01*
X70576272Y-150834484D01*
X70498881Y-150790407D01*
X70375973Y-150719942D01*
X70211595Y-150625422D01*
X70009792Y-150509178D01*
X69774609Y-150373542D01*
X69510091Y-150220848D01*
X69220284Y-150053428D01*
X68909233Y-149873613D01*
X68580984Y-149683735D01*
X68456097Y-149611464D01*
X68121974Y-149418167D01*
X67803147Y-149233877D01*
X67503709Y-149060950D01*
X67227752Y-148901743D01*
X66979370Y-148758610D01*
X66762653Y-148633910D01*
X66581696Y-148529996D01*
X66440591Y-148449227D01*
X66343430Y-148393957D01*
X66294307Y-148366544D01*
X66289170Y-148363948D01*
X66304138Y-148340441D01*
X66356227Y-148277591D01*
X66440117Y-148181188D01*
X66550492Y-148057020D01*
X66682034Y-147910879D01*
X66829424Y-147748553D01*
X66987345Y-147575832D01*
X67150479Y-147398506D01*
X67313508Y-147222365D01*
X67471114Y-147053198D01*
X67617979Y-146896795D01*
X67748786Y-146758945D01*
X67858216Y-146645439D01*
X67940953Y-146562065D01*
X67969328Y-146534726D01*
X68063359Y-146446403D01*
X68110056Y-146519238D01*
G37*
X68110056Y-146519238D02*
X68132816Y-146557386D01*
X68183975Y-146644843D01*
X68261004Y-146777238D01*
X68361372Y-146950204D01*
X68482549Y-147159370D01*
X68622006Y-147400367D01*
X68777213Y-147668824D01*
X68945640Y-147960374D01*
X69124757Y-148270646D01*
X69308995Y-148590000D01*
X69497152Y-148916235D01*
X69677803Y-149229418D01*
X69848330Y-149525012D01*
X70006114Y-149798480D01*
X70148538Y-150045284D01*
X70272981Y-150260889D01*
X70376826Y-150440755D01*
X70457455Y-150580347D01*
X70512248Y-150675128D01*
X70538013Y-150719573D01*
X70580014Y-150794661D01*
X70602850Y-150841663D01*
X70604102Y-150849841D01*
X70576272Y-150834484D01*
X70498881Y-150790407D01*
X70375973Y-150719942D01*
X70211595Y-150625422D01*
X70009792Y-150509178D01*
X69774609Y-150373542D01*
X69510091Y-150220848D01*
X69220284Y-150053428D01*
X68909233Y-149873613D01*
X68580984Y-149683735D01*
X68456097Y-149611464D01*
X68121974Y-149418167D01*
X67803147Y-149233877D01*
X67503709Y-149060950D01*
X67227752Y-148901743D01*
X66979370Y-148758610D01*
X66762653Y-148633910D01*
X66581696Y-148529996D01*
X66440591Y-148449227D01*
X66343430Y-148393957D01*
X66294307Y-148366544D01*
X66289170Y-148363948D01*
X66304138Y-148340441D01*
X66356227Y-148277591D01*
X66440117Y-148181188D01*
X66550492Y-148057020D01*
X66682034Y-147910879D01*
X66829424Y-147748553D01*
X66987345Y-147575832D01*
X67150479Y-147398506D01*
X67313508Y-147222365D01*
X67471114Y-147053198D01*
X67617979Y-146896795D01*
X67748786Y-146758945D01*
X67858216Y-146645439D01*
X67940953Y-146562065D01*
X67969328Y-146534726D01*
X68063359Y-146446403D01*
X68110056Y-146519238D01*
G36*
X60779187Y-146632317D02*
G01*
X60844237Y-146657473D01*
X60943385Y-146707425D01*
X61085747Y-146785752D01*
X61096832Y-146791977D01*
X61227947Y-146866952D01*
X61338596Y-146932638D01*
X61417910Y-146982410D01*
X61455023Y-147009641D01*
X61456061Y-147010974D01*
X61447096Y-147048780D01*
X61405971Y-147133210D01*
X61335366Y-147259665D01*
X61237960Y-147423544D01*
X61116435Y-147620245D01*
X60973471Y-147845170D01*
X60937890Y-147900331D01*
X60845186Y-148053398D01*
X60777683Y-148185112D01*
X60741305Y-148283565D01*
X60737572Y-148303014D01*
X60739229Y-148388624D01*
X60757788Y-148524418D01*
X60790936Y-148701687D01*
X60836360Y-148911719D01*
X60891746Y-149145804D01*
X60954780Y-149395232D01*
X61023150Y-149651290D01*
X61094542Y-149905269D01*
X61166641Y-150148457D01*
X61237136Y-150372145D01*
X61303712Y-150567621D01*
X61364055Y-150726174D01*
X61406121Y-150820244D01*
X61455673Y-150920451D01*
X61502460Y-151016337D01*
X61504993Y-151021586D01*
X61582397Y-151118440D01*
X61695368Y-151183656D01*
X61826878Y-151214909D01*
X61959901Y-151209875D01*
X62077410Y-151166228D01*
X62143516Y-151108764D01*
X62238718Y-150951166D01*
X62308478Y-150754756D01*
X62346753Y-150539559D01*
X62352176Y-150417561D01*
X62330339Y-150189870D01*
X62266247Y-150001320D01*
X62156451Y-149842759D01*
X62122213Y-149807467D01*
X62020322Y-149708470D01*
X62006328Y-148308978D01*
X62184635Y-148039062D01*
X62268307Y-147916891D01*
X62348889Y-147806987D01*
X62414885Y-147724673D01*
X62443252Y-147694384D01*
X62523562Y-147619621D01*
X62632330Y-147678196D01*
X62701077Y-147720168D01*
X62738692Y-147752756D01*
X62741097Y-147758615D01*
X62766806Y-147783456D01*
X62810792Y-147801954D01*
X62853299Y-147818626D01*
X62918387Y-147850299D01*
X63011644Y-147900066D01*
X63138658Y-147971018D01*
X63305016Y-148066247D01*
X63516305Y-148188844D01*
X63631124Y-148255864D01*
X63766187Y-148336143D01*
X63854770Y-148393319D01*
X63904710Y-148434078D01*
X63923846Y-148465107D01*
X63920016Y-148493092D01*
X63916822Y-148499593D01*
X63885752Y-148540533D01*
X63819271Y-148617330D01*
X63725124Y-148721393D01*
X63611056Y-148844132D01*
X63512400Y-148948180D01*
X63285059Y-149195134D01*
X63107210Y-149409183D01*
X62977267Y-149592480D01*
X62893642Y-149747176D01*
X62865434Y-149825732D01*
X62853783Y-149894498D01*
X62841749Y-150011799D01*
X62830391Y-150164234D01*
X62820767Y-150338404D01*
X62816238Y-150448537D01*
X62809918Y-150638929D01*
X62807137Y-150778124D01*
X62808715Y-150876819D01*
X62815469Y-150945708D01*
X62828216Y-150995487D01*
X62847773Y-151036850D01*
X62863134Y-151062106D01*
X62951842Y-151159453D01*
X63066147Y-151227291D01*
X63186416Y-151256876D01*
X63276545Y-151246172D01*
X63358152Y-151199861D01*
X63460447Y-151116924D01*
X63569083Y-151011825D01*
X63669713Y-150899032D01*
X63747988Y-150793010D01*
X63776809Y-150741778D01*
X63819982Y-150671628D01*
X63898505Y-150564778D01*
X64005203Y-150429578D01*
X64132903Y-150274381D01*
X64274429Y-150107536D01*
X64422607Y-149937396D01*
X64570263Y-149772311D01*
X64710222Y-149620633D01*
X64835310Y-149490713D01*
X64933520Y-149395339D01*
X65042557Y-149300065D01*
X65134284Y-149229817D01*
X65198621Y-149191898D01*
X65219978Y-149187729D01*
X65252706Y-149204548D01*
X65334341Y-149249692D01*
X65460172Y-149320449D01*
X65625488Y-149414109D01*
X65825578Y-149527962D01*
X66055732Y-149659298D01*
X66311238Y-149805406D01*
X66587387Y-149963576D01*
X66879467Y-150131097D01*
X67182768Y-150305259D01*
X67492579Y-150483352D01*
X67804189Y-150662665D01*
X68112888Y-150840487D01*
X68413964Y-151014109D01*
X68702708Y-151180819D01*
X68974408Y-151337908D01*
X69224354Y-151482666D01*
X69447834Y-151612380D01*
X69640139Y-151724342D01*
X69796557Y-151815841D01*
X69912378Y-151884167D01*
X69982891Y-151926608D01*
X70003329Y-151939927D01*
X69975803Y-151942560D01*
X69889208Y-151945118D01*
X69746428Y-151947592D01*
X69550346Y-151949966D01*
X69303844Y-151952231D01*
X69009806Y-151954373D01*
X68671114Y-151956379D01*
X68290652Y-151958238D01*
X67871301Y-151959937D01*
X67415946Y-151961464D01*
X66927469Y-151962807D01*
X66408753Y-151963952D01*
X65862681Y-151964889D01*
X65292136Y-151965604D01*
X64700000Y-151966085D01*
X64089157Y-151966319D01*
X63832848Y-151966342D01*
X57632939Y-151966342D01*
X58075106Y-151199695D01*
X58168711Y-151037360D01*
X58289204Y-150828332D01*
X58432556Y-150579603D01*
X58594738Y-150298164D01*
X58771723Y-149991007D01*
X58959480Y-149665125D01*
X59153982Y-149327509D01*
X59351200Y-148985151D01*
X59547105Y-148645043D01*
X59596649Y-148559025D01*
X59777304Y-148245715D01*
X59949578Y-147947606D01*
X60110884Y-147669136D01*
X60258632Y-147414743D01*
X60390233Y-147188864D01*
X60503099Y-146995937D01*
X60594641Y-146840401D01*
X60662270Y-146726692D01*
X60703396Y-146659250D01*
X60714905Y-146642080D01*
X60739115Y-146628379D01*
X60779187Y-146632317D01*
G37*
X60779187Y-146632317D02*
X60844237Y-146657473D01*
X60943385Y-146707425D01*
X61085747Y-146785752D01*
X61096832Y-146791977D01*
X61227947Y-146866952D01*
X61338596Y-146932638D01*
X61417910Y-146982410D01*
X61455023Y-147009641D01*
X61456061Y-147010974D01*
X61447096Y-147048780D01*
X61405971Y-147133210D01*
X61335366Y-147259665D01*
X61237960Y-147423544D01*
X61116435Y-147620245D01*
X60973471Y-147845170D01*
X60937890Y-147900331D01*
X60845186Y-148053398D01*
X60777683Y-148185112D01*
X60741305Y-148283565D01*
X60737572Y-148303014D01*
X60739229Y-148388624D01*
X60757788Y-148524418D01*
X60790936Y-148701687D01*
X60836360Y-148911719D01*
X60891746Y-149145804D01*
X60954780Y-149395232D01*
X61023150Y-149651290D01*
X61094542Y-149905269D01*
X61166641Y-150148457D01*
X61237136Y-150372145D01*
X61303712Y-150567621D01*
X61364055Y-150726174D01*
X61406121Y-150820244D01*
X61455673Y-150920451D01*
X61502460Y-151016337D01*
X61504993Y-151021586D01*
X61582397Y-151118440D01*
X61695368Y-151183656D01*
X61826878Y-151214909D01*
X61959901Y-151209875D01*
X62077410Y-151166228D01*
X62143516Y-151108764D01*
X62238718Y-150951166D01*
X62308478Y-150754756D01*
X62346753Y-150539559D01*
X62352176Y-150417561D01*
X62330339Y-150189870D01*
X62266247Y-150001320D01*
X62156451Y-149842759D01*
X62122213Y-149807467D01*
X62020322Y-149708470D01*
X62006328Y-148308978D01*
X62184635Y-148039062D01*
X62268307Y-147916891D01*
X62348889Y-147806987D01*
X62414885Y-147724673D01*
X62443252Y-147694384D01*
X62523562Y-147619621D01*
X62632330Y-147678196D01*
X62701077Y-147720168D01*
X62738692Y-147752756D01*
X62741097Y-147758615D01*
X62766806Y-147783456D01*
X62810792Y-147801954D01*
X62853299Y-147818626D01*
X62918387Y-147850299D01*
X63011644Y-147900066D01*
X63138658Y-147971018D01*
X63305016Y-148066247D01*
X63516305Y-148188844D01*
X63631124Y-148255864D01*
X63766187Y-148336143D01*
X63854770Y-148393319D01*
X63904710Y-148434078D01*
X63923846Y-148465107D01*
X63920016Y-148493092D01*
X63916822Y-148499593D01*
X63885752Y-148540533D01*
X63819271Y-148617330D01*
X63725124Y-148721393D01*
X63611056Y-148844132D01*
X63512400Y-148948180D01*
X63285059Y-149195134D01*
X63107210Y-149409183D01*
X62977267Y-149592480D01*
X62893642Y-149747176D01*
X62865434Y-149825732D01*
X62853783Y-149894498D01*
X62841749Y-150011799D01*
X62830391Y-150164234D01*
X62820767Y-150338404D01*
X62816238Y-150448537D01*
X62809918Y-150638929D01*
X62807137Y-150778124D01*
X62808715Y-150876819D01*
X62815469Y-150945708D01*
X62828216Y-150995487D01*
X62847773Y-151036850D01*
X62863134Y-151062106D01*
X62951842Y-151159453D01*
X63066147Y-151227291D01*
X63186416Y-151256876D01*
X63276545Y-151246172D01*
X63358152Y-151199861D01*
X63460447Y-151116924D01*
X63569083Y-151011825D01*
X63669713Y-150899032D01*
X63747988Y-150793010D01*
X63776809Y-150741778D01*
X63819982Y-150671628D01*
X63898505Y-150564778D01*
X64005203Y-150429578D01*
X64132903Y-150274381D01*
X64274429Y-150107536D01*
X64422607Y-149937396D01*
X64570263Y-149772311D01*
X64710222Y-149620633D01*
X64835310Y-149490713D01*
X64933520Y-149395339D01*
X65042557Y-149300065D01*
X65134284Y-149229817D01*
X65198621Y-149191898D01*
X65219978Y-149187729D01*
X65252706Y-149204548D01*
X65334341Y-149249692D01*
X65460172Y-149320449D01*
X65625488Y-149414109D01*
X65825578Y-149527962D01*
X66055732Y-149659298D01*
X66311238Y-149805406D01*
X66587387Y-149963576D01*
X66879467Y-150131097D01*
X67182768Y-150305259D01*
X67492579Y-150483352D01*
X67804189Y-150662665D01*
X68112888Y-150840487D01*
X68413964Y-151014109D01*
X68702708Y-151180819D01*
X68974408Y-151337908D01*
X69224354Y-151482666D01*
X69447834Y-151612380D01*
X69640139Y-151724342D01*
X69796557Y-151815841D01*
X69912378Y-151884167D01*
X69982891Y-151926608D01*
X70003329Y-151939927D01*
X69975803Y-151942560D01*
X69889208Y-151945118D01*
X69746428Y-151947592D01*
X69550346Y-151949966D01*
X69303844Y-151952231D01*
X69009806Y-151954373D01*
X68671114Y-151956379D01*
X68290652Y-151958238D01*
X67871301Y-151959937D01*
X67415946Y-151961464D01*
X66927469Y-151962807D01*
X66408753Y-151963952D01*
X65862681Y-151964889D01*
X65292136Y-151965604D01*
X64700000Y-151966085D01*
X64089157Y-151966319D01*
X63832848Y-151966342D01*
X57632939Y-151966342D01*
X58075106Y-151199695D01*
X58168711Y-151037360D01*
X58289204Y-150828332D01*
X58432556Y-150579603D01*
X58594738Y-150298164D01*
X58771723Y-149991007D01*
X58959480Y-149665125D01*
X59153982Y-149327509D01*
X59351200Y-148985151D01*
X59547105Y-148645043D01*
X59596649Y-148559025D01*
X59777304Y-148245715D01*
X59949578Y-147947606D01*
X60110884Y-147669136D01*
X60258632Y-147414743D01*
X60390233Y-147188864D01*
X60503099Y-146995937D01*
X60594641Y-146840401D01*
X60662270Y-146726692D01*
X60703396Y-146659250D01*
X60714905Y-146642080D01*
X60739115Y-146628379D01*
X60779187Y-146632317D01*
D12*
%TO.C,C1*%
X53440000Y-135201252D02*
X53440000Y-134678748D01*
X51970000Y-135201252D02*
X51970000Y-134678748D01*
%TO.C,U2*%
X41895000Y-162955000D02*
X41895000Y-161755000D01*
X41895000Y-162955000D02*
X41435000Y-162955000D01*
X41815000Y-159295000D02*
X38735000Y-159295000D01*
X36235000Y-162955000D02*
X36015000Y-162955000D01*
X36235000Y-162955000D02*
G75*
G03*
X41435000Y-162955000I2600000J1100000D01*
G01*
D10*
%TO.C,ON/OFF*%
X58660000Y-159625000D02*
X67260000Y-159625000D01*
X58660000Y-164225000D02*
X60860000Y-164225000D01*
X64960000Y-164225000D02*
X67260000Y-164225000D01*
D12*
%TO.C,D1*%
X93555000Y-132875000D02*
X93555000Y-140175000D01*
X92405000Y-132875000D02*
X93555000Y-132875000D01*
X88055000Y-132875000D02*
X88055000Y-140175000D01*
%TO.C,D4*%
X107105000Y-157320000D02*
X107105000Y-150020000D01*
X108255000Y-157320000D02*
X107105000Y-157320000D01*
X112605000Y-157320000D02*
X112605000Y-150020000D01*
%TO.C,D2*%
X88055000Y-157320000D02*
X88055000Y-150020000D01*
X89205000Y-157320000D02*
X88055000Y-157320000D01*
X93555000Y-157320000D02*
X93555000Y-150020000D01*
%TO.C,D3*%
X112605000Y-132875000D02*
X112605000Y-140175000D01*
X111455000Y-132875000D02*
X112605000Y-132875000D01*
X107105000Y-132875000D02*
X107105000Y-140175000D01*
%TO.C,U1*%
X57725000Y-133715000D02*
X57725000Y-135365000D01*
X57725000Y-135365000D02*
X68005000Y-135365000D01*
X68005000Y-135365000D02*
X68005000Y-130065000D01*
X68005000Y-130065000D02*
X57725000Y-130065000D01*
X57725000Y-130065000D02*
X57725000Y-131715000D01*
X57725000Y-131715000D02*
G75*
G02*
X57725000Y-133715000I0J-1000000D01*
G01*
%TO.C,SW1*%
X48080000Y-147480000D02*
X48080000Y-145400000D01*
X52250000Y-143720000D02*
X52740000Y-144210000D01*
X53520000Y-147480000D02*
X53520000Y-145400000D01*
X49350000Y-143720000D02*
X48860000Y-144210000D01*
X49350000Y-143720000D02*
X52250000Y-143720000D01*
X49350000Y-149160000D02*
X48860000Y-148670000D01*
X49350000Y-149160000D02*
X52250000Y-149160000D01*
X52250000Y-149160000D02*
X52740000Y-148670000D01*
%TO.C,R_red*%
X82142064Y-142340000D02*
X81687936Y-142340000D01*
X82142064Y-140870000D02*
X81687936Y-140870000D01*
%TO.C,R_pu*%
X57037500Y-134382742D02*
X57037500Y-134857258D01*
X55992500Y-134382742D02*
X55992500Y-134857258D01*
%TO.C,R_pd*%
X44337500Y-145177742D02*
X44337500Y-145652258D01*
X43292500Y-145177742D02*
X43292500Y-145652258D01*
%TO.C,R_green*%
X82142064Y-145832500D02*
X81687936Y-145832500D01*
X82142064Y-144362500D02*
X81687936Y-144362500D01*
%TO.C,R_blue*%
X82142064Y-149325000D02*
X81687936Y-149325000D01*
X82142064Y-147855000D02*
X81687936Y-147855000D01*
%TO.C,J2*%
X40140000Y-126765000D02*
X40640000Y-127765000D01*
X41140000Y-126765000D02*
X40140000Y-126765000D01*
X40640000Y-127765000D02*
X41140000Y-126765000D01*
X36050000Y-129465000D02*
X36050000Y-128155000D01*
X36050000Y-129465000D02*
X36050000Y-129465000D01*
X31650000Y-129465000D02*
X36050000Y-129465000D01*
X31650000Y-135965000D02*
X31650000Y-129465000D01*
X44550000Y-135965000D02*
X31650000Y-135965000D01*
X44550000Y-129465000D02*
X44550000Y-135965000D01*
X40150000Y-129465000D02*
X44550000Y-129465000D01*
X40150000Y-128155000D02*
X40150000Y-129465000D01*
X30350000Y-128155000D02*
X45850000Y-128155000D01*
X30350000Y-137275000D02*
X30350000Y-128155000D01*
X45850000Y-137275000D02*
X30350000Y-137275000D01*
X45850000Y-128155000D02*
X45850000Y-137275000D01*
%TO.C,C2*%
X35460000Y-157106252D02*
X35460000Y-156583748D01*
X36930000Y-157106252D02*
X36930000Y-156583748D01*
%TO.C,C1*%
D10*
X51382142Y-135106666D02*
X51429761Y-135154285D01*
X51477380Y-135297142D01*
X51477380Y-135392380D01*
X51429761Y-135535238D01*
X51334523Y-135630476D01*
X51239285Y-135678095D01*
X51048809Y-135725714D01*
X50905952Y-135725714D01*
X50715476Y-135678095D01*
X50620238Y-135630476D01*
X50525000Y-135535238D01*
X50477380Y-135392380D01*
X50477380Y-135297142D01*
X50525000Y-135154285D01*
X50572619Y-135106666D01*
X51477380Y-134154285D02*
X51477380Y-134725714D01*
X51477380Y-134440000D02*
X50477380Y-134440000D01*
X50620238Y-134535238D01*
X50715476Y-134630476D01*
X50763095Y-134725714D01*
%TO.C,U2*%
X37933095Y-157857380D02*
X37933095Y-158666904D01*
X37980714Y-158762142D01*
X38028333Y-158809761D01*
X38123571Y-158857380D01*
X38314047Y-158857380D01*
X38409285Y-158809761D01*
X38456904Y-158762142D01*
X38504523Y-158666904D01*
X38504523Y-157857380D01*
X38933095Y-157952619D02*
X38980714Y-157905000D01*
X39075952Y-157857380D01*
X39314047Y-157857380D01*
X39409285Y-157905000D01*
X39456904Y-157952619D01*
X39504523Y-158047857D01*
X39504523Y-158143095D01*
X39456904Y-158285952D01*
X38885476Y-158857380D01*
X39504523Y-158857380D01*
%TO.C,ON/OFF*%
X59836190Y-157777380D02*
X60026666Y-157777380D01*
X60121904Y-157825000D01*
X60217142Y-157920238D01*
X60264761Y-158110714D01*
X60264761Y-158444047D01*
X60217142Y-158634523D01*
X60121904Y-158729761D01*
X60026666Y-158777380D01*
X59836190Y-158777380D01*
X59740952Y-158729761D01*
X59645714Y-158634523D01*
X59598095Y-158444047D01*
X59598095Y-158110714D01*
X59645714Y-157920238D01*
X59740952Y-157825000D01*
X59836190Y-157777380D01*
X60693333Y-158777380D02*
X60693333Y-157777380D01*
X61264761Y-158777380D01*
X61264761Y-157777380D01*
X62455238Y-157729761D02*
X61598095Y-159015476D01*
X62979047Y-157777380D02*
X63169523Y-157777380D01*
X63264761Y-157825000D01*
X63360000Y-157920238D01*
X63407619Y-158110714D01*
X63407619Y-158444047D01*
X63360000Y-158634523D01*
X63264761Y-158729761D01*
X63169523Y-158777380D01*
X62979047Y-158777380D01*
X62883809Y-158729761D01*
X62788571Y-158634523D01*
X62740952Y-158444047D01*
X62740952Y-158110714D01*
X62788571Y-157920238D01*
X62883809Y-157825000D01*
X62979047Y-157777380D01*
X64169523Y-158253571D02*
X63836190Y-158253571D01*
X63836190Y-158777380D02*
X63836190Y-157777380D01*
X64312380Y-157777380D01*
X65026666Y-158253571D02*
X64693333Y-158253571D01*
X64693333Y-158777380D02*
X64693333Y-157777380D01*
X65169523Y-157777380D01*
%TO.C,D1*%
X94757380Y-137263095D02*
X93757380Y-137263095D01*
X93757380Y-137025000D01*
X93805000Y-136882142D01*
X93900238Y-136786904D01*
X93995476Y-136739285D01*
X94185952Y-136691666D01*
X94328809Y-136691666D01*
X94519285Y-136739285D01*
X94614523Y-136786904D01*
X94709761Y-136882142D01*
X94757380Y-137025000D01*
X94757380Y-137263095D01*
X94757380Y-135739285D02*
X94757380Y-136310714D01*
X94757380Y-136025000D02*
X93757380Y-136025000D01*
X93900238Y-136120238D01*
X93995476Y-136215476D01*
X94043095Y-136310714D01*
%TO.C,D4*%
X106807380Y-154408095D02*
X105807380Y-154408095D01*
X105807380Y-154170000D01*
X105855000Y-154027142D01*
X105950238Y-153931904D01*
X106045476Y-153884285D01*
X106235952Y-153836666D01*
X106378809Y-153836666D01*
X106569285Y-153884285D01*
X106664523Y-153931904D01*
X106759761Y-154027142D01*
X106807380Y-154170000D01*
X106807380Y-154408095D01*
X106140714Y-152979523D02*
X106807380Y-152979523D01*
X105759761Y-153217619D02*
X106474047Y-153455714D01*
X106474047Y-152836666D01*
%TO.C,D2*%
X87757380Y-154408095D02*
X86757380Y-154408095D01*
X86757380Y-154170000D01*
X86805000Y-154027142D01*
X86900238Y-153931904D01*
X86995476Y-153884285D01*
X87185952Y-153836666D01*
X87328809Y-153836666D01*
X87519285Y-153884285D01*
X87614523Y-153931904D01*
X87709761Y-154027142D01*
X87757380Y-154170000D01*
X87757380Y-154408095D01*
X86852619Y-153455714D02*
X86805000Y-153408095D01*
X86757380Y-153312857D01*
X86757380Y-153074761D01*
X86805000Y-152979523D01*
X86852619Y-152931904D01*
X86947857Y-152884285D01*
X87043095Y-152884285D01*
X87185952Y-152931904D01*
X87757380Y-153503333D01*
X87757380Y-152884285D01*
%TO.C,D3*%
X113807380Y-137263095D02*
X112807380Y-137263095D01*
X112807380Y-137025000D01*
X112855000Y-136882142D01*
X112950238Y-136786904D01*
X113045476Y-136739285D01*
X113235952Y-136691666D01*
X113378809Y-136691666D01*
X113569285Y-136739285D01*
X113664523Y-136786904D01*
X113759761Y-136882142D01*
X113807380Y-137025000D01*
X113807380Y-137263095D01*
X112807380Y-136358333D02*
X112807380Y-135739285D01*
X113188333Y-136072619D01*
X113188333Y-135929761D01*
X113235952Y-135834523D01*
X113283571Y-135786904D01*
X113378809Y-135739285D01*
X113616904Y-135739285D01*
X113712142Y-135786904D01*
X113759761Y-135834523D01*
X113807380Y-135929761D01*
X113807380Y-136215476D01*
X113759761Y-136310714D01*
X113712142Y-136358333D01*
%TO.C,U1*%
X55967380Y-136651904D02*
X56776904Y-136651904D01*
X56872142Y-136604285D01*
X56919761Y-136556666D01*
X56967380Y-136461428D01*
X56967380Y-136270952D01*
X56919761Y-136175714D01*
X56872142Y-136128095D01*
X56776904Y-136080476D01*
X55967380Y-136080476D01*
X56967380Y-135080476D02*
X56967380Y-135651904D01*
X56967380Y-135366190D02*
X55967380Y-135366190D01*
X56110238Y-135461428D01*
X56205476Y-135556666D01*
X56253095Y-135651904D01*
%TO.C,SW1*%
X49466666Y-143244761D02*
X49609523Y-143292380D01*
X49847619Y-143292380D01*
X49942857Y-143244761D01*
X49990476Y-143197142D01*
X50038095Y-143101904D01*
X50038095Y-143006666D01*
X49990476Y-142911428D01*
X49942857Y-142863809D01*
X49847619Y-142816190D01*
X49657142Y-142768571D01*
X49561904Y-142720952D01*
X49514285Y-142673333D01*
X49466666Y-142578095D01*
X49466666Y-142482857D01*
X49514285Y-142387619D01*
X49561904Y-142340000D01*
X49657142Y-142292380D01*
X49895238Y-142292380D01*
X50038095Y-142340000D01*
X50371428Y-142292380D02*
X50609523Y-143292380D01*
X50800000Y-142578095D01*
X50990476Y-143292380D01*
X51228571Y-142292380D01*
X52133333Y-143292380D02*
X51561904Y-143292380D01*
X51847619Y-143292380D02*
X51847619Y-142292380D01*
X51752380Y-142435238D01*
X51657142Y-142530476D01*
X51561904Y-142578095D01*
%TO.C,R_red*%
X76208095Y-142057380D02*
X75874761Y-141581190D01*
X75636666Y-142057380D02*
X75636666Y-141057380D01*
X76017619Y-141057380D01*
X76112857Y-141105000D01*
X76160476Y-141152619D01*
X76208095Y-141247857D01*
X76208095Y-141390714D01*
X76160476Y-141485952D01*
X76112857Y-141533571D01*
X76017619Y-141581190D01*
X75636666Y-141581190D01*
X76398571Y-142152619D02*
X77160476Y-142152619D01*
X77398571Y-142057380D02*
X77398571Y-141390714D01*
X77398571Y-141581190D02*
X77446190Y-141485952D01*
X77493809Y-141438333D01*
X77589047Y-141390714D01*
X77684285Y-141390714D01*
X78398571Y-142009761D02*
X78303333Y-142057380D01*
X78112857Y-142057380D01*
X78017619Y-142009761D01*
X77970000Y-141914523D01*
X77970000Y-141533571D01*
X78017619Y-141438333D01*
X78112857Y-141390714D01*
X78303333Y-141390714D01*
X78398571Y-141438333D01*
X78446190Y-141533571D01*
X78446190Y-141628809D01*
X77970000Y-141724047D01*
X79303333Y-142057380D02*
X79303333Y-141057380D01*
X79303333Y-142009761D02*
X79208095Y-142057380D01*
X79017619Y-142057380D01*
X78922380Y-142009761D01*
X78874761Y-141962142D01*
X78827142Y-141866904D01*
X78827142Y-141581190D01*
X78874761Y-141485952D01*
X78922380Y-141438333D01*
X79017619Y-141390714D01*
X79208095Y-141390714D01*
X79303333Y-141438333D01*
%TO.C,R_pu*%
X55062380Y-135596190D02*
X54586190Y-135929523D01*
X55062380Y-136167619D02*
X54062380Y-136167619D01*
X54062380Y-135786666D01*
X54110000Y-135691428D01*
X54157619Y-135643809D01*
X54252857Y-135596190D01*
X54395714Y-135596190D01*
X54490952Y-135643809D01*
X54538571Y-135691428D01*
X54586190Y-135786666D01*
X54586190Y-136167619D01*
X55157619Y-135405714D02*
X55157619Y-134643809D01*
X54395714Y-134405714D02*
X55395714Y-134405714D01*
X54443333Y-134405714D02*
X54395714Y-134310476D01*
X54395714Y-134120000D01*
X54443333Y-134024761D01*
X54490952Y-133977142D01*
X54586190Y-133929523D01*
X54871904Y-133929523D01*
X54967142Y-133977142D01*
X55014761Y-134024761D01*
X55062380Y-134120000D01*
X55062380Y-134310476D01*
X55014761Y-134405714D01*
X54395714Y-133072380D02*
X55062380Y-133072380D01*
X54395714Y-133500952D02*
X54919523Y-133500952D01*
X55014761Y-133453333D01*
X55062380Y-133358095D01*
X55062380Y-133215238D01*
X55014761Y-133120000D01*
X54967142Y-133072380D01*
%TO.C,R_pd*%
X45697380Y-146391190D02*
X45221190Y-146724523D01*
X45697380Y-146962619D02*
X44697380Y-146962619D01*
X44697380Y-146581666D01*
X44745000Y-146486428D01*
X44792619Y-146438809D01*
X44887857Y-146391190D01*
X45030714Y-146391190D01*
X45125952Y-146438809D01*
X45173571Y-146486428D01*
X45221190Y-146581666D01*
X45221190Y-146962619D01*
X45792619Y-146200714D02*
X45792619Y-145438809D01*
X45030714Y-145200714D02*
X46030714Y-145200714D01*
X45078333Y-145200714D02*
X45030714Y-145105476D01*
X45030714Y-144915000D01*
X45078333Y-144819761D01*
X45125952Y-144772142D01*
X45221190Y-144724523D01*
X45506904Y-144724523D01*
X45602142Y-144772142D01*
X45649761Y-144819761D01*
X45697380Y-144915000D01*
X45697380Y-145105476D01*
X45649761Y-145200714D01*
X45697380Y-143867380D02*
X44697380Y-143867380D01*
X45649761Y-143867380D02*
X45697380Y-143962619D01*
X45697380Y-144153095D01*
X45649761Y-144248333D01*
X45602142Y-144295952D01*
X45506904Y-144343571D01*
X45221190Y-144343571D01*
X45125952Y-144295952D01*
X45078333Y-144248333D01*
X45030714Y-144153095D01*
X45030714Y-143962619D01*
X45078333Y-143867380D01*
%TO.C,R_green*%
X74692142Y-145232380D02*
X74358809Y-144756190D01*
X74120714Y-145232380D02*
X74120714Y-144232380D01*
X74501666Y-144232380D01*
X74596904Y-144280000D01*
X74644523Y-144327619D01*
X74692142Y-144422857D01*
X74692142Y-144565714D01*
X74644523Y-144660952D01*
X74596904Y-144708571D01*
X74501666Y-144756190D01*
X74120714Y-144756190D01*
X74882619Y-145327619D02*
X75644523Y-145327619D01*
X76311190Y-144565714D02*
X76311190Y-145375238D01*
X76263571Y-145470476D01*
X76215952Y-145518095D01*
X76120714Y-145565714D01*
X75977857Y-145565714D01*
X75882619Y-145518095D01*
X76311190Y-145184761D02*
X76215952Y-145232380D01*
X76025476Y-145232380D01*
X75930238Y-145184761D01*
X75882619Y-145137142D01*
X75835000Y-145041904D01*
X75835000Y-144756190D01*
X75882619Y-144660952D01*
X75930238Y-144613333D01*
X76025476Y-144565714D01*
X76215952Y-144565714D01*
X76311190Y-144613333D01*
X76787380Y-145232380D02*
X76787380Y-144565714D01*
X76787380Y-144756190D02*
X76835000Y-144660952D01*
X76882619Y-144613333D01*
X76977857Y-144565714D01*
X77073095Y-144565714D01*
X77787380Y-145184761D02*
X77692142Y-145232380D01*
X77501666Y-145232380D01*
X77406428Y-145184761D01*
X77358809Y-145089523D01*
X77358809Y-144708571D01*
X77406428Y-144613333D01*
X77501666Y-144565714D01*
X77692142Y-144565714D01*
X77787380Y-144613333D01*
X77835000Y-144708571D01*
X77835000Y-144803809D01*
X77358809Y-144899047D01*
X78644523Y-145184761D02*
X78549285Y-145232380D01*
X78358809Y-145232380D01*
X78263571Y-145184761D01*
X78215952Y-145089523D01*
X78215952Y-144708571D01*
X78263571Y-144613333D01*
X78358809Y-144565714D01*
X78549285Y-144565714D01*
X78644523Y-144613333D01*
X78692142Y-144708571D01*
X78692142Y-144803809D01*
X78215952Y-144899047D01*
X79120714Y-144565714D02*
X79120714Y-145232380D01*
X79120714Y-144660952D02*
X79168333Y-144613333D01*
X79263571Y-144565714D01*
X79406428Y-144565714D01*
X79501666Y-144613333D01*
X79549285Y-144708571D01*
X79549285Y-145232380D01*
%TO.C,R_blue*%
X75168333Y-149042380D02*
X74835000Y-148566190D01*
X74596904Y-149042380D02*
X74596904Y-148042380D01*
X74977857Y-148042380D01*
X75073095Y-148090000D01*
X75120714Y-148137619D01*
X75168333Y-148232857D01*
X75168333Y-148375714D01*
X75120714Y-148470952D01*
X75073095Y-148518571D01*
X74977857Y-148566190D01*
X74596904Y-148566190D01*
X75358809Y-149137619D02*
X76120714Y-149137619D01*
X76358809Y-149042380D02*
X76358809Y-148042380D01*
X76358809Y-148423333D02*
X76454047Y-148375714D01*
X76644523Y-148375714D01*
X76739761Y-148423333D01*
X76787380Y-148470952D01*
X76835000Y-148566190D01*
X76835000Y-148851904D01*
X76787380Y-148947142D01*
X76739761Y-148994761D01*
X76644523Y-149042380D01*
X76454047Y-149042380D01*
X76358809Y-148994761D01*
X77406428Y-149042380D02*
X77311190Y-148994761D01*
X77263571Y-148899523D01*
X77263571Y-148042380D01*
X78215952Y-148375714D02*
X78215952Y-149042380D01*
X77787380Y-148375714D02*
X77787380Y-148899523D01*
X77835000Y-148994761D01*
X77930238Y-149042380D01*
X78073095Y-149042380D01*
X78168333Y-148994761D01*
X78215952Y-148947142D01*
X79073095Y-148994761D02*
X78977857Y-149042380D01*
X78787380Y-149042380D01*
X78692142Y-148994761D01*
X78644523Y-148899523D01*
X78644523Y-148518571D01*
X78692142Y-148423333D01*
X78787380Y-148375714D01*
X78977857Y-148375714D01*
X79073095Y-148423333D01*
X79120714Y-148518571D01*
X79120714Y-148613809D01*
X78644523Y-148709047D01*
%TO.C,C2*%
X34872142Y-157011666D02*
X34919761Y-157059285D01*
X34967380Y-157202142D01*
X34967380Y-157297380D01*
X34919761Y-157440238D01*
X34824523Y-157535476D01*
X34729285Y-157583095D01*
X34538809Y-157630714D01*
X34395952Y-157630714D01*
X34205476Y-157583095D01*
X34110238Y-157535476D01*
X34015000Y-157440238D01*
X33967380Y-157297380D01*
X33967380Y-157202142D01*
X34015000Y-157059285D01*
X34062619Y-157011666D01*
X34062619Y-156630714D02*
X34015000Y-156583095D01*
X33967380Y-156487857D01*
X33967380Y-156249761D01*
X34015000Y-156154523D01*
X34062619Y-156106904D01*
X34157857Y-156059285D01*
X34253095Y-156059285D01*
X34395952Y-156106904D01*
X34967380Y-156678333D01*
X34967380Y-156059285D01*
%TD*%
M02*
